<?xml version="1.0" encoding="UTF-8"?>
<svg xmlns="http://www.w3.org/2000/svg" xmlns:xlink="http://www.w3.org/1999/xlink" width="21.865845" height="15.677979" viewBox="0 0 21.865845 15.677979">
<defs>
<clipPath id="clip-0">
<path clip-rule="nonzero" d="M 0.15625 0 L 14 0 L 14 15.363281 L 0.15625 15.363281 Z M 0.15625 0 "/>
</clipPath>
<clipPath id="clip-1">
<path clip-rule="nonzero" d="M 10 0 L 18 0 L 18 15.363281 L 10 15.363281 Z M 10 0 "/>
</clipPath>
<clipPath id="clip-2">
<path clip-rule="nonzero" d="M 14 0 L 21.578125 0 L 21.578125 15.363281 L 14 15.363281 Z M 14 0 "/>
</clipPath>
</defs>
<g clip-path="url(#clip-0)">
<path fill-rule="nonzero" fill="rgb(0%, 0%, 0%)" fill-opacity="1" d="M 0.890625 6.945312 C 0.484375 6.945312 0.15625 7.273438 0.15625 7.679688 C 0.15625 8.085938 0.484375 8.417969 0.890625 8.417969 Z M 6.769531 8.417969 C 7.175781 8.417969 7.503906 8.085938 7.503906 7.679688 C 7.503906 7.273438 7.175781 6.945312 6.769531 6.945312 Z M 4.5625 4.742188 C 4.5625 4.335938 4.234375 4.007812 3.828125 4.007812 C 3.421875 4.007812 3.09375 4.335938 3.09375 4.742188 Z M 3.09375 10.621094 C 3.09375 11.027344 3.421875 11.355469 3.828125 11.355469 C 4.234375 11.355469 4.5625 11.027344 4.5625 10.621094 Z M 4.5 1.316406 C 4.234375 1.625 4.265625 2.085938 4.570312 2.355469 C 4.875 2.621094 5.339844 2.589844 5.605469 2.285156 Z M 5.292969 1.527344 L 4.742188 1.042969 Z M 6.769531 0.859375 L 6.769531 1.59375 Z M 8.242188 1.527344 L 8.796875 1.042969 Z M 12.5 6.390625 L 13.050781 5.90625 Z M 12.5 8.972656 L 13.050781 9.457031 Z M 8.242188 13.835938 L 8.796875 14.320312 Z M 5.292969 13.835938 L 4.742188 14.320312 Z M 5.605469 13.078125 C 5.339844 12.769531 4.875 12.738281 4.570312 13.007812 C 4.265625 13.273438 4.234375 13.738281 4.5 14.042969 Z M 0.890625 8.417969 L 3.828125 8.417969 L 3.828125 6.945312 L 0.890625 6.945312 Z M 6.769531 6.945312 L 3.828125 6.945312 L 3.828125 8.417969 L 6.769531 8.417969 Z M 4.5625 7.679688 L 4.5625 4.742188 L 3.09375 4.742188 L 3.09375 7.679688 Z M 3.09375 7.679688 L 3.09375 10.621094 L 4.5625 10.621094 L 4.5625 7.679688 Z M 5.605469 2.285156 L 5.847656 2.011719 L 4.742188 1.042969 L 4.5 1.316406 Z M 5.847656 2.011719 C 5.960938 1.878906 6.101562 1.773438 6.261719 1.703125 L 5.65625 0.363281 C 5.304688 0.523438 4.992188 0.753906 4.742188 1.042969 Z M 6.261719 1.703125 C 6.421875 1.628906 6.59375 1.59375 6.769531 1.59375 L 6.769531 0.125 C 6.382812 0.125 6.003906 0.207031 5.65625 0.363281 Z M 6.769531 1.59375 C 6.941406 1.59375 7.117188 1.628906 7.273438 1.703125 L 7.882812 0.363281 C 7.53125 0.207031 7.152344 0.125 6.769531 0.125 Z M 7.273438 1.703125 C 7.433594 1.773438 7.574219 1.878906 7.691406 2.011719 L 8.796875 1.042969 C 8.542969 0.753906 8.230469 0.523438 7.882812 0.363281 Z M 7.691406 2.011719 L 11.945312 6.875 L 13.050781 5.90625 L 8.796875 1.042969 Z M 11.945312 6.875 C 12.140625 7.097656 12.25 7.382812 12.25 7.679688 L 13.71875 7.679688 C 13.71875 7.027344 13.480469 6.398438 13.050781 5.90625 Z M 12.25 7.679688 C 12.25 7.976562 12.140625 8.265625 11.945312 8.488281 L 13.050781 9.457031 C 13.480469 8.964844 13.71875 8.332031 13.71875 7.679688 Z M 11.945312 8.488281 L 7.691406 13.351562 L 8.796875 14.320312 L 13.050781 9.457031 Z M 7.691406 13.351562 C 7.574219 13.480469 7.433594 13.585938 7.273438 13.660156 L 7.882812 14.996094 C 8.230469 14.839844 8.542969 14.609375 8.796875 14.320312 Z M 7.273438 13.660156 C 7.117188 13.730469 6.941406 13.769531 6.769531 13.769531 L 6.769531 15.238281 C 7.152344 15.238281 7.53125 15.15625 7.882812 14.996094 Z M 6.769531 13.769531 C 6.59375 13.769531 6.421875 13.730469 6.261719 13.660156 L 5.65625 14.996094 C 6.003906 15.15625 6.382812 15.238281 6.769531 15.238281 Z M 6.261719 13.660156 C 6.101562 13.585938 5.960938 13.480469 5.847656 13.351562 L 4.742188 14.320312 C 4.992188 14.609375 5.304688 14.839844 5.65625 14.996094 Z M 5.847656 13.351562 L 5.605469 13.078125 L 4.5 14.042969 L 4.742188 14.320312 Z M 5.847656 13.351562 "/>
</g>
<g clip-path="url(#clip-1)">
<path fill-rule="nonzero" fill="rgb(0%, 0%, 0%)" fill-opacity="1" d="M 11.109375 14.0625 C 10.847656 14.371094 10.882812 14.835938 11.191406 15.097656 C 11.496094 15.363281 11.960938 15.328125 12.226562 15.019531 Z M 16.453125 8.957031 L 15.894531 8.480469 Z M 16.453125 6.40625 L 15.894531 6.882812 Z M 12.226562 0.34375 C 11.960938 0.0351562 11.496094 0 11.191406 0.265625 C 10.882812 0.527344 10.847656 0.992188 11.109375 1.300781 Z M 12.226562 15.019531 L 17.011719 9.433594 L 15.894531 8.480469 L 11.109375 14.0625 Z M 17.011719 9.433594 C 17.429688 8.945312 17.660156 8.324219 17.660156 7.679688 L 16.191406 7.679688 C 16.191406 7.972656 16.085938 8.257812 15.894531 8.480469 Z M 17.660156 7.679688 C 17.660156 7.039062 17.429688 6.414062 17.011719 5.925781 L 15.894531 6.882812 C 16.085938 7.105469 16.191406 7.390625 16.191406 7.679688 Z M 17.011719 5.925781 L 12.226562 0.34375 L 11.109375 1.300781 L 15.894531 6.882812 Z M 17.011719 5.925781 "/>
</g>
<g clip-path="url(#clip-2)">
<path fill-rule="nonzero" fill="rgb(0%, 0%, 0%)" fill-opacity="1" d="M 15.03125 14.0625 C 14.765625 14.371094 14.800781 14.835938 15.109375 15.097656 C 15.417969 15.363281 15.882812 15.328125 16.144531 15.019531 Z M 20.371094 8.957031 L 19.816406 8.480469 Z M 20.371094 6.40625 L 19.816406 6.882812 Z M 16.144531 0.34375 C 15.882812 0.0351562 15.417969 0 15.109375 0.265625 C 14.800781 0.527344 14.765625 0.992188 15.03125 1.300781 Z M 16.144531 15.019531 L 20.929688 9.433594 L 19.816406 8.480469 L 15.03125 14.0625 Z M 20.929688 9.433594 C 21.351562 8.945312 21.578125 8.324219 21.578125 7.679688 L 20.109375 7.679688 C 20.109375 7.972656 20.003906 8.257812 19.816406 8.480469 Z M 21.578125 7.679688 C 21.578125 7.039062 21.351562 6.414062 20.929688 5.925781 L 19.816406 6.882812 C 20.003906 7.105469 20.109375 7.390625 20.109375 7.679688 Z M 20.929688 5.925781 L 16.144531 0.34375 L 15.03125 1.300781 L 19.816406 6.882812 Z M 20.929688 5.925781 "/>
</g>
</svg>
