<?xml version="1.0" encoding="UTF-8"?>
<svg xmlns="http://www.w3.org/2000/svg" xmlns:xlink="http://www.w3.org/1999/xlink" width="21.573242" height="21.146484" viewBox="0 0 21.573242 21.146484">
<defs>
<clipPath id="clip-0">
<path clip-rule="nonzero" d="M 7 0 L 20.949219 0 L 20.949219 20.324219 L 7 20.324219 Z M 7 0 "/>
</clipPath>
<clipPath id="clip-1">
<path clip-rule="nonzero" d="M 0.214844 2 L 18 2 L 18 19 L 0.214844 19 Z M 0.214844 2 "/>
</clipPath>
</defs>
<g clip-path="url(#clip-0)">
<path fill-rule="nonzero" fill="rgb(0%, 0%, 0%)" fill-opacity="1" d="M 15.832031 16.410156 C 15.433594 16.410156 15.113281 16.734375 15.113281 17.132812 C 15.113281 17.53125 15.433594 17.851562 15.832031 17.851562 Z M 20.160156 17.132812 L 20.667969 17.640625 C 20.949219 17.359375 20.949219 16.902344 20.667969 16.621094 Z M 18.265625 14.21875 C 17.984375 13.9375 17.527344 13.9375 17.246094 14.21875 C 16.964844 14.5 16.964844 14.957031 17.246094 15.238281 Z M 17.246094 19.023438 C 16.964844 19.304688 16.964844 19.761719 17.246094 20.042969 C 17.527344 20.324219 17.984375 20.324219 18.265625 20.042969 Z M 11.054688 1.300781 C 11.335938 1.019531 11.335938 0.5625 11.054688 0.28125 C 10.773438 0 10.316406 0 10.035156 0.28125 Z M 8.144531 3.195312 L 7.632812 2.683594 C 7.425781 2.890625 7.367188 3.199219 7.476562 3.46875 C 7.589844 3.738281 7.851562 3.914062 8.144531 3.914062 Z M 8.625 3.914062 C 9.023438 3.914062 9.34375 3.59375 9.34375 3.195312 C 9.34375 2.796875 9.023438 2.472656 8.625 2.472656 Z M 15.832031 17.851562 L 20.160156 17.851562 L 20.160156 16.410156 L 15.832031 16.410156 Z M 20.667969 16.621094 L 18.265625 14.21875 L 17.246094 15.238281 L 19.648438 17.640625 Z M 19.648438 16.621094 L 17.246094 19.023438 L 18.265625 20.042969 L 20.667969 17.640625 Z M 10.035156 0.28125 L 7.632812 2.683594 L 8.652344 3.703125 L 11.054688 1.300781 Z M 8.144531 3.914062 L 8.625 3.914062 L 8.625 2.472656 L 8.144531 2.472656 Z M 8.144531 3.914062 "/>
</g>
<g clip-path="url(#clip-1)">
<path fill-rule="nonzero" fill="rgb(0%, 0%, 0%)" fill-opacity="1" d="M 9.105469 2.472656 C 8.707031 2.472656 8.382812 2.796875 8.382812 3.195312 C 8.382812 3.59375 8.707031 3.914062 9.105469 3.914062 Z M 0.933594 16.890625 C 0.535156 16.890625 0.214844 17.214844 0.214844 17.613281 C 0.214844 18.011719 0.535156 18.332031 0.933594 18.332031 Z M 9.105469 3.914062 C 10.824219 3.914062 12.476562 4.597656 13.691406 5.816406 L 14.710938 4.796875 C 13.226562 3.308594 11.207031 2.472656 9.105469 2.472656 Z M 13.691406 5.816406 C 14.910156 7.03125 15.59375 8.683594 15.59375 10.402344 L 17.035156 10.402344 C 17.035156 8.300781 16.199219 6.28125 14.710938 4.796875 Z M 15.59375 10.402344 C 15.59375 12.125 14.910156 13.773438 13.691406 14.992188 L 14.710938 16.011719 C 16.199219 14.523438 17.035156 12.507812 17.035156 10.402344 Z M 13.691406 14.992188 C 12.476562 16.207031 10.824219 16.890625 9.105469 16.890625 L 9.105469 18.332031 C 11.207031 18.332031 13.226562 17.496094 14.710938 16.011719 Z M 9.105469 16.890625 L 0.933594 16.890625 L 0.933594 18.332031 L 9.105469 18.332031 Z M 9.105469 16.890625 "/>
</g>
<path fill-rule="nonzero" fill="rgb(0%, 0%, 0%)" fill-opacity="1" d="M 5.867188 4.78125 C 6.210938 4.582031 6.328125 4.140625 6.128906 3.796875 C 5.933594 3.449219 5.492188 3.332031 5.144531 3.53125 Z M 1.894531 10.402344 L 2.617188 10.402344 Z M 2.761719 15.160156 C 3 15.480469 3.453125 15.542969 3.769531 15.304688 C 4.089844 15.066406 4.152344 14.613281 3.914062 14.296875 Z M 5.144531 3.53125 C 3.9375 4.226562 2.9375 5.226562 2.238281 6.433594 L 3.488281 7.15625 C 4.058594 6.167969 4.878906 5.347656 5.867188 4.78125 Z M 2.238281 6.433594 C 1.542969 7.640625 1.175781 9.011719 1.175781 10.402344 L 2.617188 10.402344 C 2.617188 9.261719 2.917969 8.144531 3.488281 7.15625 Z M 1.175781 10.402344 C 1.175781 12.1875 1.765625 13.835938 2.761719 15.160156 L 3.914062 14.296875 C 3.097656 13.210938 2.617188 11.863281 2.617188 10.402344 Z M 1.175781 10.402344 "/>
<path fill-rule="nonzero" fill="rgb(0%, 0%, 0%)" fill-opacity="1" d="M 11.746094 10.296875 C 11.746094 10.695312 12.070312 11.015625 12.46875 11.015625 C 12.867188 11.015625 13.191406 10.695312 13.191406 10.296875 Z M 12.46875 6.558594 L 13.191406 6.558594 C 13.191406 6.347656 13.097656 6.148438 12.9375 6.007812 C 12.773438 5.871094 12.5625 5.8125 12.355469 5.847656 Z M 7.183594 7.414062 L 7.066406 6.703125 C 6.71875 6.757812 6.460938 7.058594 6.460938 7.414062 Z M 6.460938 11.152344 C 6.460938 11.550781 6.785156 11.871094 7.183594 11.871094 C 7.582031 11.871094 7.902344 11.550781 7.902344 11.152344 Z M 13.191406 10.296875 L 13.191406 6.558594 L 11.746094 6.558594 L 11.746094 10.296875 Z M 12.355469 5.847656 L 7.066406 6.703125 L 7.296875 8.125 L 12.582031 7.269531 Z M 6.460938 7.414062 L 6.460938 11.152344 L 7.902344 11.152344 L 7.902344 7.414062 Z M 6.460938 7.414062 "/>
<path fill-rule="nonzero" fill="rgb(0%, 0%, 0%)" fill-opacity="1" d="M 12.46875 10.296875 L 13.191406 10.296875 C 13.191406 9.898438 12.867188 9.574219 12.46875 9.574219 Z M 7.183594 11.152344 L 7.902344 11.152344 C 7.902344 10.753906 7.582031 10.429688 7.183594 10.429688 Z M 5.742188 11.152344 L 5.742188 11.871094 Z M 4.777344 12.003906 L 4.058594 12.003906 Z M 4.777344 12.433594 L 4.058594 12.433594 Z M 11.027344 13.152344 L 11.507812 13.152344 L 11.507812 11.710938 L 11.027344 11.710938 Z M 11.507812 13.152344 C 11.929688 13.152344 12.347656 13.003906 12.667969 12.722656 L 11.707031 11.644531 C 11.667969 11.679688 11.597656 11.710938 11.507812 11.710938 Z M 12.667969 12.722656 C 12.988281 12.433594 13.191406 12.023438 13.191406 11.578125 L 11.746094 11.578125 C 11.746094 11.582031 11.746094 11.589844 11.742188 11.601562 C 11.738281 11.609375 11.726562 11.625 11.707031 11.644531 Z M 13.191406 11.578125 L 13.191406 10.296875 L 11.746094 10.296875 L 11.746094 11.578125 Z M 12.46875 9.574219 L 11.027344 9.574219 L 11.027344 11.015625 L 12.46875 11.015625 Z M 11.027344 9.574219 C 10.605469 9.574219 10.1875 9.722656 9.867188 10.007812 L 10.828125 11.085938 C 10.867188 11.050781 10.9375 11.015625 11.027344 11.015625 Z M 9.867188 10.007812 C 9.546875 10.292969 9.34375 10.703125 9.34375 11.152344 L 10.785156 11.152344 C 10.785156 11.144531 10.789062 11.136719 10.792969 11.128906 C 10.796875 11.117188 10.808594 11.101562 10.828125 11.085938 Z M 9.34375 11.152344 L 9.34375 11.578125 L 10.785156 11.578125 L 10.785156 11.152344 Z M 9.34375 11.578125 C 9.34375 12.023438 9.546875 12.433594 9.867188 12.722656 L 10.828125 11.644531 C 10.808594 11.625 10.796875 11.609375 10.792969 11.601562 C 10.789062 11.589844 10.785156 11.582031 10.785156 11.578125 Z M 9.867188 12.722656 C 10.1875 13.003906 10.605469 13.152344 11.027344 13.152344 L 11.027344 11.710938 C 10.9375 11.710938 10.867188 11.679688 10.828125 11.644531 Z M 5.742188 14.007812 L 6.222656 14.007812 L 6.222656 12.566406 L 5.742188 12.566406 Z M 6.222656 14.007812 C 6.640625 14.007812 7.058594 13.859375 7.378906 13.574219 L 6.421875 12.496094 C 6.382812 12.535156 6.308594 12.566406 6.222656 12.566406 Z M 7.378906 13.574219 C 7.703125 13.289062 7.902344 12.878906 7.902344 12.433594 L 6.460938 12.433594 C 6.460938 12.4375 6.460938 12.445312 6.457031 12.453125 C 6.449219 12.464844 6.441406 12.480469 6.421875 12.496094 Z M 7.902344 12.433594 L 7.902344 11.152344 L 6.460938 11.152344 L 6.460938 12.433594 Z M 7.183594 10.429688 L 5.742188 10.429688 L 5.742188 11.871094 L 7.183594 11.871094 Z M 5.742188 10.429688 C 5.320312 10.429688 4.902344 10.578125 4.582031 10.863281 L 5.539062 11.941406 C 5.578125 11.902344 5.652344 11.871094 5.742188 11.871094 Z M 4.582031 10.863281 C 4.257812 11.148438 4.058594 11.558594 4.058594 12.003906 L 5.5 12.003906 C 5.5 12 5.5 11.992188 5.503906 11.984375 C 5.511719 11.972656 5.519531 11.957031 5.539062 11.941406 Z M 4.058594 12.003906 L 4.058594 12.433594 L 5.5 12.433594 L 5.5 12.003906 Z M 4.058594 12.433594 C 4.058594 12.878906 4.257812 13.289062 4.582031 13.574219 L 5.539062 12.496094 C 5.519531 12.480469 5.511719 12.464844 5.503906 12.453125 C 5.5 12.445312 5.5 12.4375 5.5 12.433594 Z M 4.582031 13.574219 C 4.902344 13.859375 5.320312 14.007812 5.742188 14.007812 L 5.742188 12.566406 C 5.652344 12.566406 5.578125 12.535156 5.539062 12.496094 Z M 4.582031 13.574219 "/>
</svg>
