<?xml version="1.0" encoding="UTF-8"?>
<svg xmlns="http://www.w3.org/2000/svg" xmlns:xlink="http://www.w3.org/1999/xlink" width="21.5" height="21.5" viewBox="0 0 21.5 21.5">
<defs>
<clipPath id="clip-0">
<path clip-rule="nonzero" d="M 0 0 L 21 0 L 21 21.011719 L 0 21.011719 Z M 0 0 "/>
</clipPath>
<clipPath id="clip-1">
<path clip-rule="nonzero" d="M 14 13 L 21.011719 13 L 21.011719 21 L 14 21 Z M 14 13 "/>
</clipPath>
</defs>
<g clip-path="url(#clip-0)">
<path fill-rule="nonzero" fill="rgb(0%, 0%, 0%)" fill-opacity="1" d="M 19.445312 9.148438 C 19.503906 9.550781 19.878906 9.824219 20.277344 9.765625 C 20.679688 9.703125 20.953125 9.332031 20.894531 8.929688 Z M 20.136719 14.707031 C 20.300781 14.335938 20.128906 13.90625 19.757812 13.742188 C 19.386719 13.582031 18.957031 13.75 18.792969 14.121094 Z M 20.894531 8.929688 C 20.132812 3.875 15.773438 0 10.503906 0 L 10.503906 1.464844 C 15.035156 1.464844 18.789062 4.800781 19.445312 9.148438 Z M 10.503906 0 C 4.703125 0 0 4.703125 0 10.503906 L 1.464844 10.503906 C 1.464844 5.511719 5.511719 1.464844 10.503906 1.464844 Z M 0 10.503906 C 0 16.308594 4.703125 21.011719 10.503906 21.011719 L 10.503906 19.546875 C 5.511719 19.546875 1.464844 15.5 1.464844 10.503906 Z M 10.503906 21.011719 C 14.8125 21.011719 18.515625 18.417969 20.136719 14.707031 L 18.792969 14.121094 C 17.398438 17.316406 14.210938 19.546875 10.503906 19.546875 Z M 10.503906 21.011719 "/>
</g>
<g clip-path="url(#clip-1)">
<path fill-rule="nonzero" fill="rgb(0%, 0%, 0%)" fill-opacity="1" d="M 15.390625 13.683594 C 14.988281 13.683594 14.660156 14.011719 14.660156 14.414062 C 14.660156 14.820312 14.988281 15.148438 15.390625 15.148438 Z M 19.691406 14.414062 L 19.691406 15.148438 Z M 20.277344 15 L 21.011719 15 Z M 19.546875 19.300781 C 19.546875 19.707031 19.875 20.035156 20.277344 20.035156 C 20.683594 20.035156 21.011719 19.707031 21.011719 19.300781 Z M 15.390625 15.148438 L 19.691406 15.148438 L 19.691406 13.683594 L 15.390625 13.683594 Z M 19.691406 15.148438 C 19.671875 15.148438 19.652344 15.144531 19.636719 15.136719 L 20.195312 13.78125 C 20.035156 13.714844 19.867188 13.683594 19.691406 13.683594 Z M 19.636719 15.136719 C 19.617188 15.128906 19.601562 15.117188 19.589844 15.105469 L 20.625 14.066406 C 20.503906 13.945312 20.355469 13.847656 20.195312 13.78125 Z M 19.589844 15.105469 C 19.574219 15.089844 19.5625 15.074219 19.554688 15.058594 L 20.910156 14.496094 C 20.84375 14.335938 20.746094 14.191406 20.625 14.066406 Z M 19.554688 15.058594 C 19.550781 15.039062 19.546875 15.019531 19.546875 15 L 21.011719 15 C 21.011719 14.828125 20.976562 14.65625 20.910156 14.496094 Z M 19.546875 15 L 19.546875 19.300781 L 21.011719 19.300781 L 21.011719 15 Z M 19.546875 15 "/>
</g>
<path fill-rule="nonzero" fill="rgb(0%, 0%, 0%)" fill-opacity="1" d="M 12.703125 10.996094 C 12.703125 11.398438 13.03125 11.726562 13.4375 11.726562 C 13.84375 11.726562 14.171875 11.398438 14.171875 10.996094 Z M 13.4375 5.621094 L 14.171875 5.621094 C 14.171875 5.402344 14.074219 5.195312 13.90625 5.054688 C 13.742188 4.917969 13.519531 4.859375 13.304688 4.898438 Z M 8.0625 6.597656 L 7.929688 5.875 C 7.582031 5.9375 7.328125 6.242188 7.328125 6.597656 Z M 7.328125 11.972656 C 7.328125 12.375 7.65625 12.703125 8.0625 12.703125 C 8.46875 12.703125 8.796875 12.375 8.796875 11.972656 Z M 14.171875 10.996094 L 14.171875 5.621094 L 12.703125 5.621094 L 12.703125 10.996094 Z M 13.304688 4.898438 L 7.929688 5.875 L 8.195312 7.316406 L 13.570312 6.339844 Z M 7.328125 6.597656 L 7.328125 11.972656 L 8.796875 11.972656 L 8.796875 6.597656 Z M 7.328125 6.597656 "/>
<path fill-rule="nonzero" fill="rgb(0%, 0%, 0%)" fill-opacity="1" d="M 13.4375 10.996094 L 14.171875 10.996094 C 14.171875 10.589844 13.84375 10.261719 13.4375 10.261719 Z M 8.0625 11.972656 L 8.796875 11.972656 C 8.796875 11.566406 8.46875 11.238281 8.0625 11.238281 Z M 6.597656 11.972656 L 6.597656 12.703125 Z M 5.621094 12.949219 L 4.886719 12.949219 Z M 5.621094 13.4375 L 4.886719 13.4375 Z M 11.972656 14.171875 L 12.460938 14.171875 L 12.460938 12.703125 L 11.972656 12.703125 Z M 12.460938 14.171875 C 12.914062 14.171875 13.347656 13.992188 13.667969 13.667969 L 12.632812 12.632812 C 12.585938 12.679688 12.523438 12.703125 12.460938 12.703125 Z M 13.667969 13.667969 C 13.992188 13.347656 14.171875 12.914062 14.171875 12.460938 L 12.703125 12.460938 C 12.703125 12.523438 12.679688 12.585938 12.632812 12.632812 Z M 14.171875 12.460938 L 14.171875 10.996094 L 12.703125 10.996094 L 12.703125 12.460938 Z M 13.4375 10.261719 L 11.972656 10.261719 L 11.972656 11.726562 L 13.4375 11.726562 Z M 11.972656 10.261719 C 11.519531 10.261719 11.082031 10.441406 10.761719 10.761719 L 11.800781 11.800781 C 11.84375 11.753906 11.90625 11.726562 11.972656 11.726562 Z M 10.761719 10.761719 C 10.441406 11.082031 10.261719 11.519531 10.261719 11.972656 L 11.726562 11.972656 C 11.726562 11.90625 11.753906 11.84375 11.800781 11.800781 Z M 10.261719 11.972656 L 10.261719 12.460938 L 11.726562 12.460938 L 11.726562 11.972656 Z M 10.261719 12.460938 C 10.261719 12.914062 10.441406 13.347656 10.761719 13.667969 L 11.800781 12.632812 C 11.753906 12.585938 11.726562 12.523438 11.726562 12.460938 Z M 10.761719 13.667969 C 11.082031 13.992188 11.519531 14.171875 11.972656 14.171875 L 11.972656 12.703125 C 11.90625 12.703125 11.84375 12.679688 11.800781 12.632812 Z M 6.597656 15.148438 L 7.085938 15.148438 L 7.085938 13.683594 L 6.597656 13.683594 Z M 7.085938 15.148438 C 7.539062 15.148438 7.972656 14.96875 8.292969 14.648438 L 7.257812 13.609375 C 7.210938 13.65625 7.148438 13.683594 7.085938 13.683594 Z M 8.292969 14.648438 C 8.617188 14.324219 8.796875 13.890625 8.796875 13.4375 L 7.328125 13.4375 C 7.328125 13.503906 7.304688 13.5625 7.257812 13.609375 Z M 8.796875 13.4375 L 8.796875 11.972656 L 7.328125 11.972656 L 7.328125 13.4375 Z M 8.0625 11.238281 L 6.597656 11.238281 L 6.597656 12.703125 L 8.0625 12.703125 Z M 6.597656 11.238281 C 6.144531 11.238281 5.707031 11.417969 5.386719 11.738281 L 6.425781 12.777344 C 6.46875 12.730469 6.53125 12.703125 6.597656 12.703125 Z M 5.386719 11.738281 C 5.066406 12.058594 4.886719 12.496094 4.886719 12.949219 L 6.351562 12.949219 C 6.351562 12.882812 6.378906 12.820312 6.425781 12.777344 Z M 4.886719 12.949219 L 4.886719 13.4375 L 6.351562 13.4375 L 6.351562 12.949219 Z M 4.886719 13.4375 C 4.886719 13.890625 5.066406 14.324219 5.386719 14.648438 L 6.425781 13.609375 C 6.378906 13.5625 6.351562 13.503906 6.351562 13.4375 Z M 5.386719 14.648438 C 5.707031 14.96875 6.144531 15.148438 6.597656 15.148438 L 6.597656 13.683594 C 6.53125 13.683594 6.46875 13.65625 6.425781 13.609375 Z M 5.386719 14.648438 "/>
</svg>
