<?xml version="1.0" encoding="UTF-8"?>
<svg xmlns="http://www.w3.org/2000/svg" xmlns:xlink="http://www.w3.org/1999/xlink" width="22.070374" height="18.849304" viewBox="0 0 22.070374 18.849304">
<defs>
<clipPath id="clip-0">
<path clip-rule="nonzero" d="M 0 0.308594 L 21 0.308594 L 21 18.394531 L 0 18.394531 Z M 0 0.308594 "/>
</clipPath>
</defs>
<g clip-path="url(#clip-0)">
<path fill-rule="nonzero" fill="rgb(0%, 0%, 0%)" fill-opacity="1" d="M 3.523438 11.980469 L 3.632812 12.691406 C 3.871094 12.65625 4.074219 12.503906 4.175781 12.289062 Z M 4.523438 9.867188 L 5.171875 10.175781 C 5.175781 10.171875 5.175781 10.164062 5.179688 10.160156 Z M 4.835938 9.664062 L 4.835938 8.945312 Z M 5.148438 9.867188 L 4.488281 10.160156 C 4.492188 10.164062 4.496094 10.171875 4.496094 10.175781 Z M 6.144531 11.980469 L 5.496094 12.289062 C 5.597656 12.503906 5.800781 12.65625 6.035156 12.691406 Z M 8.375 12.324219 L 8.265625 13.035156 Z M 8.566406 12.945312 L 8.050781 12.441406 Z M 6.953125 14.589844 L 6.441406 14.085938 C 6.28125 14.25 6.207031 14.480469 6.242188 14.707031 Z M 7.335938 16.914062 L 6.625 17.027344 Z M 6.828125 17.296875 L 7.175781 16.667969 Z M 4.835938 16.199219 L 5.179688 15.570312 C 4.964844 15.453125 4.703125 15.453125 4.488281 15.570312 Z M 2.839844 17.296875 L 2.492188 16.667969 Z M 2.335938 16.914062 L 3.042969 17.03125 L 3.046875 17.03125 Z M 2.714844 14.589844 L 3.425781 14.707031 C 3.460938 14.480469 3.390625 14.25 3.230469 14.085938 Z M 1.101562 12.945312 L 1.617188 12.441406 L 1.613281 12.441406 Z M 1.292969 12.320312 L 1.1875 11.609375 L 1.183594 11.609375 Z M 15.039062 11.980469 L 15.148438 12.691406 C 15.386719 12.65625 15.589844 12.503906 15.691406 12.289062 Z M 16.035156 9.867188 L 16.6875 10.175781 C 16.691406 10.171875 16.691406 10.164062 16.695312 10.160156 Z M 16.664062 9.867188 L 16.003906 10.160156 C 16.007812 10.164062 16.007812 10.171875 16.011719 10.175781 Z M 17.660156 11.980469 L 17.007812 12.289062 C 17.113281 12.503906 17.316406 12.65625 17.550781 12.691406 Z M 19.890625 12.324219 L 19.78125 13.035156 Z M 20.082031 12.945312 L 19.566406 12.441406 Z M 18.46875 14.589844 L 17.957031 14.085938 C 17.792969 14.25 17.722656 14.480469 17.757812 14.707031 Z M 18.847656 16.914062 L 18.140625 17.027344 Z M 18.34375 17.296875 L 18.691406 16.667969 Z M 16.347656 16.199219 L 16.695312 15.570312 C 16.480469 15.453125 16.21875 15.453125 16.003906 15.570312 Z M 14.355469 17.296875 L 14.007812 16.667969 Z M 13.851562 16.914062 L 14.558594 17.03125 Z M 14.230469 14.589844 L 14.941406 14.707031 C 14.976562 14.480469 14.902344 14.25 14.742188 14.085938 Z M 12.617188 12.945312 L 13.132812 12.441406 Z M 12.808594 12.320312 L 12.699219 11.609375 Z M 9.28125 3.34375 L 9.390625 4.058594 C 9.628906 4.019531 9.832031 3.867188 9.933594 3.652344 Z M 10.277344 1.230469 L 10.929688 1.539062 C 10.933594 1.535156 10.933594 1.527344 10.9375 1.523438 Z M 10.59375 1.027344 L 10.59375 1.746094 Z M 10.90625 1.230469 L 10.246094 1.523438 C 10.25 1.527344 10.25 1.535156 10.253906 1.539062 Z M 11.902344 3.34375 L 11.25 3.652344 C 11.355469 3.867188 11.558594 4.019531 11.792969 4.054688 Z M 14.132812 3.6875 L 14.023438 4.398438 Z M 14.324219 4.308594 L 13.808594 3.804688 Z M 12.710938 5.953125 L 12.199219 5.449219 C 12.039062 5.613281 11.964844 5.84375 12 6.070312 Z M 13.089844 8.277344 L 12.382812 8.394531 Z M 12.585938 8.660156 L 12.933594 8.03125 Z M 10.59375 7.566406 L 10.9375 6.933594 C 10.722656 6.816406 10.460938 6.816406 10.246094 6.933594 Z M 8.597656 8.660156 L 8.25 8.03125 Z M 8.09375 8.277344 L 8.800781 8.394531 Z M 8.472656 5.953125 L 9.183594 6.070312 C 9.21875 5.84375 9.148438 5.613281 8.984375 5.449219 Z M 6.859375 4.308594 L 7.375 3.804688 L 7.371094 3.804688 Z M 7.050781 3.6875 L 6.941406 2.972656 Z M 4.175781 12.289062 L 5.171875 10.175781 L 3.871094 9.558594 L 2.875 11.675781 Z M 5.179688 10.160156 C 5.148438 10.226562 5.101562 10.285156 5.039062 10.324219 L 4.257812 9.117188 C 4.085938 9.226562 3.949219 9.386719 3.863281 9.574219 Z M 5.039062 10.324219 C 4.980469 10.363281 4.90625 10.382812 4.835938 10.382812 L 4.835938 8.945312 C 4.628906 8.945312 4.429688 9.003906 4.257812 9.117188 Z M 4.835938 10.382812 C 4.761719 10.382812 4.691406 10.363281 4.628906 10.324219 L 5.414062 9.117188 C 5.242188 9.003906 5.039062 8.945312 4.835938 8.945312 Z M 4.628906 10.324219 C 4.566406 10.285156 4.519531 10.226562 4.488281 10.160156 L 5.804688 9.574219 C 5.722656 9.386719 5.585938 9.226562 5.414062 9.117188 Z M 4.496094 10.175781 L 5.496094 12.289062 L 6.796875 11.675781 L 5.796875 9.558594 Z M 6.035156 12.691406 L 8.265625 13.035156 L 8.484375 11.613281 L 6.253906 11.269531 Z M 8.265625 13.035156 C 8.097656 13.007812 8 12.886719 7.96875 12.785156 C 7.9375 12.683594 7.953125 12.542969 8.050781 12.441406 L 9.078125 13.449219 C 9.664062 12.855469 9.398438 11.75 8.480469 11.613281 Z M 8.050781 12.441406 L 6.441406 14.085938 L 7.46875 15.09375 L 9.078125 13.449219 Z M 6.242188 14.707031 L 6.625 17.027344 L 8.042969 16.796875 L 7.664062 14.472656 Z M 6.625 17.027344 C 6.601562 16.902344 6.660156 16.773438 6.761719 16.699219 C 6.863281 16.617188 7.03125 16.585938 7.175781 16.667969 L 6.480469 17.929688 C 7.332031 18.394531 8.175781 17.609375 8.042969 16.796875 Z M 7.175781 16.667969 L 5.179688 15.570312 L 4.488281 16.832031 L 6.480469 17.929688 Z M 4.488281 15.570312 L 2.492188 16.667969 L 3.1875 17.929688 L 5.179688 16.832031 Z M 2.492188 16.667969 C 2.636719 16.585938 2.804688 16.617188 2.910156 16.695312 C 3.011719 16.773438 3.066406 16.902344 3.042969 17.03125 L 1.625 16.796875 C 1.492188 17.609375 2.339844 18.394531 3.1875 17.929688 Z M 3.046875 17.03125 L 3.425781 14.707031 L 2.003906 14.472656 L 1.625 16.796875 Z M 3.230469 14.085938 L 1.617188 12.441406 L 0.589844 13.449219 L 2.199219 15.09375 Z M 1.613281 12.441406 C 1.714844 12.542969 1.730469 12.683594 1.699219 12.785156 C 1.667969 12.886719 1.570312 13.007812 1.40625 13.035156 L 1.183594 11.609375 C 0.277344 11.75 0 12.851562 0.589844 13.453125 Z M 1.402344 13.035156 L 3.632812 12.691406 L 3.414062 11.269531 L 1.1875 11.609375 Z M 15.691406 12.289062 L 16.6875 10.175781 L 15.386719 9.558594 L 14.386719 11.675781 Z M 16.695312 10.160156 C 16.664062 10.226562 16.617188 10.285156 16.554688 10.324219 L 15.769531 9.117188 C 15.597656 9.226562 15.464844 9.386719 15.378906 9.574219 Z M 16.554688 10.324219 C 16.492188 10.363281 16.421875 10.382812 16.347656 10.382812 L 16.347656 8.945312 C 16.144531 8.945312 15.945312 9.003906 15.769531 9.117188 Z M 16.347656 10.382812 C 16.277344 10.382812 16.207031 10.363281 16.144531 10.324219 L 16.925781 9.117188 C 16.753906 9.003906 16.554688 8.945312 16.347656 8.945312 Z M 16.144531 10.324219 C 16.082031 10.285156 16.035156 10.226562 16.003906 10.160156 L 17.320312 9.574219 C 17.234375 9.386719 17.101562 9.226562 16.925781 9.117188 Z M 16.011719 10.175781 L 17.007812 12.289062 L 18.3125 11.675781 L 17.3125 9.558594 Z M 17.550781 12.691406 L 19.78125 13.035156 L 20 11.613281 L 17.769531 11.269531 Z M 19.78125 13.035156 C 19.613281 13.007812 19.515625 12.886719 19.480469 12.785156 C 19.453125 12.683594 19.464844 12.542969 19.566406 12.441406 L 20.59375 13.449219 C 21.179688 12.855469 20.914062 11.75 19.996094 11.613281 Z M 19.566406 12.441406 L 17.957031 14.085938 L 18.984375 15.09375 L 20.59375 13.449219 Z M 17.757812 14.707031 L 18.140625 17.027344 L 19.558594 16.796875 L 19.179688 14.472656 Z M 18.140625 17.027344 C 18.117188 16.902344 18.171875 16.773438 18.273438 16.699219 C 18.378906 16.617188 18.546875 16.585938 18.691406 16.667969 L 17.996094 17.929688 C 18.847656 18.394531 19.691406 17.609375 19.558594 16.796875 Z M 18.691406 16.667969 L 16.695312 15.570312 L 16.003906 16.832031 L 17.996094 17.929688 Z M 16.003906 15.570312 L 14.007812 16.667969 L 14.703125 17.929688 L 16.695312 16.832031 Z M 14.007812 16.667969 C 14.152344 16.585938 14.320312 16.617188 14.421875 16.695312 C 14.523438 16.773438 14.582031 16.902344 14.558594 17.03125 L 13.140625 16.796875 C 13.003906 17.609375 13.855469 18.394531 14.703125 17.929688 Z M 14.558594 17.03125 L 14.941406 14.707031 L 13.519531 14.472656 L 13.140625 16.796875 Z M 14.742188 14.085938 L 13.132812 12.441406 L 12.105469 13.449219 L 13.714844 15.09375 Z M 13.132812 12.441406 C 13.230469 12.542969 13.246094 12.683594 13.214844 12.78125 C 13.183594 12.882812 13.085938 13.007812 12.917969 13.035156 L 12.699219 11.609375 C 11.789062 11.75 11.519531 12.855469 12.105469 13.449219 Z M 12.917969 13.035156 L 15.148438 12.691406 L 14.929688 11.269531 L 12.699219 11.609375 Z M 9.933594 3.652344 L 10.929688 1.539062 L 9.628906 0.925781 L 8.632812 3.039062 Z M 10.9375 1.523438 C 10.90625 1.589844 10.859375 1.648438 10.796875 1.6875 L 10.015625 0.480469 C 9.839844 0.589844 9.707031 0.75 9.621094 0.9375 Z M 10.796875 1.6875 C 10.734375 1.726562 10.664062 1.746094 10.59375 1.746094 L 10.59375 0.308594 C 10.386719 0.308594 10.1875 0.367188 10.015625 0.480469 Z M 10.59375 1.746094 C 10.519531 1.746094 10.449219 1.726562 10.386719 1.6875 L 11.171875 0.480469 C 10.996094 0.367188 10.796875 0.308594 10.59375 0.308594 Z M 10.386719 1.6875 C 10.324219 1.648438 10.277344 1.589844 10.246094 1.523438 L 11.5625 0.9375 C 11.476562 0.75 11.34375 0.589844 11.171875 0.480469 Z M 10.253906 1.539062 L 11.25 3.652344 L 12.554688 3.039062 L 11.554688 0.925781 Z M 11.792969 4.054688 L 14.023438 4.398438 L 14.242188 2.976562 L 12.011719 2.632812 Z M 14.023438 4.398438 C 13.855469 4.375 13.757812 4.25 13.726562 4.148438 C 13.695312 4.046875 13.710938 3.910156 13.808594 3.804688 L 14.835938 4.8125 C 15.421875 4.21875 15.15625 3.113281 14.238281 2.976562 Z M 13.808594 3.804688 L 12.199219 5.449219 L 13.226562 6.457031 L 14.835938 4.8125 Z M 12 6.070312 L 12.382812 8.394531 L 13.800781 8.160156 L 13.421875 5.835938 Z M 12.382812 8.394531 C 12.359375 8.265625 12.414062 8.136719 12.515625 8.0625 C 12.621094 7.980469 12.789062 7.953125 12.933594 8.03125 L 12.238281 9.292969 C 13.089844 9.761719 13.933594 8.972656 13.800781 8.160156 Z M 12.933594 8.03125 L 10.9375 6.933594 L 10.246094 8.195312 L 12.238281 9.292969 Z M 10.246094 6.933594 L 8.25 8.03125 L 8.945312 9.292969 L 10.9375 8.195312 Z M 8.25 8.03125 C 8.394531 7.953125 8.5625 7.980469 8.667969 8.0625 C 8.765625 8.136719 8.824219 8.265625 8.800781 8.394531 L 7.382812 8.160156 C 7.25 8.976562 8.097656 9.757812 8.945312 9.292969 Z M 8.800781 8.394531 L 9.183594 6.070312 L 7.761719 5.835938 L 7.382812 8.160156 Z M 8.984375 5.449219 L 7.375 3.804688 L 6.347656 4.8125 L 7.957031 6.457031 Z M 7.371094 3.804688 C 7.472656 3.90625 7.488281 4.046875 7.457031 4.148438 C 7.425781 4.25 7.328125 4.371094 7.160156 4.398438 L 6.941406 2.972656 C 6.035156 3.113281 5.757812 4.214844 6.347656 4.816406 Z M 7.160156 4.398438 L 9.390625 4.058594 L 9.171875 2.632812 L 6.941406 2.972656 Z M 7.160156 4.398438 "/>
</g>
</svg>
