<?xml version="1.0" encoding="UTF-8"?>
<svg xmlns="http://www.w3.org/2000/svg" xmlns:xlink="http://www.w3.org/1999/xlink" width="164" height="80" viewBox="0 0 164 80">
<defs>
<clipPath id="clip-0">
<path clip-rule="nonzero" d="M 5 0 L 159 0 C 161.761719 0 164 2.238281 164 5 L 164 75 C 164 77.761719 161.761719 80 159 80 L 5 80 C 2.238281 80 0 77.761719 0 75 L 0 5 C 0 2.238281 2.238281 0 5 0 Z M 5 0 "/>
</clipPath>
</defs>
<path fill-rule="nonzero" fill="rgb(92.156982%, 27.842712%, 81.568909%)" fill-opacity="1" d="M 22 20 C 23.105469 20 24 20.894531 24 22 L 24 58 C 24 59.105469 23.105469 60 22 60 C 20.894531 60 20 59.105469 20 58 L 20 22 C 20 20.894531 20.894531 20 22 20 Z M 22 20 "/>
<path fill-rule="nonzero" fill="rgb(60.00061%, 92.156982%, 27.842712%)" fill-opacity="1" d="M 46 20 C 47.105469 20 48 20.894531 48 22 L 48 58 C 48 59.105469 47.105469 60 46 60 C 44.894531 60 44 59.105469 44 58 L 44 22 C 44 20.894531 44.894531 20 46 20 Z M 46 20 "/>
<path fill-rule="nonzero" fill="rgb(63.922119%, 27.842712%, 92.156982%)" fill-opacity="1" d="M 70 20 C 71.105469 20 72 20.894531 72 22 L 72 58 C 72 59.105469 71.105469 60 70 60 C 68.894531 60 68 59.105469 68 58 L 68 22 C 68 20.894531 68.894531 20 70 20 Z M 70 20 "/>
<path fill-rule="nonzero" fill="rgb(60.00061%, 60.00061%, 60.00061%)" fill-opacity="1" d="M 94 20 C 95.105469 20 96 20.894531 96 22 L 96 58 C 96 59.105469 95.105469 60 94 60 C 92.894531 60 92 59.105469 92 58 L 92 22 C 92 20.894531 92.894531 20 94 20 Z M 94 20 "/>
<path fill-rule="nonzero" fill="rgb(92.156982%, 81.568909%, 27.842712%)" fill-opacity="1" d="M 118 20 C 119.105469 20 120 20.894531 120 22 L 120 58 C 120 59.105469 119.105469 60 118 60 C 116.894531 60 116 59.105469 116 58 L 116 22 C 116 20.894531 116.894531 20 118 20 Z M 118 20 "/>
<path fill-rule="nonzero" fill="rgb(0%, 39.99939%, 100%)" fill-opacity="1" d="M 142 20 C 143.105469 20 144 20.894531 144 22 L 144 58 C 144 59.105469 143.105469 60 142 60 C 140.894531 60 140 59.105469 140 58 L 140 22 C 140 20.894531 140.894531 20 142 20 Z M 142 20 "/>
<g clip-path="url(#clip-0)">
<path fill-rule="nonzero" fill="rgb(59.216309%, 27.842712%, 100%)" fill-opacity="1" d="M 5 79.5 C 2.515625 79.5 0.5 77.484375 0.5 75 L -0.5 75 C -0.5 78.039062 1.960938 80.5 5 80.5 Z M 0.5 75 L 0.5 70.332031 L -0.5 70.332031 L -0.5 75 Z M 0.5 65.667969 L 0.5 56.332031 L -0.5 56.332031 L -0.5 65.667969 Z M 0.5 51.667969 L 0.5 42.332031 L -0.5 42.332031 L -0.5 51.667969 Z M 0.5 37.667969 L 0.5 28.332031 L -0.5 28.332031 L -0.5 37.667969 Z M 0.5 23.667969 L 0.5 14.332031 L -0.5 14.332031 L -0.5 23.667969 Z M 0.5 9.667969 L 0.5 5 L -0.5 5 L -0.5 9.667969 Z M 0.5 5 C 0.5 2.515625 2.515625 0.5 5 0.5 L 5 -0.5 C 1.960938 -0.5 -0.5 1.960938 -0.5 5 Z M 5 0.5 L 10.132812 0.5 L 10.132812 -0.5 L 5 -0.5 Z M 15.265625 0.5 L 25.535156 0.5 L 25.535156 -0.5 L 15.265625 -0.5 Z M 30.667969 0.5 L 40.933594 0.5 L 40.933594 -0.5 L 30.667969 -0.5 Z M 46.066406 0.5 L 56.332031 0.5 L 56.332031 -0.5 L 46.066406 -0.5 Z M 61.464844 0.5 L 71.734375 0.5 L 71.734375 -0.5 L 61.464844 -0.5 Z M 76.867188 0.5 L 87.132812 0.5 L 87.132812 -0.5 L 76.867188 -0.5 Z M 92.265625 0.5 L 102.535156 0.5 L 102.535156 -0.5 L 92.265625 -0.5 Z M 107.667969 0.5 L 117.933594 0.5 L 117.933594 -0.5 L 107.667969 -0.5 Z M 123.066406 0.5 L 133.332031 0.5 L 133.332031 -0.5 L 123.066406 -0.5 Z M 138.464844 0.5 L 148.734375 0.5 L 148.734375 -0.5 L 138.464844 -0.5 Z M 153.867188 0.5 L 159 0.5 L 159 -0.5 L 153.867188 -0.5 Z M 159 0.5 C 161.484375 0.5 163.5 2.515625 163.5 5 L 164.5 5 C 164.5 1.960938 162.039062 -0.5 159 -0.5 Z M 163.5 5 L 163.5 9.667969 L 164.5 9.667969 L 164.5 5 Z M 163.5 14.332031 L 163.5 23.667969 L 164.5 23.667969 L 164.5 14.332031 Z M 163.5 28.332031 L 163.5 37.667969 L 164.5 37.667969 L 164.5 28.332031 Z M 163.5 42.332031 L 163.5 51.667969 L 164.5 51.667969 L 164.5 42.332031 Z M 163.5 56.332031 L 163.5 65.667969 L 164.5 65.667969 L 164.5 56.332031 Z M 163.5 70.332031 L 163.5 75 L 164.5 75 L 164.5 70.332031 Z M 163.5 75 C 163.5 77.484375 161.484375 79.5 159 79.5 L 159 80.5 C 162.039062 80.5 164.5 78.039062 164.5 75 Z M 159 79.5 L 153.867188 79.5 L 153.867188 80.5 L 159 80.5 Z M 148.734375 79.5 L 138.464844 79.5 L 138.464844 80.5 L 148.734375 80.5 Z M 133.332031 79.5 L 123.066406 79.5 L 123.066406 80.5 L 133.332031 80.5 Z M 117.933594 79.5 L 107.667969 79.5 L 107.667969 80.5 L 117.933594 80.5 Z M 102.535156 79.5 L 92.265625 79.5 L 92.265625 80.5 L 102.535156 80.5 Z M 87.132812 79.5 L 76.867188 79.5 L 76.867188 80.5 L 87.132812 80.5 Z M 71.734375 79.5 L 61.464844 79.5 L 61.464844 80.5 L 71.734375 80.5 Z M 56.332031 79.5 L 46.066406 79.5 L 46.066406 80.5 L 56.332031 80.5 Z M 40.933594 79.5 L 30.667969 79.5 L 30.667969 80.5 L 40.933594 80.5 Z M 25.535156 79.5 L 15.265625 79.5 L 15.265625 80.5 L 25.535156 80.5 Z M 10.132812 79.5 L 5 79.5 L 5 80.5 L 10.132812 80.5 Z M 5 79 C 2.789062 79 1 77.210938 1 75 L -1 75 C -1 78.3125 1.6875 81 5 81 Z M 1 75 L 1 70.332031 L -1 70.332031 L -1 75 Z M 1 65.667969 L 1 56.332031 L -1 56.332031 L -1 65.667969 Z M 1 51.667969 L 1 42.332031 L -1 42.332031 L -1 51.667969 Z M 1 37.667969 L 1 28.332031 L -1 28.332031 L -1 37.667969 Z M 1 23.667969 L 1 14.332031 L -1 14.332031 L -1 23.667969 Z M 1 9.667969 L 1 5 L -1 5 L -1 9.667969 Z M 1 5 C 1 2.789062 2.789062 1 5 1 L 5 -1 C 1.6875 -1 -1 1.6875 -1 5 Z M 5 1 L 10.132812 1 L 10.132812 -1 L 5 -1 Z M 15.265625 1 L 25.535156 1 L 25.535156 -1 L 15.265625 -1 Z M 30.667969 1 L 40.933594 1 L 40.933594 -1 L 30.667969 -1 Z M 46.066406 1 L 56.332031 1 L 56.332031 -1 L 46.066406 -1 Z M 61.464844 1 L 71.734375 1 L 71.734375 -1 L 61.464844 -1 Z M 76.867188 1 L 87.132812 1 L 87.132812 -1 L 76.867188 -1 Z M 92.265625 1 L 102.535156 1 L 102.535156 -1 L 92.265625 -1 Z M 107.667969 1 L 117.933594 1 L 117.933594 -1 L 107.667969 -1 Z M 123.066406 1 L 133.332031 1 L 133.332031 -1 L 123.066406 -1 Z M 138.464844 1 L 148.734375 1 L 148.734375 -1 L 138.464844 -1 Z M 153.867188 1 L 159 1 L 159 -1 L 153.867188 -1 Z M 159 1 C 161.210938 1 163 2.789062 163 5 L 165 5 C 165 1.6875 162.3125 -1 159 -1 Z M 163 5 L 163 9.667969 L 165 9.667969 L 165 5 Z M 163 14.332031 L 163 23.667969 L 165 23.667969 L 165 14.332031 Z M 163 28.332031 L 163 37.667969 L 165 37.667969 L 165 28.332031 Z M 163 42.332031 L 163 51.667969 L 165 51.667969 L 165 42.332031 Z M 163 56.332031 L 163 65.667969 L 165 65.667969 L 165 56.332031 Z M 163 70.332031 L 163 75 L 165 75 L 165 70.332031 Z M 163 75 C 163 77.210938 161.210938 79 159 79 L 159 81 C 162.3125 81 165 78.3125 165 75 Z M 159 79 L 153.867188 79 L 153.867188 81 L 159 81 Z M 148.734375 79 L 138.464844 79 L 138.464844 81 L 148.734375 81 Z M 133.332031 79 L 123.066406 79 L 123.066406 81 L 133.332031 81 Z M 117.933594 79 L 107.667969 79 L 107.667969 81 L 117.933594 81 Z M 102.535156 79 L 92.265625 79 L 92.265625 81 L 102.535156 81 Z M 87.132812 79 L 76.867188 79 L 76.867188 81 L 87.132812 81 Z M 71.734375 79 L 61.464844 79 L 61.464844 81 L 71.734375 81 Z M 56.332031 79 L 46.066406 79 L 46.066406 81 L 56.332031 81 Z M 40.933594 79 L 30.667969 79 L 30.667969 81 L 40.933594 81 Z M 25.535156 79 L 15.265625 79 L 15.265625 81 L 25.535156 81 Z M 10.132812 79 L 5 79 L 5 81 L 10.132812 81 Z M 10.132812 79 "/>
</g>
</svg>
