<?xml version="1.0" encoding="UTF-8"?>
<svg xmlns="http://www.w3.org/2000/svg" xmlns:xlink="http://www.w3.org/1999/xlink" width="19.576172" height="11.547852" viewBox="0 0 19.576172 11.547852">
<defs>
<clipPath id="clip-0">
<path clip-rule="nonzero" d="M 0.164062 0 L 19 0 L 19 11.113281 L 0.164062 11.113281 Z M 0.164062 0 "/>
</clipPath>
</defs>
<g clip-path="url(#clip-0)">
<path fill-rule="nonzero" fill="rgb(0%, 0%, 0%)" fill-opacity="1" d="M 16.511719 10.390625 L 16.511719 11.113281 C 16.863281 11.113281 17.160156 10.863281 17.222656 10.519531 Z M 18.246094 0.769531 L 18.957031 0.894531 C 19.003906 0.628906 18.898438 0.359375 18.683594 0.195312 C 18.46875 0.03125 18.179688 0 17.933594 0.117188 Z M 12.183594 3.65625 L 11.644531 4.136719 C 11.859375 4.375 12.203125 4.445312 12.492188 4.304688 Z M 9.585938 0.769531 L 10.121094 0.285156 C 9.984375 0.132812 9.789062 0.046875 9.585938 0.046875 C 9.378906 0.046875 9.183594 0.132812 9.046875 0.285156 Z M 6.984375 3.65625 L 6.675781 4.304688 C 6.964844 4.445312 7.308594 4.375 7.523438 4.136719 Z M 0.921875 0.769531 L 1.234375 0.117188 C 0.988281 0 0.699219 0.03125 0.484375 0.195312 C 0.269531 0.359375 0.164062 0.628906 0.214844 0.894531 Z M 2.65625 10.390625 L 1.945312 10.519531 C 2.007812 10.863281 2.304688 11.113281 2.65625 11.113281 Z M 17.222656 10.519531 L 18.957031 0.894531 L 17.535156 0.640625 L 15.800781 10.261719 Z M 17.933594 0.117188 L 11.871094 3.003906 L 12.492188 4.304688 L 18.554688 1.417969 Z M 12.71875 3.171875 L 10.121094 0.285156 L 9.046875 1.25 L 11.644531 4.136719 Z M 9.046875 0.285156 L 6.449219 3.171875 L 7.523438 4.136719 L 10.121094 1.25 Z M 7.296875 3.003906 L 1.234375 0.117188 L 0.613281 1.417969 L 6.675781 4.304688 Z M 0.214844 0.894531 L 1.945312 10.519531 L 3.367188 10.261719 L 1.632812 0.640625 Z M 2.65625 11.113281 L 16.511719 11.113281 L 16.511719 9.667969 L 2.65625 9.667969 Z M 2.65625 11.113281 "/>
</g>
</svg>
