<?xml version="1.0" encoding="UTF-8"?>
<svg xmlns="http://www.w3.org/2000/svg" xmlns:xlink="http://www.w3.org/1999/xlink" width="17.786682" height="18.584106" viewBox="0 0 17.786682 18.584106">
<defs>
<clipPath id="clip-0">
<path clip-rule="nonzero" d="M 0.0898438 0 L 17 0 L 17 18 L 0.0898438 18 Z M 0.0898438 0 "/>
</clipPath>
</defs>
<g clip-path="url(#clip-0)">
<path fill-rule="nonzero" fill="rgb(0%, 0%, 0%)" fill-opacity="1" d="M 15.386719 6.019531 L 15.113281 6.699219 Z M 15.253906 8.546875 L 15.050781 7.839844 Z M 9.085938 10.320312 L 8.882812 9.613281 L 8.570312 9.703125 L 8.425781 9.996094 Z M 6.269531 16.085938 L 5.609375 15.761719 L 5.609375 15.765625 Z M 3.757812 15.777344 L 3.039062 15.933594 Z M 0.886719 2.386719 L 1.605469 2.234375 Z M 2.699219 0.867188 L 2.976562 0.1875 L 2.976562 0.183594 Z M 15.113281 6.699219 C 15.644531 6.914062 15.605469 7.683594 15.050781 7.839844 L 15.457031 9.25 C 17.347656 8.707031 17.488281 6.082031 15.664062 5.339844 Z M 15.050781 7.839844 L 8.882812 9.613281 L 9.289062 11.023438 L 15.457031 9.25 Z M 8.425781 9.996094 L 5.609375 15.761719 L 6.929688 16.40625 L 9.746094 10.640625 Z M 5.609375 15.765625 C 5.359375 16.277344 4.597656 16.1875 4.476562 15.625 L 3.039062 15.933594 C 3.453125 17.855469 6.066406 18.175781 6.929688 16.40625 Z M 4.476562 15.625 L 1.605469 2.234375 L 0.167969 2.542969 L 3.039062 15.933594 Z M 1.605469 2.234375 C 1.582031 2.125 1.585938 2.015625 1.621094 1.910156 L 0.234375 1.433594 C 0.113281 1.792969 0.0898438 2.175781 0.167969 2.542969 Z M 1.621094 1.910156 C 1.660156 1.804688 1.722656 1.714844 1.804688 1.640625 L 0.863281 0.519531 C 0.574219 0.761719 0.355469 1.078125 0.234375 1.433594 Z M 1.804688 1.640625 C 1.890625 1.570312 1.992188 1.523438 2.101562 1.507812 L 1.871094 0.0585938 C 1.5 0.117188 1.152344 0.277344 0.863281 0.519531 Z M 2.101562 1.507812 C 2.210938 1.492188 2.320312 1.503906 2.421875 1.546875 L 2.976562 0.183594 C 2.625 0.0429688 2.246094 0 1.871094 0.0585938 Z M 2.421875 1.542969 L 15.113281 6.699219 L 15.664062 5.339844 L 2.976562 0.1875 Z M 2.421875 1.542969 "/>
</g>
</svg>
