<?xml version="1.0" encoding="UTF-8"?>
<svg xmlns="http://www.w3.org/2000/svg" xmlns:xlink="http://www.w3.org/1999/xlink" width="18.592468" height="18.539978" viewBox="0 0 18.592468 18.539978">
<defs>
<clipPath id="clip-0">
<path clip-rule="nonzero" d="M 0.0273438 0 L 18.167969 0 L 18.167969 18.089844 L 0.0273438 18.089844 Z M 0.0273438 0 "/>
</clipPath>
</defs>
<g clip-path="url(#clip-0)">
<path fill-rule="nonzero" fill="rgb(0%, 0%, 0%)" fill-opacity="1" d="M 15.484375 4.636719 L 15.484375 5.367188 Z M 15.484375 0.730469 L 15.484375 0 Z M 0.617188 12.234375 C 0.234375 12.363281 0.0273438 12.777344 0.152344 13.160156 C 0.28125 13.542969 0.695312 13.75 1.078125 13.625 Z M 8.65625 17.320312 L 8 17.648438 C 8.140625 17.929688 8.449219 18.089844 8.761719 18.042969 C 9.078125 17.996094 9.324219 17.753906 9.375 17.441406 Z M 12.699219 7.9375 C 12.90625 7.59375 12.792969 7.144531 12.445312 6.933594 C 12.101562 6.726562 11.648438 6.839844 11.441406 7.1875 Z M 15.484375 3.902344 C 15.160156 3.902344 14.851562 3.773438 14.621094 3.546875 L 13.585938 4.582031 C 14.089844 5.085938 14.773438 5.367188 15.484375 5.367188 Z M 14.621094 3.546875 C 14.394531 3.316406 14.265625 3.007812 14.265625 2.683594 L 12.800781 2.683594 C 12.800781 3.394531 13.085938 4.078125 13.585938 4.582031 Z M 14.265625 2.683594 C 14.265625 2.359375 14.394531 2.050781 14.621094 1.820312 L 13.585938 0.785156 C 13.085938 1.289062 12.800781 1.972656 12.800781 2.683594 Z M 14.621094 1.820312 C 14.851562 1.59375 15.160156 1.464844 15.484375 1.464844 L 15.484375 0 C 14.773438 0 14.089844 0.28125 13.585938 0.785156 Z M 15.484375 1.464844 C 15.808594 1.464844 16.117188 1.59375 16.347656 1.820312 L 17.382812 0.785156 C 16.878906 0.28125 16.195312 0 15.484375 0 Z M 16.347656 1.820312 C 16.578125 2.050781 16.703125 2.359375 16.703125 2.683594 L 18.167969 2.683594 C 18.167969 1.972656 17.886719 1.289062 17.382812 0.785156 Z M 16.703125 2.683594 C 16.703125 3.007812 16.578125 3.316406 16.347656 3.546875 L 17.382812 4.582031 C 17.886719 4.078125 18.167969 3.394531 18.167969 2.683594 Z M 16.347656 3.546875 C 16.117188 3.773438 15.808594 3.902344 15.484375 3.902344 L 15.484375 5.367188 C 16.195312 5.367188 16.878906 5.085938 17.382812 4.582031 Z M 1.078125 13.625 C 2.457031 13.164062 3.582031 13.09375 4.621094 13.589844 C 5.683594 14.097656 6.808594 15.265625 8 17.648438 L 9.308594 16.992188 C 8.058594 14.496094 6.746094 12.980469 5.25 12.269531 C 3.726562 11.542969 2.167969 11.71875 0.617188 12.234375 Z M 9.375 17.441406 C 9.851562 14.582031 11.289062 10.28125 12.699219 7.9375 L 11.441406 7.1875 C 9.921875 9.722656 8.433594 14.203125 7.933594 17.199219 Z M 9.375 17.441406 "/>
</g>
</svg>
