<?xml version="1.0" encoding="UTF-8"?>
<svg xmlns="http://www.w3.org/2000/svg" xmlns:xlink="http://www.w3.org/1999/xlink" width="20.5" height="17.810059" viewBox="0 0 20.5 17.810059">
<defs>
<clipPath id="clip-0">
<path clip-rule="nonzero" d="M 17 3 L 20.011719 3 L 20.011719 13 L 17 13 Z M 17 3 "/>
</clipPath>
<clipPath id="clip-1">
<path clip-rule="nonzero" d="M 0 0.121094 L 15 0.121094 L 15 17.503906 L 0 17.503906 Z M 0 0.121094 "/>
</clipPath>
</defs>
<g clip-path="url(#clip-0)">
<path fill-rule="nonzero" fill="rgb(0%, 0%, 0%)" fill-opacity="1" d="M 18.332031 3.902344 C 18.046875 3.617188 17.582031 3.617188 17.296875 3.902344 C 17.011719 4.1875 17.011719 4.652344 17.296875 4.9375 Z M 17.296875 11.710938 C 17.011719 11.996094 17.011719 12.460938 17.296875 12.746094 C 17.582031 13.03125 18.046875 13.03125 18.332031 12.746094 Z M 17.816406 4.417969 C 17.296875 4.9375 17.296875 4.9375 17.296875 4.9375 C 17.296875 4.933594 17.296875 4.933594 17.296875 4.933594 C 17.296875 4.933594 17.292969 4.933594 17.296875 4.933594 C 17.296875 4.933594 17.296875 4.9375 17.300781 4.941406 C 17.304688 4.945312 17.316406 4.957031 17.332031 4.976562 C 17.363281 5.007812 17.410156 5.0625 17.46875 5.136719 C 17.585938 5.285156 17.742188 5.511719 17.90625 5.808594 C 18.226562 6.398438 18.546875 7.253906 18.546875 8.324219 L 20.011719 8.324219 C 20.011719 6.953125 19.601562 5.859375 19.191406 5.105469 C 18.984375 4.730469 18.777344 4.4375 18.621094 4.234375 C 18.542969 4.132812 18.472656 4.054688 18.425781 4 C 18.398438 3.972656 18.378906 3.949219 18.363281 3.933594 C 18.355469 3.925781 18.347656 3.917969 18.34375 3.914062 C 18.339844 3.910156 18.339844 3.90625 18.335938 3.90625 C 18.335938 3.90625 18.335938 3.90625 18.335938 3.902344 C 18.332031 3.902344 18.332031 3.902344 18.332031 3.902344 C 18.332031 3.902344 18.332031 3.902344 17.816406 4.417969 Z M 18.546875 8.324219 C 18.546875 9.394531 18.226562 10.25 17.90625 10.839844 C 17.742188 11.136719 17.585938 11.363281 17.46875 11.511719 C 17.410156 11.585938 17.363281 11.640625 17.332031 11.671875 C 17.316406 11.691406 17.304688 11.703125 17.300781 11.707031 C 17.296875 11.710938 17.296875 11.714844 17.296875 11.714844 C 17.292969 11.714844 17.296875 11.714844 17.296875 11.714844 C 17.296875 11.714844 17.296875 11.714844 17.296875 11.710938 C 17.296875 11.710938 17.296875 11.710938 17.816406 12.230469 C 18.332031 12.746094 18.332031 12.746094 18.332031 12.746094 C 18.332031 12.746094 18.332031 12.746094 18.335938 12.746094 C 18.335938 12.742188 18.335938 12.742188 18.335938 12.742188 C 18.339844 12.742188 18.339844 12.738281 18.34375 12.734375 C 18.347656 12.730469 18.355469 12.722656 18.363281 12.714844 C 18.378906 12.699219 18.398438 12.675781 18.425781 12.648438 C 18.472656 12.59375 18.542969 12.515625 18.621094 12.414062 C 18.777344 12.210938 18.984375 11.917969 19.191406 11.542969 C 19.601562 10.789062 20.011719 9.695312 20.011719 8.324219 Z M 18.546875 8.324219 "/>
</g>
<g clip-path="url(#clip-1)">
<path fill-rule="nonzero" fill="rgb(0%, 0%, 0%)" fill-opacity="1" d="M 0.730469 10.625 L 0 10.625 Z M 5.515625 5.046875 L 5.515625 5.78125 Z M 6.050781 4.886719 L 6.457031 5.496094 Z M 11.910156 1.023438 L 11.507812 0.414062 Z M 13.421875 1.839844 L 14.15625 1.839844 Z M 13.421875 15.785156 L 14.15625 15.785156 Z M 11.910156 16.601562 L 11.507812 17.210938 Z M 6.050781 12.738281 L 6.457031 12.128906 Z M 5.515625 12.578125 L 5.515625 11.84375 Z M 1.464844 10.625 L 1.464844 7 L 0 7 L 0 10.625 Z M 1.464844 7 C 1.464844 6.675781 1.59375 6.367188 1.820312 6.136719 L 0.785156 5.101562 C 0.28125 5.605469 0 6.289062 0 7 Z M 1.820312 6.136719 C 2.050781 5.90625 2.359375 5.78125 2.683594 5.78125 L 2.683594 4.316406 C 1.972656 4.316406 1.289062 4.597656 0.785156 5.101562 Z M 2.683594 5.78125 L 5.515625 5.78125 L 5.515625 4.316406 L 2.683594 4.316406 Z M 5.515625 5.78125 C 5.851562 5.777344 6.175781 5.679688 6.457031 5.496094 L 5.648438 4.273438 C 5.609375 4.300781 5.5625 4.316406 5.515625 4.316406 Z M 6.457031 5.496094 L 12.3125 1.636719 L 11.507812 0.414062 L 5.648438 4.273438 Z M 12.3125 1.636719 C 12.347656 1.613281 12.390625 1.597656 12.4375 1.597656 L 12.371094 0.132812 C 12.0625 0.148438 11.765625 0.242188 11.507812 0.414062 Z M 12.4375 1.597656 C 12.480469 1.59375 12.523438 1.605469 12.5625 1.625 L 13.257812 0.335938 C 12.984375 0.1875 12.679688 0.121094 12.371094 0.132812 Z M 12.5625 1.625 C 12.601562 1.644531 12.632812 1.675781 12.65625 1.714844 L 13.914062 0.964844 C 13.753906 0.699219 13.527344 0.480469 13.257812 0.335938 Z M 12.65625 1.714844 C 12.679688 1.753906 12.691406 1.796875 12.691406 1.839844 L 14.15625 1.839844 C 14.15625 1.53125 14.070312 1.226562 13.914062 0.964844 Z M 12.691406 1.839844 L 12.691406 15.785156 L 14.15625 15.785156 L 14.15625 1.839844 Z M 12.691406 15.785156 C 12.691406 15.828125 12.679688 15.871094 12.65625 15.910156 L 13.914062 16.660156 C 14.070312 16.394531 14.15625 16.09375 14.15625 15.785156 Z M 12.65625 15.910156 C 12.632812 15.949219 12.601562 15.980469 12.5625 16 L 13.257812 17.289062 C 13.527344 17.144531 13.753906 16.925781 13.914062 16.660156 Z M 12.5625 16 C 12.523438 16.019531 12.480469 16.03125 12.4375 16.027344 L 12.371094 17.492188 C 12.679688 17.503906 12.984375 17.433594 13.257812 17.289062 Z M 12.4375 16.027344 C 12.390625 16.027344 12.347656 16.011719 12.3125 15.988281 L 11.507812 17.210938 C 11.765625 17.382812 12.0625 17.476562 12.371094 17.492188 Z M 12.3125 15.988281 L 6.457031 12.128906 L 5.648438 13.351562 L 11.507812 17.210938 Z M 6.457031 12.128906 C 6.175781 11.945312 5.851562 11.84375 5.515625 11.84375 L 5.515625 13.308594 C 5.5625 13.308594 5.609375 13.324219 5.648438 13.351562 Z M 5.515625 11.84375 L 2.683594 11.84375 L 2.683594 13.308594 L 5.515625 13.308594 Z M 2.683594 11.84375 C 2.359375 11.84375 2.050781 11.71875 1.820312 11.488281 L 0.785156 12.523438 C 1.289062 13.027344 1.972656 13.308594 2.683594 13.308594 Z M 1.820312 11.488281 C 1.59375 11.257812 1.464844 10.949219 1.464844 10.625 L 0 10.625 C 0 11.335938 0.28125 12.019531 0.785156 12.523438 Z M 1.820312 11.488281 "/>
</g>
</svg>
