<?xml version="1.0" encoding="UTF-8"?>
<svg xmlns="http://www.w3.org/2000/svg" xmlns:xlink="http://www.w3.org/1999/xlink" width="19.5" height="19.5" viewBox="0 0 19.5 19.5">
<defs>
<clipPath id="clip-0">
<path clip-rule="nonzero" d="M 0 0 L 19.011719 0 L 19.011719 19.011719 L 0 19.011719 Z M 0 0 "/>
</clipPath>
</defs>
<g clip-path="url(#clip-0)">
<path fill-rule="nonzero" fill="rgb(0%, 0%, 0%)" fill-opacity="1" d="M 0.730469 18.28125 L 0 18.28125 C 0 18.683594 0.328125 19.011719 0.730469 19.011719 Z M 0.730469 0.730469 L 0.730469 0 C 0.328125 0 0 0.328125 0 0.730469 Z M 18.28125 0.730469 L 19.011719 0.730469 C 19.011719 0.328125 18.683594 0 18.28125 0 Z M 18.28125 18.28125 L 18.28125 19.011719 C 18.683594 19.011719 19.011719 18.683594 19.011719 18.28125 Z M 0.730469 13.164062 C 0.328125 13.164062 0 13.488281 0 13.894531 C 0 14.296875 0.328125 14.625 0.730469 14.625 Z M 18.28125 14.625 C 18.683594 14.625 19.011719 14.296875 19.011719 13.894531 C 19.011719 13.488281 18.683594 13.164062 18.28125 13.164062 Z M 0.730469 8.773438 C 0.328125 8.773438 0 9.101562 0 9.507812 C 0 9.910156 0.328125 10.238281 0.730469 10.238281 Z M 18.28125 10.238281 C 18.683594 10.238281 19.011719 9.910156 19.011719 9.507812 C 19.011719 9.101562 18.683594 8.773438 18.28125 8.773438 Z M 0.730469 4.386719 C 0.328125 4.386719 0 4.714844 0 5.117188 C 0 5.523438 0.328125 5.851562 0.730469 5.851562 Z M 18.28125 5.851562 C 18.683594 5.851562 19.011719 5.523438 19.011719 5.117188 C 19.011719 4.714844 18.683594 4.386719 18.28125 4.386719 Z M 14.625 0.730469 C 14.625 0.328125 14.296875 0 13.894531 0 C 13.488281 0 13.164062 0.328125 13.164062 0.730469 Z M 13.164062 18.28125 C 13.164062 18.683594 13.488281 19.011719 13.894531 19.011719 C 14.296875 19.011719 14.625 18.683594 14.625 18.28125 Z M 10.238281 0.730469 C 10.238281 0.328125 9.910156 0 9.507812 0 C 9.101562 0 8.773438 0.328125 8.773438 0.730469 Z M 8.773438 18.28125 C 8.773438 18.683594 9.101562 19.011719 9.507812 19.011719 C 9.910156 19.011719 10.238281 18.683594 10.238281 18.28125 Z M 5.851562 0.730469 C 5.851562 0.328125 5.523438 0 5.117188 0 C 4.714844 0 4.386719 0.328125 4.386719 0.730469 Z M 4.386719 18.28125 C 4.386719 18.683594 4.714844 19.011719 5.117188 19.011719 C 5.523438 19.011719 5.851562 18.683594 5.851562 18.28125 Z M 1.460938 18.28125 L 1.460938 0.730469 L 0 0.730469 L 0 18.28125 Z M 0.730469 1.460938 L 18.28125 1.460938 L 18.28125 0 L 0.730469 0 Z M 17.550781 0.730469 L 17.550781 18.28125 L 19.011719 18.28125 L 19.011719 0.730469 Z M 18.28125 17.550781 L 0.730469 17.550781 L 0.730469 19.011719 L 18.28125 19.011719 Z M 0.730469 14.625 L 18.28125 14.625 L 18.28125 13.164062 L 0.730469 13.164062 Z M 0.730469 10.238281 L 18.28125 10.238281 L 18.28125 8.773438 L 0.730469 8.773438 Z M 0.730469 5.851562 L 18.28125 5.851562 L 18.28125 4.386719 L 0.730469 4.386719 Z M 13.164062 0.730469 L 13.164062 18.28125 L 14.625 18.28125 L 14.625 0.730469 Z M 8.773438 0.730469 L 8.773438 18.28125 L 10.238281 18.28125 L 10.238281 0.730469 Z M 4.386719 0.730469 L 4.386719 18.28125 L 5.851562 18.28125 L 5.851562 0.730469 Z M 4.386719 0.730469 "/>
</g>
</svg>
