<?xml version="1.0" encoding="UTF-8"?>
<svg xmlns="http://www.w3.org/2000/svg" xmlns:xlink="http://www.w3.org/1999/xlink" width="21.5" height="21.5" viewBox="0 0 21.5 21.5">
<defs>
<clipPath id="clip-0">
<path clip-rule="nonzero" d="M 0 0 L 21 0 L 21 21.011719 L 0 21.011719 Z M 0 0 "/>
</clipPath>
<clipPath id="clip-1">
<path clip-rule="nonzero" d="M 18 13 L 21.011719 13 L 21.011719 21 L 18 21 Z M 18 13 "/>
</clipPath>
</defs>
<g clip-path="url(#clip-0)">
<path fill-rule="nonzero" fill="rgb(0%, 0%, 0%)" fill-opacity="1" d="M 19.445312 9.148438 C 19.503906 9.550781 19.878906 9.824219 20.277344 9.765625 C 20.679688 9.703125 20.953125 9.332031 20.894531 8.929688 Z M 20.136719 14.707031 C 20.300781 14.335938 20.128906 13.90625 19.757812 13.742188 C 19.386719 13.582031 18.957031 13.75 18.792969 14.121094 Z M 20.894531 8.929688 C 20.132812 3.875 15.773438 0 10.503906 0 L 10.503906 1.464844 C 15.035156 1.464844 18.789062 4.800781 19.445312 9.148438 Z M 10.503906 0 C 4.703125 0 0 4.703125 0 10.503906 L 1.464844 10.503906 C 1.464844 5.511719 5.511719 1.464844 10.503906 1.464844 Z M 0 10.503906 C 0 16.308594 4.703125 21.011719 10.503906 21.011719 L 10.503906 19.546875 C 5.511719 19.546875 1.464844 15.5 1.464844 10.503906 Z M 10.503906 21.011719 C 14.8125 21.011719 18.515625 18.417969 20.136719 14.707031 L 18.792969 14.121094 C 17.398438 17.316406 14.210938 19.546875 10.503906 19.546875 Z M 10.503906 21.011719 "/>
</g>
<g clip-path="url(#clip-1)">
<path fill-rule="nonzero" fill="rgb(0%, 0%, 0%)" fill-opacity="1" d="M 19.691406 13.683594 C 19.289062 13.683594 18.960938 14.011719 18.960938 14.414062 C 18.960938 14.820312 19.289062 15.148438 19.691406 15.148438 Z M 20.277344 15 L 21.011719 15 Z M 19.546875 19.300781 C 19.546875 19.707031 19.875 20.035156 20.277344 20.035156 C 20.683594 20.035156 21.011719 19.707031 21.011719 19.300781 Z M 19.691406 15.148438 C 19.671875 15.148438 19.652344 15.144531 19.636719 15.136719 L 20.199219 13.78125 C 20.039062 13.714844 19.867188 13.683594 19.691406 13.683594 Z M 19.636719 15.136719 C 19.617188 15.128906 19.601562 15.117188 19.589844 15.105469 L 20.625 14.066406 C 20.503906 13.945312 20.355469 13.847656 20.199219 13.78125 Z M 19.589844 15.105469 C 19.574219 15.089844 19.5625 15.074219 19.558594 15.058594 L 20.910156 14.496094 C 20.84375 14.335938 20.746094 14.191406 20.625 14.066406 Z M 19.558594 15.058594 C 19.550781 15.039062 19.546875 15.019531 19.546875 15 L 21.011719 15 C 21.011719 14.828125 20.976562 14.65625 20.910156 14.496094 Z M 19.546875 15 L 19.546875 19.300781 L 21.011719 19.300781 L 21.011719 15 Z M 19.546875 15 "/>
</g>
<path fill-rule="nonzero" fill="rgb(0%, 0%, 0%)" fill-opacity="1" d="M 12.867188 4.640625 C 12.867188 4.238281 12.539062 3.910156 12.132812 3.910156 C 11.730469 3.910156 11.402344 4.238281 11.402344 4.640625 Z M 11.402344 6.90625 C 11.402344 7.308594 11.730469 7.636719 12.132812 7.636719 C 12.539062 7.636719 12.867188 7.308594 12.867188 6.90625 Z M 9.691406 5.039062 C 9.285156 5.039062 8.957031 5.367188 8.957031 5.773438 C 8.957031 6.179688 9.285156 6.507812 9.691406 6.507812 Z M 5.621094 14.261719 L 4.886719 14.261719 Z M 6.707031 5.773438 L 6.707031 5.039062 Z M 7.792969 6.507812 C 8.195312 6.507812 8.523438 6.179688 8.523438 5.773438 C 8.523438 5.367188 8.195312 5.039062 7.792969 5.039062 Z M 8.523438 4.640625 C 8.523438 4.238281 8.195312 3.910156 7.792969 3.910156 C 7.386719 3.910156 7.058594 4.238281 7.058594 4.640625 Z M 7.058594 6.90625 C 7.058594 7.308594 7.386719 7.636719 7.792969 7.636719 C 8.195312 7.636719 8.523438 7.308594 8.523438 6.90625 Z M 14.304688 5.773438 L 14.304688 5.039062 Z M 14.035156 5.039062 C 13.628906 5.039062 13.300781 5.367188 13.300781 5.773438 C 13.300781 6.179688 13.628906 6.507812 14.035156 6.507812 Z M 12.867188 5.773438 L 12.867188 4.640625 L 11.402344 4.640625 L 11.402344 5.773438 Z M 11.402344 5.773438 L 11.402344 6.90625 L 12.867188 6.90625 L 12.867188 5.773438 Z M 12.132812 5.039062 L 9.691406 5.039062 L 9.691406 6.507812 L 12.132812 6.507812 Z M 4.886719 9.167969 L 4.886719 14.261719 L 6.351562 14.261719 L 6.351562 9.167969 Z M 4.886719 14.261719 C 4.886719 14.746094 5.070312 15.214844 5.410156 15.566406 L 6.464844 14.554688 C 6.398438 14.480469 6.351562 14.375 6.351562 14.261719 Z M 5.410156 15.566406 C 5.746094 15.921875 6.210938 16.125 6.707031 16.125 L 6.707031 14.660156 C 6.621094 14.660156 6.535156 14.625 6.464844 14.554688 Z M 6.707031 16.125 L 14.304688 16.125 L 14.304688 14.660156 L 6.707031 14.660156 Z M 14.304688 16.125 C 14.796875 16.125 15.265625 15.921875 15.601562 15.566406 L 14.546875 14.554688 C 14.476562 14.625 14.390625 14.660156 14.304688 14.660156 Z M 15.601562 15.566406 C 15.941406 15.214844 16.125 14.746094 16.125 14.261719 L 14.660156 14.261719 C 14.660156 14.375 14.613281 14.480469 14.546875 14.554688 Z M 16.125 14.261719 L 16.125 9.167969 L 14.660156 9.167969 L 14.660156 14.261719 Z M 15.390625 8.433594 L 5.621094 8.433594 L 5.621094 9.902344 L 15.390625 9.902344 Z M 6.351562 9.167969 L 6.351562 6.90625 L 4.886719 6.90625 L 4.886719 9.167969 Z M 6.351562 6.90625 C 6.351562 6.789062 6.398438 6.683594 6.464844 6.613281 L 5.410156 5.597656 C 5.070312 5.949219 4.886719 6.421875 4.886719 6.90625 Z M 6.464844 6.613281 C 6.535156 6.539062 6.621094 6.507812 6.707031 6.507812 L 6.707031 5.039062 C 6.210938 5.039062 5.746094 5.246094 5.410156 5.597656 Z M 6.707031 6.507812 L 7.792969 6.507812 L 7.792969 5.039062 L 6.707031 5.039062 Z M 7.058594 4.640625 L 7.058594 6.90625 L 8.523438 6.90625 L 8.523438 4.640625 Z M 16.125 9.167969 L 16.125 6.90625 L 14.660156 6.90625 L 14.660156 9.167969 Z M 16.125 6.90625 C 16.125 6.421875 15.941406 5.949219 15.601562 5.597656 L 14.546875 6.613281 C 14.613281 6.683594 14.660156 6.789062 14.660156 6.90625 Z M 15.601562 5.597656 C 15.265625 5.246094 14.796875 5.039062 14.304688 5.039062 L 14.304688 6.507812 C 14.390625 6.507812 14.476562 6.539062 14.546875 6.613281 Z M 14.304688 5.039062 L 14.035156 5.039062 L 14.035156 6.507812 L 14.304688 6.507812 Z M 14.304688 5.039062 "/>
</svg>
