<?xml version="1.0" encoding="UTF-8"?>
<svg xmlns="http://www.w3.org/2000/svg" xmlns:xlink="http://www.w3.org/1999/xlink" width="132" height="36" viewBox="0 0 132 36">
<defs>
<clipPath id="clip-0">
<path clip-rule="nonzero" d="M 10 10 L 26 10 L 26 26 L 10 26 Z M 10 10 "/>
</clipPath>
<clipPath id="clip-1">
<path clip-rule="nonzero" d="M 26 18 C 26 22.417969 22.417969 26 18 26 C 13.582031 26 10 22.417969 10 18 C 10 13.582031 13.582031 10 18 10 C 22.417969 10 26 13.582031 26 18 Z M 26 18 "/>
</clipPath>
<clipPath id="clip-2">
<path clip-rule="nonzero" d="M 34 10 L 50 10 L 50 26 L 34 26 Z M 34 10 "/>
</clipPath>
<clipPath id="clip-3">
<path clip-rule="nonzero" d="M 50 18 C 50 22.417969 46.417969 26 42 26 C 37.582031 26 34 22.417969 34 18 C 34 13.582031 37.582031 10 42 10 C 46.417969 10 50 13.582031 50 18 Z M 50 18 "/>
</clipPath>
<clipPath id="clip-4">
<path clip-rule="nonzero" d="M 58 10 L 74 10 L 74 26 L 58 26 Z M 58 10 "/>
</clipPath>
<clipPath id="clip-5">
<path clip-rule="nonzero" d="M 74 18 C 74 22.417969 70.417969 26 66 26 C 61.582031 26 58 22.417969 58 18 C 58 13.582031 61.582031 10 66 10 C 70.417969 10 74 13.582031 74 18 Z M 74 18 "/>
</clipPath>
<clipPath id="clip-6">
<path clip-rule="nonzero" d="M 82 10 L 98 10 L 98 26 L 82 26 Z M 82 10 "/>
</clipPath>
<clipPath id="clip-7">
<path clip-rule="nonzero" d="M 98 18 C 98 22.417969 94.417969 26 90 26 C 85.582031 26 82 22.417969 82 18 C 82 13.582031 85.582031 10 90 10 C 94.417969 10 98 13.582031 98 18 Z M 98 18 "/>
</clipPath>
<clipPath id="clip-8">
<path clip-rule="nonzero" d="M 106 10 L 122 10 L 122 26 L 106 26 Z M 106 10 "/>
</clipPath>
<clipPath id="clip-9">
<path clip-rule="nonzero" d="M 122 18 C 122 22.417969 118.417969 26 114 26 C 109.582031 26 106 22.417969 106 18 C 106 13.582031 109.582031 10 114 10 C 118.417969 10 122 13.582031 122 18 Z M 122 18 "/>
</clipPath>
<clipPath id="clip-10">
<path clip-rule="nonzero" d="M 5 0 L 127 0 C 129.761719 0 132 2.238281 132 5 L 132 31 C 132 33.761719 129.761719 36 127 36 L 5 36 C 2.238281 36 0 33.761719 0 31 L 0 5 C 0 2.238281 2.238281 0 5 0 Z M 5 0 "/>
</clipPath>
</defs>
<g clip-path="url(#clip-0)">
<g clip-path="url(#clip-1)">
<path fill-rule="nonzero" fill="rgb(69.804382%, 100%, 39.99939%)" fill-opacity="1" d="M 22 18 C 22 20.210938 20.210938 22 18 22 L 18 30 C 24.628906 30 30 24.628906 30 18 Z M 18 22 C 15.789062 22 14 20.210938 14 18 L 6 18 C 6 24.628906 11.371094 30 18 30 Z M 14 18 C 14 15.789062 15.789062 14 18 14 L 18 6 C 11.371094 6 6 11.371094 6 18 Z M 18 14 C 20.210938 14 22 15.789062 22 18 L 30 18 C 30 11.371094 24.628906 6 18 6 Z M 18 14 "/>
</g>
</g>
<g clip-path="url(#clip-2)">
<g clip-path="url(#clip-3)">
<path fill-rule="nonzero" fill="rgb(92.156982%, 27.842712%, 27.842712%)" fill-opacity="1" d="M 46 18 C 46 20.210938 44.210938 22 42 22 L 42 30 C 48.628906 30 54 24.628906 54 18 Z M 42 22 C 39.789062 22 38 20.210938 38 18 L 30 18 C 30 24.628906 35.371094 30 42 30 Z M 38 18 C 38 15.789062 39.789062 14 42 14 L 42 6 C 35.371094 6 30 11.371094 30 18 Z M 42 14 C 44.210938 14 46 15.789062 46 18 L 54 18 C 54 11.371094 48.628906 6 42 6 Z M 42 14 "/>
</g>
</g>
<g clip-path="url(#clip-4)">
<g clip-path="url(#clip-5)">
<path fill-rule="nonzero" fill="rgb(54.902649%, 39.99939%, 100%)" fill-opacity="1" d="M 70 18 C 70 20.210938 68.210938 22 66 22 L 66 30 C 72.628906 30 78 24.628906 78 18 Z M 66 22 C 63.789062 22 62 20.210938 62 18 L 54 18 C 54 24.628906 59.371094 30 66 30 Z M 62 18 C 62 15.789062 63.789062 14 66 14 L 66 6 C 59.371094 6 54 11.371094 54 18 Z M 66 14 C 68.210938 14 70 15.789062 70 18 L 78 18 C 78 11.371094 72.628906 6 66 6 Z M 66 14 "/>
</g>
</g>
<g clip-path="url(#clip-6)">
<g clip-path="url(#clip-7)">
<path fill-rule="nonzero" fill="rgb(39.99939%, 80.000305%, 100%)" fill-opacity="1" d="M 94 18 C 94 20.210938 92.210938 22 90 22 L 90 30 C 96.628906 30 102 24.628906 102 18 Z M 90 22 C 87.789062 22 86 20.210938 86 18 L 78 18 C 78 24.628906 83.371094 30 90 30 Z M 86 18 C 86 15.789062 87.789062 14 90 14 L 90 6 C 83.371094 6 78 11.371094 78 18 Z M 90 14 C 92.210938 14 94 15.789062 94 18 L 102 18 C 102 11.371094 96.628906 6 90 6 Z M 90 14 "/>
</g>
</g>
<g clip-path="url(#clip-8)">
<g clip-path="url(#clip-9)">
<path fill-rule="nonzero" fill="rgb(33.332825%, 33.332825%, 33.332825%)" fill-opacity="1" d="M 118 18 C 118 20.210938 116.210938 22 114 22 L 114 30 C 120.628906 30 126 24.628906 126 18 Z M 114 22 C 111.789062 22 110 20.210938 110 18 L 102 18 C 102 24.628906 107.371094 30 114 30 Z M 110 18 C 110 15.789062 111.789062 14 114 14 L 114 6 C 107.371094 6 102 11.371094 102 18 Z M 114 14 C 116.210938 14 118 15.789062 118 18 L 126 18 C 126 11.371094 120.628906 6 114 6 Z M 114 14 "/>
</g>
</g>
<g clip-path="url(#clip-10)">
<path fill-rule="nonzero" fill="rgb(59.216309%, 27.842712%, 100%)" fill-opacity="1" d="M 5 35.5 C 2.515625 35.5 0.5 33.484375 0.5 31 L -0.5 31 C -0.5 34.039062 1.960938 36.5 5 36.5 Z M 0.5 31 L 0.5 26.667969 L -0.5 26.667969 L -0.5 31 Z M 0.5 22.332031 L 0.5 13.667969 L -0.5 13.667969 L -0.5 22.332031 Z M 0.5 9.332031 L 0.5 5 L -0.5 5 L -0.5 9.332031 Z M 0.5 5 C 0.5 2.515625 2.515625 0.5 5 0.5 L 5 -0.5 C 1.960938 -0.5 -0.5 1.960938 -0.5 5 Z M 5 0.5 L 10.082031 0.5 L 10.082031 -0.5 L 5 -0.5 Z M 15.167969 0.5 L 25.332031 0.5 L 25.332031 -0.5 L 15.167969 -0.5 Z M 30.417969 0.5 L 40.582031 0.5 L 40.582031 -0.5 L 30.417969 -0.5 Z M 45.667969 0.5 L 55.832031 0.5 L 55.832031 -0.5 L 45.667969 -0.5 Z M 60.917969 0.5 L 71.082031 0.5 L 71.082031 -0.5 L 60.917969 -0.5 Z M 76.167969 0.5 L 86.332031 0.5 L 86.332031 -0.5 L 76.167969 -0.5 Z M 91.417969 0.5 L 101.582031 0.5 L 101.582031 -0.5 L 91.417969 -0.5 Z M 106.667969 0.5 L 116.832031 0.5 L 116.832031 -0.5 L 106.667969 -0.5 Z M 121.917969 0.5 L 127 0.5 L 127 -0.5 L 121.917969 -0.5 Z M 127 0.5 C 129.484375 0.5 131.5 2.515625 131.5 5 L 132.5 5 C 132.5 1.960938 130.039062 -0.5 127 -0.5 Z M 131.5 5 L 131.5 9.332031 L 132.5 9.332031 L 132.5 5 Z M 131.5 13.667969 L 131.5 22.332031 L 132.5 22.332031 L 132.5 13.667969 Z M 131.5 26.667969 L 131.5 31 L 132.5 31 L 132.5 26.667969 Z M 131.5 31 C 131.5 33.484375 129.484375 35.5 127 35.5 L 127 36.5 C 130.039062 36.5 132.5 34.039062 132.5 31 Z M 127 35.5 L 121.917969 35.5 L 121.917969 36.5 L 127 36.5 Z M 116.832031 35.5 L 106.667969 35.5 L 106.667969 36.5 L 116.832031 36.5 Z M 101.582031 35.5 L 91.417969 35.5 L 91.417969 36.5 L 101.582031 36.5 Z M 86.332031 35.5 L 76.167969 35.5 L 76.167969 36.5 L 86.332031 36.5 Z M 71.082031 35.5 L 60.917969 35.5 L 60.917969 36.5 L 71.082031 36.5 Z M 55.832031 35.5 L 45.667969 35.5 L 45.667969 36.5 L 55.832031 36.5 Z M 40.582031 35.5 L 30.417969 35.5 L 30.417969 36.5 L 40.582031 36.5 Z M 25.332031 35.5 L 15.167969 35.5 L 15.167969 36.5 L 25.332031 36.5 Z M 10.082031 35.5 L 5 35.5 L 5 36.5 L 10.082031 36.5 Z M 5 35 C 2.789062 35 1 33.210938 1 31 L -1 31 C -1 34.3125 1.6875 37 5 37 Z M 1 31 L 1 26.667969 L -1 26.667969 L -1 31 Z M 1 22.332031 L 1 13.667969 L -1 13.667969 L -1 22.332031 Z M 1 9.332031 L 1 5 L -1 5 L -1 9.332031 Z M 1 5 C 1 2.789062 2.789062 1 5 1 L 5 -1 C 1.6875 -1 -1 1.6875 -1 5 Z M 5 1 L 10.082031 1 L 10.082031 -1 L 5 -1 Z M 15.167969 1 L 25.332031 1 L 25.332031 -1 L 15.167969 -1 Z M 30.417969 1 L 40.582031 1 L 40.582031 -1 L 30.417969 -1 Z M 45.667969 1 L 55.832031 1 L 55.832031 -1 L 45.667969 -1 Z M 60.917969 1 L 71.082031 1 L 71.082031 -1 L 60.917969 -1 Z M 76.167969 1 L 86.332031 1 L 86.332031 -1 L 76.167969 -1 Z M 91.417969 1 L 101.582031 1 L 101.582031 -1 L 91.417969 -1 Z M 106.667969 1 L 116.832031 1 L 116.832031 -1 L 106.667969 -1 Z M 121.917969 1 L 127 1 L 127 -1 L 121.917969 -1 Z M 127 1 C 129.210938 1 131 2.789062 131 5 L 133 5 C 133 1.6875 130.3125 -1 127 -1 Z M 131 5 L 131 9.332031 L 133 9.332031 L 133 5 Z M 131 13.667969 L 131 22.332031 L 133 22.332031 L 133 13.667969 Z M 131 26.667969 L 131 31 L 133 31 L 133 26.667969 Z M 131 31 C 131 33.210938 129.210938 35 127 35 L 127 37 C 130.3125 37 133 34.3125 133 31 Z M 127 35 L 121.917969 35 L 121.917969 37 L 127 37 Z M 116.832031 35 L 106.667969 35 L 106.667969 37 L 116.832031 37 Z M 101.582031 35 L 91.417969 35 L 91.417969 37 L 101.582031 37 Z M 86.332031 35 L 76.167969 35 L 76.167969 37 L 86.332031 37 Z M 71.082031 35 L 60.917969 35 L 60.917969 37 L 71.082031 37 Z M 55.832031 35 L 45.667969 35 L 45.667969 37 L 55.832031 37 Z M 40.582031 35 L 30.417969 35 L 30.417969 37 L 40.582031 37 Z M 25.332031 35 L 15.167969 35 L 15.167969 37 L 25.332031 37 Z M 10.082031 35 L 5 35 L 5 37 L 10.082031 37 Z M 10.082031 35 "/>
</g>
</svg>
