<?xml version="1.0" encoding="UTF-8"?>
<svg xmlns="http://www.w3.org/2000/svg" xmlns:xlink="http://www.w3.org/1999/xlink" width="9.5" height="21.5" viewBox="0 0 9.5 21.5">
<defs>
<clipPath id="clip-0">
<path clip-rule="nonzero" d="M 0 0.300781 L 9.023438 0.300781 L 9.023438 20.726562 L 0 20.726562 Z M 0 0.300781 "/>
</clipPath>
</defs>
<g clip-path="url(#clip-0)">
<path fill-rule="nonzero" fill="rgb(0%, 0%, 0%)" fill-opacity="1" d="M 8.3125 1.582031 L 9.023438 1.582031 Z M 0.710938 1.582031 L 0 1.582031 Z M 0.710938 19.441406 L 1.425781 19.441406 Z M 1.28125 20.011719 L 1.28125 20.726562 Z M 7.742188 20.011719 L 7.742188 20.726562 Z M 5.460938 5.050781 C 5.070312 5.050781 4.75 5.367188 4.75 5.761719 C 4.75 6.15625 5.070312 6.476562 5.460938 6.476562 Z M 5.460938 9.800781 C 5.070312 9.800781 4.75 10.117188 4.75 10.511719 C 4.75 10.90625 5.070312 11.226562 5.460938 11.226562 Z M 5.460938 14.550781 C 5.070312 14.550781 4.75 14.867188 4.75 15.261719 C 4.75 15.65625 5.070312 15.976562 5.460938 15.976562 Z M 9.023438 5.761719 L 9.023438 1.582031 L 7.601562 1.582031 L 7.601562 5.761719 Z M 9.023438 1.582031 C 9.023438 1.242188 8.890625 0.917969 8.648438 0.675781 L 7.640625 1.683594 C 7.613281 1.65625 7.601562 1.621094 7.601562 1.582031 Z M 8.648438 0.675781 C 8.410156 0.433594 8.082031 0.300781 7.742188 0.300781 L 7.742188 1.726562 C 7.703125 1.726562 7.667969 1.710938 7.640625 1.683594 Z M 7.742188 0.300781 L 1.28125 0.300781 L 1.28125 1.726562 L 7.742188 1.726562 Z M 1.28125 0.300781 C 0.941406 0.300781 0.617188 0.433594 0.375 0.675781 L 1.382812 1.683594 C 1.355469 1.710938 1.320312 1.726562 1.28125 1.726562 Z M 0.375 0.675781 C 0.136719 0.917969 0 1.242188 0 1.582031 L 1.425781 1.582031 C 1.425781 1.621094 1.410156 1.65625 1.382812 1.683594 Z M 0 1.582031 L 0 19.441406 L 1.425781 19.441406 L 1.425781 1.582031 Z M 0 19.441406 C 0 19.78125 0.136719 20.109375 0.375 20.347656 L 1.382812 19.339844 C 1.410156 19.367188 1.425781 19.40625 1.425781 19.441406 Z M 0.375 20.347656 C 0.617188 20.589844 0.941406 20.726562 1.28125 20.726562 L 1.28125 19.300781 C 1.320312 19.300781 1.355469 19.316406 1.382812 19.339844 Z M 1.28125 20.726562 L 7.742188 20.726562 L 7.742188 19.300781 L 1.28125 19.300781 Z M 7.742188 20.726562 C 8.082031 20.726562 8.410156 20.589844 8.648438 20.347656 L 7.640625 19.339844 C 7.667969 19.316406 7.703125 19.300781 7.742188 19.300781 Z M 8.648438 20.347656 C 8.890625 20.109375 9.023438 19.78125 9.023438 19.441406 L 7.601562 19.441406 C 7.601562 19.40625 7.613281 19.367188 7.640625 19.339844 Z M 9.023438 19.441406 L 9.023438 15.261719 L 7.601562 15.261719 L 7.601562 19.441406 Z M 8.3125 5.050781 L 5.460938 5.050781 L 5.460938 6.476562 L 8.3125 6.476562 Z M 7.601562 5.761719 L 7.601562 10.511719 L 9.023438 10.511719 L 9.023438 5.761719 Z M 8.3125 9.800781 L 5.460938 9.800781 L 5.460938 11.226562 L 8.3125 11.226562 Z M 7.601562 10.511719 L 7.601562 15.261719 L 9.023438 15.261719 L 9.023438 10.511719 Z M 8.3125 14.550781 L 5.460938 14.550781 L 5.460938 15.976562 L 8.3125 15.976562 Z M 8.3125 14.550781 "/>
</g>
</svg>
