<?xml version="1.0" encoding="UTF-8"?>
<svg xmlns="http://www.w3.org/2000/svg" xmlns:xlink="http://www.w3.org/1999/xlink" width="164" height="56" viewBox="0 0 164 56">
<defs>
<clipPath id="clip-0">
<path clip-rule="nonzero" d="M 5 0 L 159 0 C 161.761719 0 164 2.238281 164 5 L 164 51 C 164 53.761719 161.761719 56 159 56 L 5 56 C 2.238281 56 0 53.761719 0 51 L 0 5 C 0 2.238281 2.238281 0 5 0 Z M 5 0 "/>
</clipPath>
</defs>
<path fill-rule="nonzero" fill="rgb(92.156982%, 27.842712%, 81.568909%)" fill-opacity="1" d="M 22 20 C 23.105469 20 24 20.894531 24 22 L 24 34 C 24 35.105469 23.105469 36 22 36 C 20.894531 36 20 35.105469 20 34 L 20 22 C 20 20.894531 20.894531 20 22 20 Z M 22 20 "/>
<path fill-rule="nonzero" fill="rgb(60.00061%, 92.156982%, 27.842712%)" fill-opacity="1" d="M 46 20 C 47.105469 20 48 20.894531 48 22 L 48 34 C 48 35.105469 47.105469 36 46 36 C 44.894531 36 44 35.105469 44 34 L 44 22 C 44 20.894531 44.894531 20 46 20 Z M 46 20 "/>
<path fill-rule="nonzero" fill="rgb(63.922119%, 27.842712%, 92.156982%)" fill-opacity="1" d="M 70 20 C 71.105469 20 72 20.894531 72 22 L 72 34 C 72 35.105469 71.105469 36 70 36 C 68.894531 36 68 35.105469 68 34 L 68 22 C 68 20.894531 68.894531 20 70 20 Z M 70 20 "/>
<path fill-rule="nonzero" fill="rgb(60.00061%, 60.00061%, 60.00061%)" fill-opacity="1" d="M 94 20 C 95.105469 20 96 20.894531 96 22 L 96 34 C 96 35.105469 95.105469 36 94 36 C 92.894531 36 92 35.105469 92 34 L 92 22 C 92 20.894531 92.894531 20 94 20 Z M 94 20 "/>
<path fill-rule="nonzero" fill="rgb(92.156982%, 81.568909%, 27.842712%)" fill-opacity="1" d="M 118 20 C 119.105469 20 120 20.894531 120 22 L 120 34 C 120 35.105469 119.105469 36 118 36 C 116.894531 36 116 35.105469 116 34 L 116 22 C 116 20.894531 116.894531 20 118 20 Z M 118 20 "/>
<path fill-rule="nonzero" fill="rgb(0%, 39.99939%, 100%)" fill-opacity="1" d="M 142 20 C 143.105469 20 144 20.894531 144 22 L 144 34 C 144 35.105469 143.105469 36 142 36 C 140.894531 36 140 35.105469 140 34 L 140 22 C 140 20.894531 140.894531 20 142 20 Z M 142 20 "/>
<g clip-path="url(#clip-0)">
<path fill-rule="nonzero" fill="rgb(59.216309%, 27.842712%, 100%)" fill-opacity="1" d="M 5 55.5 C 2.515625 55.5 0.5 53.484375 0.5 51 L -0.5 51 C -0.5 54.039062 1.960938 56.5 5 56.5 Z M 0.5 51 L 0.5 45.890625 L -0.5 45.890625 L -0.5 51 Z M 0.5 40.777344 L 0.5 30.554688 L -0.5 30.554688 L -0.5 40.777344 Z M 0.5 25.445312 L 0.5 15.222656 L -0.5 15.222656 L -0.5 25.445312 Z M 0.5 10.109375 L 0.5 5 L -0.5 5 L -0.5 10.109375 Z M 0.5 5 C 0.5 2.515625 2.515625 0.5 5 0.5 L 5 -0.5 C 1.960938 -0.5 -0.5 1.960938 -0.5 5 Z M 5 0.5 L 10.132812 0.5 L 10.132812 -0.5 L 5 -0.5 Z M 15.265625 0.5 L 25.535156 0.5 L 25.535156 -0.5 L 15.265625 -0.5 Z M 30.667969 0.5 L 40.933594 0.5 L 40.933594 -0.5 L 30.667969 -0.5 Z M 46.066406 0.5 L 56.332031 0.5 L 56.332031 -0.5 L 46.066406 -0.5 Z M 61.464844 0.5 L 71.734375 0.5 L 71.734375 -0.5 L 61.464844 -0.5 Z M 76.867188 0.5 L 87.132812 0.5 L 87.132812 -0.5 L 76.867188 -0.5 Z M 92.265625 0.5 L 102.535156 0.5 L 102.535156 -0.5 L 92.265625 -0.5 Z M 107.667969 0.5 L 117.933594 0.5 L 117.933594 -0.5 L 107.667969 -0.5 Z M 123.066406 0.5 L 133.332031 0.5 L 133.332031 -0.5 L 123.066406 -0.5 Z M 138.464844 0.5 L 148.734375 0.5 L 148.734375 -0.5 L 138.464844 -0.5 Z M 153.867188 0.5 L 159 0.5 L 159 -0.5 L 153.867188 -0.5 Z M 159 0.5 C 161.484375 0.5 163.5 2.515625 163.5 5 L 164.5 5 C 164.5 1.960938 162.039062 -0.5 159 -0.5 Z M 163.5 5 L 163.5 10.109375 L 164.5 10.109375 L 164.5 5 Z M 163.5 15.222656 L 163.5 25.445312 L 164.5 25.445312 L 164.5 15.222656 Z M 163.5 30.554688 L 163.5 40.777344 L 164.5 40.777344 L 164.5 30.554688 Z M 163.5 45.890625 L 163.5 51 L 164.5 51 L 164.5 45.890625 Z M 163.5 51 C 163.5 53.484375 161.484375 55.5 159 55.5 L 159 56.5 C 162.039062 56.5 164.5 54.039062 164.5 51 Z M 159 55.5 L 153.867188 55.5 L 153.867188 56.5 L 159 56.5 Z M 148.734375 55.5 L 138.464844 55.5 L 138.464844 56.5 L 148.734375 56.5 Z M 133.332031 55.5 L 123.066406 55.5 L 123.066406 56.5 L 133.332031 56.5 Z M 117.933594 55.5 L 107.667969 55.5 L 107.667969 56.5 L 117.933594 56.5 Z M 102.535156 55.5 L 92.265625 55.5 L 92.265625 56.5 L 102.535156 56.5 Z M 87.132812 55.5 L 76.867188 55.5 L 76.867188 56.5 L 87.132812 56.5 Z M 71.734375 55.5 L 61.464844 55.5 L 61.464844 56.5 L 71.734375 56.5 Z M 56.332031 55.5 L 46.066406 55.5 L 46.066406 56.5 L 56.332031 56.5 Z M 40.933594 55.5 L 30.667969 55.5 L 30.667969 56.5 L 40.933594 56.5 Z M 25.535156 55.5 L 15.265625 55.5 L 15.265625 56.5 L 25.535156 56.5 Z M 10.132812 55.5 L 5 55.5 L 5 56.5 L 10.132812 56.5 Z M 5 55 C 2.789062 55 1 53.210938 1 51 L -1 51 C -1 54.3125 1.6875 57 5 57 Z M 1 51 L 1 45.890625 L -1 45.890625 L -1 51 Z M 1 40.777344 L 1 30.554688 L -1 30.554688 L -1 40.777344 Z M 1 25.445312 L 1 15.222656 L -1 15.222656 L -1 25.445312 Z M 1 10.109375 L 1 5 L -1 5 L -1 10.109375 Z M 1 5 C 1 2.789062 2.789062 1 5 1 L 5 -1 C 1.6875 -1 -1 1.6875 -1 5 Z M 5 1 L 10.132812 1 L 10.132812 -1 L 5 -1 Z M 15.265625 1 L 25.535156 1 L 25.535156 -1 L 15.265625 -1 Z M 30.667969 1 L 40.933594 1 L 40.933594 -1 L 30.667969 -1 Z M 46.066406 1 L 56.332031 1 L 56.332031 -1 L 46.066406 -1 Z M 61.464844 1 L 71.734375 1 L 71.734375 -1 L 61.464844 -1 Z M 76.867188 1 L 87.132812 1 L 87.132812 -1 L 76.867188 -1 Z M 92.265625 1 L 102.535156 1 L 102.535156 -1 L 92.265625 -1 Z M 107.667969 1 L 117.933594 1 L 117.933594 -1 L 107.667969 -1 Z M 123.066406 1 L 133.332031 1 L 133.332031 -1 L 123.066406 -1 Z M 138.464844 1 L 148.734375 1 L 148.734375 -1 L 138.464844 -1 Z M 153.867188 1 L 159 1 L 159 -1 L 153.867188 -1 Z M 159 1 C 161.210938 1 163 2.789062 163 5 L 165 5 C 165 1.6875 162.3125 -1 159 -1 Z M 163 5 L 163 10.109375 L 165 10.109375 L 165 5 Z M 163 15.222656 L 163 25.445312 L 165 25.445312 L 165 15.222656 Z M 163 30.554688 L 163 40.777344 L 165 40.777344 L 165 30.554688 Z M 163 45.890625 L 163 51 L 165 51 L 165 45.890625 Z M 163 51 C 163 53.210938 161.210938 55 159 55 L 159 57 C 162.3125 57 165 54.3125 165 51 Z M 159 55 L 153.867188 55 L 153.867188 57 L 159 57 Z M 148.734375 55 L 138.464844 55 L 138.464844 57 L 148.734375 57 Z M 133.332031 55 L 123.066406 55 L 123.066406 57 L 133.332031 57 Z M 117.933594 55 L 107.667969 55 L 107.667969 57 L 117.933594 57 Z M 102.535156 55 L 92.265625 55 L 92.265625 57 L 102.535156 57 Z M 87.132812 55 L 76.867188 55 L 76.867188 57 L 87.132812 57 Z M 71.734375 55 L 61.464844 55 L 61.464844 57 L 71.734375 57 Z M 56.332031 55 L 46.066406 55 L 46.066406 57 L 56.332031 57 Z M 40.933594 55 L 30.667969 55 L 30.667969 57 L 40.933594 57 Z M 25.535156 55 L 15.265625 55 L 15.265625 57 L 25.535156 57 Z M 10.132812 55 L 5 55 L 5 57 L 10.132812 57 Z M 10.132812 55 "/>
</g>
</svg>
