<?xml version="1.0" encoding="UTF-8"?>
<svg xmlns="http://www.w3.org/2000/svg" xmlns:xlink="http://www.w3.org/1999/xlink" width="1640" height="140" viewBox="0 0 1640 140">
<defs>
<g>
<g id="glyph-0-0">
</g>
<g id="glyph-0-1">
</g>
<g id="glyph-0-2">
</g>
<g id="glyph-0-3">
</g>
<g id="glyph-0-4">
</g>
<g id="glyph-0-5">
</g>
<g id="glyph-0-6">
</g>
<g id="glyph-0-7">
</g>
<g id="glyph-0-8">
</g>
</g>
</defs>
<rect x="-164" y="-14" width="1968" height="168" fill="rgb(100%, 100%, 100%)" fill-opacity="1"/>
<path fill-rule="nonzero" fill="rgb(0%, 0%, 0%)" fill-opacity="1" d="M 74 75 Z M 75.078125 75 L 80.257812 75 C 81.699219 75 82.777344 73.753906 82.777344 72.214844 C 82.777344 70.535156 81.503906 69.917969 80.578125 69.917969 L 80.578125 69.835938 C 81.574219 69.792969 82.398438 69.230469 82.398438 67.734375 C 82.398438 66.222656 81.433594 65.226562 79.824219 65.226562 L 75.078125 65.226562 Z M 77.207031 70.96875 L 79.65625 70.96875 C 80.214844 70.96875 80.566406 71.289062 80.566406 71.851562 L 80.566406 72.324219 C 80.566406 72.886719 80.214844 73.207031 79.65625 73.207031 L 77.207031 73.207031 Z M 77.207031 67.019531 L 79.320312 67.019531 C 79.878906 67.019531 80.214844 67.355469 80.214844 67.914062 L 80.214844 68.335938 C 80.214844 68.894531 79.878906 69.230469 79.320312 69.230469 L 77.207031 69.230469 Z M 83.339844 75 Z M 88.644531 75 L 90.714844 75 L 90.714844 67.648438 L 88.644531 67.648438 L 88.644531 72.425781 C 88.644531 73.125 87.984375 73.488281 87.34375 73.488281 C 86.585938 73.488281 86.292969 72.984375 86.292969 72.089844 L 86.292969 67.648438 L 84.21875 67.648438 L 84.21875 72.269531 C 84.21875 74.117188 85.019531 75.167969 86.515625 75.167969 C 87.71875 75.167969 88.320312 74.511719 88.574219 73.769531 L 88.644531 73.769531 Z M 91.675781 75 Z M 96.453125 75 L 96.453125 73.390625 L 95.109375 73.390625 L 95.109375 69.261719 L 96.5625 69.261719 L 96.5625 67.648438 L 95.109375 67.648438 L 95.109375 65.660156 L 93.246094 65.660156 L 93.246094 66.867188 C 93.246094 67.371094 93.078125 67.648438 92.519531 67.648438 L 92 67.648438 L 92 69.261719 L 93.035156 69.261719 L 93.035156 72.859375 C 93.035156 74.257812 93.792969 75 95.21875 75 Z M 96.96875 75 Z M 101.742188 75 L 101.742188 73.390625 L 100.398438 73.390625 L 100.398438 69.261719 L 101.855469 69.261719 L 101.855469 67.648438 L 100.398438 67.648438 L 100.398438 65.660156 L 98.535156 65.660156 L 98.535156 66.867188 C 98.535156 67.371094 98.367188 67.648438 97.808594 67.648438 L 97.289062 67.648438 L 97.289062 69.261719 L 98.328125 69.261719 L 98.328125 72.859375 C 98.328125 74.257812 99.082031 75 100.511719 75 Z M 102.273438 75 Z M 106.222656 75.167969 C 108.378906 75.167969 109.664062 73.683594 109.664062 71.316406 C 109.664062 68.953125 108.378906 67.480469 106.222656 67.480469 C 104.066406 67.480469 102.777344 68.953125 102.777344 71.316406 C 102.777344 73.683594 104.066406 75.167969 106.222656 75.167969 Z M 106.222656 73.53125 C 105.410156 73.53125 104.933594 72.996094 104.933594 72.074219 L 104.933594 70.574219 C 104.933594 69.652344 105.410156 69.121094 106.222656 69.121094 C 107.035156 69.121094 107.507812 69.652344 107.507812 70.574219 L 107.507812 72.074219 C 107.507812 72.996094 107.035156 73.53125 106.222656 73.53125 Z M 110.175781 75 Z M 113.214844 75 L 113.214844 70.238281 C 113.214844 69.511719 113.871094 69.160156 114.542969 69.160156 C 115.300781 69.160156 115.566406 69.625 115.566406 70.5625 L 115.566406 75 L 117.636719 75 L 117.636719 70.394531 C 117.636719 68.546875 116.839844 67.480469 115.339844 67.480469 C 114.179688 67.480469 113.5625 68.125 113.296875 68.894531 L 113.214844 68.894531 L 113.214844 67.648438 L 111.140625 67.648438 L 111.140625 75 Z M 121.824219 75 Z M 127.171875 75 L 127.171875 73.304688 L 125.914062 73.304688 L 125.914062 66.921875 L 127.171875 66.921875 L 127.171875 65.226562 L 122.523438 65.226562 L 122.523438 66.921875 L 123.785156 66.921875 L 123.785156 73.304688 L 122.523438 73.304688 L 122.523438 75 Z M 127.796875 75 Z M 131.734375 75.167969 C 133.175781 75.167969 134.226562 74.539062 134.714844 73.136719 L 133.105469 72.4375 C 132.894531 73.027344 132.558594 73.53125 131.734375 73.53125 C 130.894531 73.53125 130.457031 72.941406 130.457031 72.019531 L 130.457031 70.644531 C 130.457031 69.722656 130.894531 69.121094 131.734375 69.121094 C 132.460938 69.121094 132.867188 69.566406 132.992188 70.128906 L 134.671875 69.398438 C 134.238281 68.195312 133.21875 67.480469 131.734375 67.480469 C 129.519531 67.480469 128.304688 68.964844 128.304688 71.316406 C 128.304688 73.671875 129.519531 75.167969 131.734375 75.167969 Z M 134.964844 75 Z M 138.910156 75.167969 C 141.066406 75.167969 142.355469 73.683594 142.355469 71.316406 C 142.355469 68.953125 141.066406 67.480469 138.910156 67.480469 C 136.753906 67.480469 135.46875 68.953125 135.46875 71.316406 C 135.46875 73.683594 136.753906 75.167969 138.910156 75.167969 Z M 138.910156 73.53125 C 138.097656 73.53125 137.621094 72.996094 137.621094 72.074219 L 137.621094 70.574219 C 137.621094 69.652344 138.097656 69.121094 138.910156 69.121094 C 139.722656 69.121094 140.199219 69.652344 140.199219 70.574219 L 140.199219 72.074219 C 140.199219 72.996094 139.722656 73.53125 138.910156 73.53125 Z M 142.863281 75 Z M 145.902344 75 L 145.902344 70.238281 C 145.902344 69.511719 146.5625 69.160156 147.234375 69.160156 C 147.988281 69.160156 148.253906 69.625 148.253906 70.5625 L 148.253906 75 L 150.328125 75 L 150.328125 70.394531 C 150.328125 68.546875 149.527344 67.480469 148.03125 67.480469 C 146.871094 67.480469 146.253906 68.125 145.988281 68.894531 L 145.902344 68.894531 L 145.902344 67.648438 L 143.832031 67.648438 L 143.832031 75 Z M 151.203125 75 Z M 154.664062 75.167969 C 156.554688 75.167969 157.8125 74.132812 157.8125 72.71875 C 157.8125 71.445312 156.988281 70.714844 155.390625 70.507812 L 154.566406 70.394531 C 153.964844 70.308594 153.796875 70.101562 153.796875 69.707031 C 153.796875 69.34375 154.074219 69.09375 154.773438 69.09375 C 155.390625 69.09375 156.007812 69.386719 156.46875 69.847656 L 157.660156 68.628906 C 156.917969 67.902344 156.203125 67.480469 154.664062 67.480469 C 152.914062 67.480469 151.808594 68.460938 151.808594 69.875 C 151.808594 71.207031 152.617188 71.933594 154.285156 72.144531 L 155.082031 72.242188 C 155.601562 72.3125 155.824219 72.492188 155.824219 72.859375 C 155.824219 73.292969 155.546875 73.558594 154.734375 73.558594 C 153.933594 73.558594 153.304688 73.195312 152.785156 72.621094 L 151.570312 73.851562 C 152.324219 74.691406 153.25 75.167969 154.664062 75.167969 Z M 154.664062 75.167969 "/>
<path fill-rule="nonzero" fill="rgb(76.863098%, 76.863098%, 76.863098%)" fill-opacity="1" d="M 289 113 C 289 116.867188 285.867188 120 282 120 L 210 120 C 206.132812 120 203 116.867188 203 113 C 203 109.132812 206.132812 106 210 106 L 282 106 C 285.867188 106 289 109.132812 289 113 Z M 289 113 "/>
<path fill-rule="nonzero" fill="rgb(76.863098%, 76.863098%, 76.863098%)" fill-opacity="1" d="M 271.464844 70.296875 C 274.261719 73.097656 274.261719 77.636719 271.464844 80.4375 L 251.1875 100.714844 C 248.386719 103.511719 243.847656 103.511719 241.046875 100.714844 C 238.246094 97.914062 238.246094 93.375 241.046875 90.574219 L 261.324219 70.296875 C 264.125 67.496094 268.664062 67.496094 271.464844 70.296875 Z M 271.464844 70.296875 "/>
<path fill-rule="nonzero" fill="rgb(76.863098%, 76.863098%, 76.863098%)" fill-opacity="1" d="M 246 25 C 249.867188 25 253 28.132812 253 32 L 253 58 C 253 61.867188 249.867188 65 246 65 C 242.132812 65 239 61.867188 239 58 L 239 32 C 239 28.132812 242.132812 25 246 25 Z M 246 25 "/>
<path fill-rule="nonzero" fill="rgb(76.863098%, 76.863098%, 76.863098%)" fill-opacity="1" d="M 251.101562 100.714844 C 248.304688 103.511719 243.761719 103.511719 240.964844 100.714844 L 220.6875 80.4375 C 217.886719 77.636719 217.886719 73.097656 220.6875 70.296875 C 223.484375 67.496094 228.027344 67.496094 230.824219 70.296875 L 251.101562 90.574219 C 253.902344 93.375 253.902344 97.914062 251.101562 100.714844 Z M 251.101562 100.714844 "/>
<path fill-rule="nonzero" fill="rgb(76.863098%, 76.863098%, 76.863098%)" fill-opacity="1" d="M 401 112.339844 C 401 116.203125 397.867188 119.339844 394 119.339844 L 322 119.339844 C 318.132812 119.339844 315 116.203125 315 112.339844 C 315 108.472656 318.132812 105.339844 322 105.339844 L 394 105.339844 C 397.867188 105.339844 401 108.472656 401 112.339844 Z M 401 112.339844 "/>
<path fill-rule="nonzero" fill="rgb(76.863098%, 76.863098%, 76.863098%)" fill-opacity="1" d="M 383.433594 69.636719 C 386.234375 72.433594 386.234375 76.976562 383.433594 79.773438 L 363.15625 100.050781 C 360.355469 102.851562 355.816406 102.851562 353.019531 100.050781 C 350.21875 97.253906 350.21875 92.710938 353.019531 89.914062 L 373.296875 69.636719 C 376.09375 66.835938 380.632812 66.835938 383.433594 69.636719 Z M 383.433594 69.636719 "/>
<path fill-rule="nonzero" fill="rgb(76.863098%, 76.863098%, 76.863098%)" fill-opacity="1" d="M 383.433594 32.070312 C 386.234375 34.867188 386.234375 39.410156 383.433594 42.207031 L 363.15625 62.484375 C 360.355469 65.285156 355.816406 65.285156 353.019531 62.484375 C 350.21875 59.6875 350.21875 55.144531 353.019531 52.347656 L 373.296875 32.070312 C 376.09375 29.269531 380.632812 29.269531 383.433594 32.070312 Z M 383.433594 32.070312 "/>
<path fill-rule="nonzero" fill="rgb(76.863098%, 76.863098%, 76.863098%)" fill-opacity="1" d="M 363.074219 100.050781 C 360.273438 102.851562 355.734375 102.851562 352.933594 100.050781 L 332.65625 79.773438 C 329.859375 76.972656 329.859375 72.433594 332.65625 69.636719 C 335.457031 66.835938 339.996094 66.835938 342.796875 69.636719 L 363.074219 89.914062 C 365.871094 92.710938 365.871094 97.25 363.074219 100.050781 Z M 363.074219 100.050781 "/>
<path fill-rule="nonzero" fill="rgb(76.863098%, 76.863098%, 76.863098%)" fill-opacity="1" d="M 363.074219 62.484375 C 360.273438 65.285156 355.734375 65.285156 352.933594 62.484375 L 332.65625 42.207031 C 329.859375 39.410156 329.859375 34.867188 332.65625 32.070312 C 335.457031 29.269531 339.996094 29.269531 342.796875 32.070312 L 363.074219 52.347656 C 365.871094 55.144531 365.871094 59.6875 363.074219 62.484375 Z M 363.074219 62.484375 "/>
<g fill="rgb(0%, 0%, 0%)" fill-opacity="1">
<use xlink:href="#glyph-0-0" x="74" y="75"/>
</g>
<g fill="rgb(0%, 0%, 0%)" fill-opacity="1">
<use xlink:href="#glyph-0-1" x="83.338" y="75"/>
</g>
<g fill="rgb(0%, 0%, 0%)" fill-opacity="1">
<use xlink:href="#glyph-0-2" x="91.682" y="75"/>
</g>
<g fill="rgb(0%, 0%, 0%)" fill-opacity="1">
<use xlink:href="#glyph-0-2" x="96.973016" y="75"/>
</g>
<g fill="rgb(0%, 0%, 0%)" fill-opacity="1">
<use xlink:href="#glyph-0-3" x="102.277704" y="75"/>
</g>
<g fill="rgb(0%, 0%, 0%)" fill-opacity="1">
<use xlink:href="#glyph-0-4" x="110.173704" y="75"/>
</g>
<g fill="rgb(0%, 0%, 0%)" fill-opacity="1">
<use xlink:href="#glyph-0-5" x="118.517704" y="75"/>
</g>
<g fill="rgb(0%, 0%, 0%)" fill-opacity="1">
<use xlink:href="#glyph-0-6" x="121.821704" y="75"/>
</g>
<g fill="rgb(0%, 0%, 0%)" fill-opacity="1">
<use xlink:href="#glyph-0-7" x="127.796313" y="75"/>
</g>
<g fill="rgb(0%, 0%, 0%)" fill-opacity="1">
<use xlink:href="#glyph-0-3" x="134.960377" y="75"/>
</g>
<g fill="rgb(0%, 0%, 0%)" fill-opacity="1">
<use xlink:href="#glyph-0-4" x="142.856377" y="75"/>
</g>
<g fill="rgb(0%, 0%, 0%)" fill-opacity="1">
<use xlink:href="#glyph-0-8" x="151.200377" y="75"/>
</g>
</svg>
