<?xml version="1.0" encoding="UTF-8"?>
<svg xmlns="http://www.w3.org/2000/svg" xmlns:xlink="http://www.w3.org/1999/xlink" width="21.573242" height="21.146484" viewBox="0 0 21.573242 21.146484">
<defs>
<clipPath id="clip-0">
<path clip-rule="nonzero" d="M 7 0 L 20.949219 0 L 20.949219 20.324219 L 7 20.324219 Z M 7 0 "/>
</clipPath>
<clipPath id="clip-1">
<path clip-rule="nonzero" d="M 0.214844 2 L 18 2 L 18 19 L 0.214844 19 Z M 0.214844 2 "/>
</clipPath>
</defs>
<g clip-path="url(#clip-0)">
<path fill-rule="nonzero" fill="rgb(0%, 0%, 0%)" fill-opacity="1" d="M 15.832031 16.410156 C 15.433594 16.410156 15.113281 16.734375 15.113281 17.132812 C 15.113281 17.53125 15.433594 17.851562 15.832031 17.851562 Z M 20.160156 17.132812 L 20.667969 17.640625 C 20.949219 17.359375 20.949219 16.902344 20.667969 16.621094 Z M 18.265625 14.21875 C 17.984375 13.9375 17.527344 13.9375 17.246094 14.21875 C 16.964844 14.5 16.964844 14.957031 17.246094 15.238281 Z M 17.246094 19.023438 C 16.964844 19.304688 16.964844 19.761719 17.246094 20.042969 C 17.527344 20.324219 17.984375 20.324219 18.265625 20.042969 Z M 11.054688 1.300781 C 11.335938 1.019531 11.335938 0.5625 11.054688 0.28125 C 10.773438 0 10.316406 0 10.035156 0.28125 Z M 8.144531 3.195312 L 7.632812 2.683594 C 7.425781 2.890625 7.367188 3.199219 7.476562 3.46875 C 7.589844 3.738281 7.851562 3.914062 8.144531 3.914062 Z M 8.625 3.914062 C 9.023438 3.914062 9.34375 3.59375 9.34375 3.195312 C 9.34375 2.796875 9.023438 2.472656 8.625 2.472656 Z M 15.832031 17.851562 L 20.160156 17.851562 L 20.160156 16.410156 L 15.832031 16.410156 Z M 20.667969 16.621094 L 18.265625 14.21875 L 17.246094 15.238281 L 19.648438 17.640625 Z M 19.648438 16.621094 L 17.246094 19.023438 L 18.265625 20.042969 L 20.667969 17.640625 Z M 10.035156 0.28125 L 7.632812 2.683594 L 8.652344 3.703125 L 11.054688 1.300781 Z M 8.144531 3.914062 L 8.625 3.914062 L 8.625 2.472656 L 8.144531 2.472656 Z M 8.144531 3.914062 "/>
</g>
<g clip-path="url(#clip-1)">
<path fill-rule="nonzero" fill="rgb(0%, 0%, 0%)" fill-opacity="1" d="M 9.105469 2.472656 C 8.707031 2.472656 8.382812 2.796875 8.382812 3.195312 C 8.382812 3.59375 8.707031 3.914062 9.105469 3.914062 Z M 0.933594 16.890625 C 0.535156 16.890625 0.214844 17.214844 0.214844 17.613281 C 0.214844 18.011719 0.535156 18.332031 0.933594 18.332031 Z M 9.105469 3.914062 C 10.824219 3.914062 12.476562 4.597656 13.691406 5.816406 L 14.710938 4.796875 C 13.226562 3.308594 11.207031 2.472656 9.105469 2.472656 Z M 13.691406 5.816406 C 14.910156 7.03125 15.59375 8.683594 15.59375 10.402344 L 17.035156 10.402344 C 17.035156 8.300781 16.199219 6.28125 14.710938 4.796875 Z M 15.59375 10.402344 C 15.59375 12.125 14.910156 13.773438 13.691406 14.992188 L 14.710938 16.011719 C 16.199219 14.523438 17.035156 12.507812 17.035156 10.402344 Z M 13.691406 14.992188 C 12.476562 16.207031 10.824219 16.890625 9.105469 16.890625 L 9.105469 18.332031 C 11.207031 18.332031 13.226562 17.496094 14.710938 16.011719 Z M 9.105469 16.890625 L 0.933594 16.890625 L 0.933594 18.332031 L 9.105469 18.332031 Z M 9.105469 16.890625 "/>
</g>
<path fill-rule="nonzero" fill="rgb(0%, 0%, 0%)" fill-opacity="1" d="M 5.867188 4.78125 C 6.210938 4.582031 6.328125 4.140625 6.128906 3.796875 C 5.933594 3.449219 5.492188 3.332031 5.144531 3.53125 Z M 1.894531 10.402344 L 2.617188 10.402344 Z M 2.761719 15.160156 C 3 15.480469 3.453125 15.542969 3.769531 15.304688 C 4.089844 15.066406 4.152344 14.613281 3.914062 14.296875 Z M 5.144531 3.53125 C 3.9375 4.226562 2.9375 5.226562 2.238281 6.433594 L 3.488281 7.15625 C 4.058594 6.167969 4.878906 5.347656 5.867188 4.78125 Z M 2.238281 6.433594 C 1.542969 7.640625 1.175781 9.011719 1.175781 10.402344 L 2.617188 10.402344 C 2.617188 9.261719 2.917969 8.144531 3.488281 7.15625 Z M 1.175781 10.402344 C 1.175781 12.1875 1.765625 13.835938 2.761719 15.160156 L 3.914062 14.296875 C 3.097656 13.210938 2.617188 11.863281 2.617188 10.402344 Z M 1.175781 10.402344 "/>
<path fill-rule="nonzero" fill="rgb(0%, 0%, 0%)" fill-opacity="1" d="M 11.855469 11.257812 C 11.855469 11.65625 12.175781 11.980469 12.574219 11.980469 C 12.972656 11.980469 13.296875 11.65625 13.296875 11.257812 Z M 12.574219 6.558594 L 13.296875 6.558594 C 13.296875 6.347656 13.203125 6.148438 13.042969 6.011719 C 12.882812 5.875 12.667969 5.8125 12.460938 5.847656 Z M 7.214844 7.414062 L 7.101562 6.699219 C 6.75 6.757812 6.492188 7.058594 6.492188 7.414062 Z M 6.492188 12.113281 C 6.492188 12.511719 6.816406 12.832031 7.214844 12.832031 C 7.613281 12.832031 7.9375 12.511719 7.9375 12.113281 Z M 13.296875 11.257812 L 13.296875 6.558594 L 11.855469 6.558594 L 11.855469 11.257812 Z M 12.460938 5.847656 L 7.101562 6.699219 L 7.328125 8.125 L 12.6875 7.269531 Z M 6.492188 7.414062 L 6.492188 12.113281 L 7.9375 12.113281 L 7.9375 7.414062 Z M 6.492188 7.414062 "/>
<path fill-rule="nonzero" fill="rgb(0%, 0%, 0%)" fill-opacity="1" d="M 12.574219 11.257812 L 13.296875 11.257812 C 13.296875 10.859375 12.972656 10.535156 12.574219 10.535156 Z M 7.214844 12.113281 L 7.9375 12.113281 C 7.9375 11.714844 7.613281 11.390625 7.214844 11.390625 Z M 5.753906 12.113281 L 5.753906 12.832031 Z M 4.777344 12.964844 L 4.058594 12.964844 Z M 4.777344 13.394531 L 4.058594 13.394531 Z M 11.113281 14.113281 L 11.601562 14.113281 L 11.601562 12.671875 L 11.113281 12.671875 Z M 11.601562 14.113281 C 12.023438 14.113281 12.441406 13.96875 12.765625 13.683594 L 11.816406 12.601562 C 11.773438 12.636719 11.695312 12.671875 11.601562 12.671875 Z M 12.765625 13.683594 C 13.089844 13.398438 13.296875 12.988281 13.296875 12.539062 L 11.855469 12.539062 C 11.855469 12.542969 11.855469 12.546875 11.847656 12.558594 C 11.84375 12.566406 11.835938 12.582031 11.816406 12.601562 Z M 13.296875 12.539062 L 13.296875 11.257812 L 11.855469 11.257812 L 11.855469 12.539062 Z M 12.574219 10.535156 L 11.113281 10.535156 L 11.113281 11.976562 L 12.574219 11.976562 Z M 11.113281 10.535156 C 10.691406 10.535156 10.273438 10.683594 9.949219 10.964844 L 10.898438 12.050781 C 10.941406 12.011719 11.019531 11.976562 11.113281 11.976562 Z M 9.949219 10.964844 C 9.625 11.25 9.417969 11.660156 9.417969 12.113281 L 10.859375 12.113281 C 10.859375 12.109375 10.859375 12.101562 10.863281 12.09375 C 10.871094 12.082031 10.878906 12.066406 10.898438 12.050781 Z M 9.417969 12.113281 L 9.417969 12.539062 L 10.859375 12.539062 L 10.859375 12.113281 Z M 9.417969 12.539062 C 9.417969 12.988281 9.625 13.398438 9.949219 13.683594 L 10.898438 12.601562 C 10.878906 12.582031 10.871094 12.566406 10.863281 12.558594 C 10.859375 12.546875 10.859375 12.542969 10.859375 12.539062 Z M 9.949219 13.683594 C 10.273438 13.96875 10.691406 14.113281 11.113281 14.113281 L 11.113281 12.671875 C 11.019531 12.671875 10.941406 12.636719 10.898438 12.601562 Z M 5.753906 14.96875 L 6.242188 14.96875 L 6.242188 13.527344 L 5.753906 13.527344 Z M 6.242188 14.96875 C 6.664062 14.96875 7.082031 14.824219 7.40625 14.539062 L 6.453125 13.457031 C 6.414062 13.492188 6.335938 13.527344 6.242188 13.527344 Z M 7.40625 14.539062 C 7.730469 14.253906 7.9375 13.84375 7.9375 13.394531 L 6.496094 13.394531 C 6.496094 13.398438 6.492188 13.402344 6.488281 13.414062 C 6.484375 13.421875 6.476562 13.4375 6.453125 13.457031 Z M 7.9375 13.394531 L 7.9375 12.113281 L 6.496094 12.113281 L 6.496094 13.394531 Z M 7.214844 11.390625 L 5.753906 11.390625 L 5.753906 12.832031 L 7.214844 12.832031 Z M 5.753906 11.390625 C 5.332031 11.390625 4.914062 11.535156 4.589844 11.820312 L 5.539062 12.902344 C 5.582031 12.867188 5.65625 12.832031 5.753906 12.832031 Z M 4.589844 11.820312 C 4.261719 12.105469 4.058594 12.515625 4.058594 12.964844 L 5.5 12.964844 C 5.5 12.964844 5.5 12.957031 5.503906 12.949219 C 5.507812 12.9375 5.519531 12.921875 5.539062 12.902344 Z M 4.058594 12.964844 L 4.058594 13.394531 L 5.5 13.394531 L 5.5 12.964844 Z M 4.058594 13.394531 C 4.058594 13.84375 4.261719 14.253906 4.589844 14.539062 L 5.539062 13.457031 C 5.519531 13.4375 5.507812 13.421875 5.503906 13.414062 C 5.5 13.402344 5.5 13.398438 5.5 13.394531 Z M 4.589844 14.539062 C 4.914062 14.824219 5.332031 14.96875 5.753906 14.96875 L 5.753906 13.527344 C 5.65625 13.527344 5.582031 13.492188 5.539062 13.457031 Z M 4.589844 14.539062 "/>
</svg>
