<?xml version="1.0" encoding="UTF-8"?>
<svg xmlns="http://www.w3.org/2000/svg" xmlns:xlink="http://www.w3.org/1999/xlink" width="98" height="32" viewBox="0 0 98 32">
<defs>
<clipPath id="clip-0">
<path clip-rule="nonzero" d="M 5 0 L 93 0 C 95.761719 0 98 2.238281 98 5 L 98 27 C 98 29.761719 95.761719 32 93 32 L 5 32 C 2.238281 32 0 29.761719 0 27 L 0 5 C 0 2.238281 2.238281 0 5 0 Z M 5 0 "/>
</clipPath>
</defs>
<path fill-rule="evenodd" fill="rgb(0%, 0%, 0%)" fill-opacity="1" d="M 41.957031 16 C 41.957031 10.5 37.5 6.042969 32 6.042969 C 26.5 6.042969 22.042969 10.5 22.042969 16 C 22.042969 21.5 26.5 25.957031 32 25.957031 C 37.5 25.957031 41.957031 21.5 41.957031 16 Z M 27.328125 4.945312 C 28.808594 4.316406 30.382812 4 32 4 C 33.617188 4 35.191406 4.316406 36.671875 4.945312 C 38.101562 5.546875 39.382812 6.410156 40.488281 7.511719 C 41.585938 8.617188 42.453125 9.898438 43.054688 11.328125 C 43.683594 12.808594 44 14.382812 44 16 C 44 17.617188 43.683594 19.191406 43.054688 20.671875 C 42.453125 22.101562 41.589844 23.382812 40.488281 24.488281 C 39.382812 25.585938 38.101562 26.453125 36.671875 27.054688 C 35.191406 27.683594 33.617188 28 32 28 C 30.382812 28 28.808594 27.683594 27.328125 27.054688 C 25.898438 26.453125 24.617188 25.589844 23.511719 24.488281 C 22.414062 23.382812 21.546875 22.101562 20.945312 20.671875 C 20.316406 19.191406 20 17.617188 20 16 C 20 14.382812 20.316406 12.808594 20.945312 11.328125 C 21.546875 9.898438 22.410156 8.617188 23.511719 7.511719 C 24.617188 6.414062 25.898438 5.546875 27.328125 4.945312 Z M 30.722656 22.433594 C 30.722656 23.140625 31.296875 23.710938 32 23.710938 C 32.703125 23.710938 33.277344 23.140625 33.277344 22.433594 L 33.277344 9.566406 C 33.277344 8.859375 32.703125 8.289062 32 8.289062 C 31.296875 8.289062 30.722656 8.859375 30.722656 9.566406 Z M 26.636719 18.808594 C 26.636719 19.511719 27.210938 20.085938 27.914062 20.085938 C 28.621094 20.085938 29.191406 19.511719 29.191406 18.808594 L 29.191406 13.191406 C 29.191406 12.488281 28.621094 11.914062 27.914062 11.914062 C 27.210938 11.914062 26.636719 12.488281 26.636719 13.191406 Z M 36.085938 20.085938 C 35.378906 20.085938 34.808594 19.511719 34.808594 18.808594 L 34.808594 13.191406 C 34.808594 12.488281 35.378906 11.914062 36.085938 11.914062 C 36.789062 11.914062 37.363281 12.488281 37.363281 13.191406 L 37.363281 18.808594 C 37.363281 19.511719 36.789062 20.085938 36.085938 20.085938 Z M 36.085938 20.085938 "/>
<path fill-rule="evenodd" fill="rgb(0%, 0%, 0%)" fill-opacity="0.5" d="M 75.957031 16 C 75.957031 10.5 71.5 6.042969 66 6.042969 C 60.5 6.042969 56.042969 10.5 56.042969 16 C 56.042969 21.5 60.5 25.957031 66 25.957031 C 71.5 25.957031 75.957031 21.5 75.957031 16 Z M 61.328125 4.945312 C 62.808594 4.316406 64.382812 4 66 4 C 67.617188 4 69.191406 4.316406 70.671875 4.945312 C 72.101562 5.546875 73.382812 6.410156 74.488281 7.511719 C 75.585938 8.617188 76.453125 9.898438 77.054688 11.328125 C 77.683594 12.808594 78 14.382812 78 16 C 78 17.617188 77.683594 19.191406 77.054688 20.671875 C 76.453125 22.101562 75.589844 23.382812 74.488281 24.488281 C 73.382812 25.585938 72.101562 26.453125 70.671875 27.054688 C 69.191406 27.683594 67.617188 28 66 28 C 64.382812 28 62.808594 27.683594 61.328125 27.054688 C 59.898438 26.453125 58.617188 25.589844 57.511719 24.488281 C 56.414062 23.382812 55.546875 22.101562 54.945312 20.671875 C 54.316406 19.191406 54 17.617188 54 16 C 54 14.382812 54.316406 12.808594 54.945312 11.328125 C 55.546875 9.898438 56.410156 8.617188 57.511719 7.511719 C 58.617188 6.414062 59.898438 5.546875 61.328125 4.945312 Z M 64.722656 22.433594 C 64.722656 23.140625 65.296875 23.710938 66 23.710938 C 66.703125 23.710938 67.277344 23.140625 67.277344 22.433594 L 67.277344 9.566406 C 67.277344 8.859375 66.703125 8.289062 66 8.289062 C 65.296875 8.289062 64.722656 8.859375 64.722656 9.566406 Z M 60.636719 18.808594 C 60.636719 19.511719 61.210938 20.085938 61.914062 20.085938 C 62.621094 20.085938 63.191406 19.511719 63.191406 18.808594 L 63.191406 13.191406 C 63.191406 12.488281 62.621094 11.914062 61.914062 11.914062 C 61.210938 11.914062 60.636719 12.488281 60.636719 13.191406 Z M 70.085938 20.085938 C 69.378906 20.085938 68.808594 19.511719 68.808594 18.808594 L 68.808594 13.191406 C 68.808594 12.488281 69.378906 11.914062 70.085938 11.914062 C 70.789062 11.914062 71.363281 12.488281 71.363281 13.191406 L 71.363281 18.808594 C 71.363281 19.511719 70.789062 20.085938 70.085938 20.085938 Z M 70.085938 20.085938 "/>
<g clip-path="url(#clip-0)">
<path fill-rule="nonzero" fill="rgb(59.216309%, 27.842712%, 100%)" fill-opacity="1" d="M 5 31.5 C 2.515625 31.5 0.5 29.484375 0.5 27 L -0.5 27 C -0.5 30.039062 1.960938 32.5 5 32.5 Z M 0.5 27 L 0.5 19.667969 L -0.5 19.667969 L -0.5 27 Z M 0.5 12.332031 L 0.5 5 L -0.5 5 L -0.5 12.332031 Z M 0.5 5 C 0.5 2.515625 2.515625 0.5 5 0.5 L 5 -0.5 C 1.960938 -0.5 -0.5 1.960938 -0.5 5 Z M 5 0.5 L 9.890625 0.5 L 9.890625 -0.5 L 5 -0.5 Z M 14.777344 0.5 L 24.554688 0.5 L 24.554688 -0.5 L 14.777344 -0.5 Z M 29.445312 0.5 L 39.222656 0.5 L 39.222656 -0.5 L 29.445312 -0.5 Z M 44.109375 0.5 L 53.890625 0.5 L 53.890625 -0.5 L 44.109375 -0.5 Z M 58.777344 0.5 L 68.554688 0.5 L 68.554688 -0.5 L 58.777344 -0.5 Z M 73.445312 0.5 L 83.222656 0.5 L 83.222656 -0.5 L 73.445312 -0.5 Z M 88.109375 0.5 L 93 0.5 L 93 -0.5 L 88.109375 -0.5 Z M 93 0.5 C 95.484375 0.5 97.5 2.515625 97.5 5 L 98.5 5 C 98.5 1.960938 96.039062 -0.5 93 -0.5 Z M 97.5 5 L 97.5 12.332031 L 98.5 12.332031 L 98.5 5 Z M 97.5 19.667969 L 97.5 27 L 98.5 27 L 98.5 19.667969 Z M 97.5 27 C 97.5 29.484375 95.484375 31.5 93 31.5 L 93 32.5 C 96.039062 32.5 98.5 30.039062 98.5 27 Z M 93 31.5 L 88.109375 31.5 L 88.109375 32.5 L 93 32.5 Z M 83.222656 31.5 L 73.445312 31.5 L 73.445312 32.5 L 83.222656 32.5 Z M 68.554688 31.5 L 58.777344 31.5 L 58.777344 32.5 L 68.554688 32.5 Z M 53.890625 31.5 L 44.109375 31.5 L 44.109375 32.5 L 53.890625 32.5 Z M 39.222656 31.5 L 29.445312 31.5 L 29.445312 32.5 L 39.222656 32.5 Z M 24.554688 31.5 L 14.777344 31.5 L 14.777344 32.5 L 24.554688 32.5 Z M 9.890625 31.5 L 5 31.5 L 5 32.5 L 9.890625 32.5 Z M 5 31 C 2.789062 31 1 29.210938 1 27 L -1 27 C -1 30.3125 1.6875 33 5 33 Z M 1 27 L 1 19.667969 L -1 19.667969 L -1 27 Z M 1 12.332031 L 1 5 L -1 5 L -1 12.332031 Z M 1 5 C 1 2.789062 2.789062 1 5 1 L 5 -1 C 1.6875 -1 -1 1.6875 -1 5 Z M 5 1 L 9.890625 1 L 9.890625 -1 L 5 -1 Z M 14.777344 1 L 24.554688 1 L 24.554688 -1 L 14.777344 -1 Z M 29.445312 1 L 39.222656 1 L 39.222656 -1 L 29.445312 -1 Z M 44.109375 1 L 53.890625 1 L 53.890625 -1 L 44.109375 -1 Z M 58.777344 1 L 68.554688 1 L 68.554688 -1 L 58.777344 -1 Z M 73.445312 1 L 83.222656 1 L 83.222656 -1 L 73.445312 -1 Z M 88.109375 1 L 93 1 L 93 -1 L 88.109375 -1 Z M 93 1 C 95.210938 1 97 2.789062 97 5 L 99 5 C 99 1.6875 96.3125 -1 93 -1 Z M 97 5 L 97 12.332031 L 99 12.332031 L 99 5 Z M 97 19.667969 L 97 27 L 99 27 L 99 19.667969 Z M 97 27 C 97 29.210938 95.210938 31 93 31 L 93 33 C 96.3125 33 99 30.3125 99 27 Z M 93 31 L 88.109375 31 L 88.109375 33 L 93 33 Z M 83.222656 31 L 73.445312 31 L 73.445312 33 L 83.222656 33 Z M 68.554688 31 L 58.777344 31 L 58.777344 33 L 68.554688 33 Z M 53.890625 31 L 44.109375 31 L 44.109375 33 L 53.890625 33 Z M 39.222656 31 L 29.445312 31 L 29.445312 33 L 39.222656 33 Z M 24.554688 31 L 14.777344 31 L 14.777344 33 L 24.554688 33 Z M 9.890625 31 L 5 31 L 5 33 L 9.890625 33 Z M 9.890625 31 "/>
</g>
</svg>
