<?xml version="1.0" encoding="UTF-8"?>
<svg xmlns="http://www.w3.org/2000/svg" xmlns:xlink="http://www.w3.org/1999/xlink" width="56.800049" height="74" viewBox="0 0 56.800049 74">
<defs>
<clipPath id="clip-0">
<path clip-rule="nonzero" d="M 0 0.128906 L 56.601562 0.128906 L 56.601562 73.871094 L 0 73.871094 Z M 0 0.128906 "/>
</clipPath>
<clipPath id="clip-1">
<path clip-rule="nonzero" d="M 4.984375 0.128906 L 51.617188 0.128906 C 54.371094 0.128906 56.601562 2.359375 56.601562 5.113281 L 56.601562 68.886719 C 56.601562 71.640625 54.371094 73.871094 51.617188 73.871094 L 4.984375 73.871094 C 2.230469 73.871094 0 71.640625 0 68.886719 L 0 5.113281 C 0 2.359375 2.230469 0.128906 4.984375 0.128906 Z M 4.984375 0.128906 "/>
</clipPath>
</defs>
<path fill-rule="nonzero" fill="rgb(86.66687%, 18.03894%, 26.66626%)" fill-opacity="1" d="M 36.488281 30.179688 C 36.488281 31.195312 35.664062 32.015625 34.648438 32.015625 L 21.769531 32.015625 C 20.753906 32.015625 19.929688 31.195312 19.929688 30.179688 L 19.929688 21.898438 C 19.929688 20.882812 20.753906 20.058594 21.769531 20.058594 L 34.648438 20.058594 C 35.664062 20.058594 36.488281 20.882812 36.488281 21.898438 Z M 36.488281 30.179688 "/>
<path fill-rule="nonzero" fill="rgb(93.333435%, 93.333435%, 93.333435%)" fill-opacity="1" d="M 20.183594 31.097656 L 36.230469 31.097656 C 36.390625 30.824219 36.488281 30.515625 36.488281 30.175781 L 19.929688 30.175781 C 19.929688 30.515625 20.027344 30.824219 20.183594 31.097656 Z M 19.929688 28.339844 L 36.488281 28.339844 L 36.488281 29.257812 L 19.929688 29.257812 Z M 19.929688 26.5 L 36.488281 26.5 L 36.488281 27.417969 L 19.929688 27.417969 Z M 19.929688 24.660156 L 36.488281 24.660156 L 36.488281 25.578125 L 19.929688 25.578125 Z M 19.929688 22.820312 L 36.488281 22.820312 L 36.488281 23.738281 L 19.929688 23.738281 Z M 20.183594 20.980469 C 20.027344 21.25 19.929688 21.5625 19.929688 21.898438 L 36.488281 21.898438 C 36.488281 21.5625 36.390625 21.25 36.230469 20.980469 Z M 20.183594 20.980469 "/>
<path fill-rule="nonzero" fill="rgb(0.392151%, 0%, 39.99939%)" fill-opacity="1" d="M 28.207031 20.058594 L 21.769531 20.058594 C 20.753906 20.058594 19.929688 20.882812 19.929688 21.898438 L 19.929688 26.5 L 28.207031 26.5 Z M 28.207031 20.058594 "/>
<path fill-rule="nonzero" fill="rgb(100%, 80.000305%, 30.195618%)" fill-opacity="1" d="M 24.316406 25.683594 C 22.984375 25.683594 21.90625 24.609375 21.90625 23.277344 C 21.90625 21.949219 22.984375 20.871094 24.3125 20.871094 C 24.644531 20.871094 24.957031 20.9375 25.242188 21.058594 C 24.785156 20.71875 24.222656 20.519531 23.609375 20.519531 C 22.085938 20.519531 20.851562 21.753906 20.851562 23.277344 C 20.851562 24.800781 22.085938 26.039062 23.609375 26.039062 C 24.222656 26.039062 24.785156 25.835938 25.242188 25.5 C 24.957031 25.617188 24.644531 25.683594 24.316406 25.683594 Z M 24.316406 25.683594 "/>
<path fill-rule="nonzero" fill="rgb(100%, 80.000305%, 30.195618%)" fill-opacity="1" d="M 25.871094 21.820312 L 26.027344 22.566406 L 26.488281 21.960938 L 26.304688 22.699219 L 26.980469 22.355469 L 26.496094 22.9375 L 27.253906 22.921875 L 26.5625 23.238281 L 27.253906 23.554688 L 26.496094 23.539062 L 26.980469 24.121094 L 26.304688 23.777344 L 26.488281 24.515625 L 26.027344 23.910156 L 25.871094 24.65625 L 25.71875 23.910156 L 25.257812 24.515625 L 25.441406 23.777344 L 24.765625 24.121094 L 25.25 23.539062 L 24.492188 23.554688 L 25.183594 23.238281 L 24.492188 22.921875 L 25.25 22.9375 L 24.765625 22.355469 L 25.441406 22.699219 L 25.257812 21.960938 L 25.71875 22.566406 Z M 25.871094 21.820312 "/>
<path fill-rule="nonzero" fill="rgb(93.333435%, 93.333435%, 93.333435%)" fill-opacity="1" d="M 36.488281 52.101562 C 36.488281 53.117188 35.664062 53.941406 34.648438 53.941406 L 21.769531 53.941406 C 20.753906 53.941406 19.929688 53.117188 19.929688 52.101562 L 19.929688 43.820312 C 19.929688 42.804688 20.753906 41.984375 21.769531 41.984375 L 34.648438 41.984375 C 35.664062 41.984375 36.488281 42.804688 36.488281 43.820312 Z M 36.488281 52.101562 "/>
<path fill-rule="nonzero" fill="rgb(92.941284%, 10.588074%, 18.431091%)" fill-opacity="1" d="M 28.207031 51.179688 C 29.988281 51.179688 31.429688 49.738281 31.429688 47.960938 C 31.429688 46.183594 29.988281 44.742188 28.207031 44.742188 C 26.429688 44.742188 24.988281 46.183594 24.988281 47.960938 C 24.988281 49.738281 26.429688 51.179688 28.207031 51.179688 Z M 28.207031 51.179688 "/>
<g clip-path="url(#clip-0)">
<g clip-path="url(#clip-1)">
<path fill-rule="nonzero" fill="rgb(59.216309%, 27.842712%, 100%)" fill-opacity="1" d="M 4.984375 73.371094 C 2.507812 73.371094 0.5 71.363281 0.5 68.886719 L -0.5 68.886719 C -0.5 71.914062 1.957031 74.367188 4.984375 74.367188 Z M 0.5 68.886719 L 0.5 63.574219 L -0.5 63.574219 L -0.5 68.886719 Z M 0.5 58.257812 L 0.5 47.628906 L -0.5 47.628906 L -0.5 58.257812 Z M 0.5 42.316406 L 0.5 31.683594 L -0.5 31.683594 L -0.5 42.316406 Z M 0.5 26.371094 L 0.5 15.742188 L -0.5 15.742188 L -0.5 26.371094 Z M 0.5 10.425781 L 0.5 5.113281 L -0.5 5.113281 L -0.5 10.425781 Z M 0.5 5.113281 C 0.5 2.636719 2.507812 0.628906 4.984375 0.628906 L 4.984375 -0.367188 C 1.957031 -0.367188 -0.5 2.085938 -0.5 5.113281 Z M 4.984375 0.628906 L 10.164062 0.628906 L 10.164062 -0.367188 L 4.984375 -0.367188 Z M 15.347656 0.628906 L 25.710938 0.628906 L 25.710938 -0.367188 L 15.347656 -0.367188 Z M 30.890625 0.628906 L 41.253906 0.628906 L 41.253906 -0.367188 L 30.890625 -0.367188 Z M 46.4375 0.628906 L 51.617188 0.628906 L 51.617188 -0.367188 L 46.4375 -0.367188 Z M 51.617188 0.628906 C 54.09375 0.628906 56.101562 2.636719 56.101562 5.113281 L 57.097656 5.113281 C 57.097656 2.085938 54.644531 -0.367188 51.617188 -0.367188 Z M 56.101562 5.113281 L 56.101562 10.425781 L 57.097656 10.425781 L 57.097656 5.113281 Z M 56.101562 15.742188 L 56.101562 26.371094 L 57.097656 26.371094 L 57.097656 15.742188 Z M 56.101562 31.683594 L 56.101562 42.316406 L 57.097656 42.316406 L 57.097656 31.683594 Z M 56.101562 47.628906 L 56.101562 58.257812 L 57.097656 58.257812 L 57.097656 47.628906 Z M 56.101562 63.574219 L 56.101562 68.886719 L 57.097656 68.886719 L 57.097656 63.574219 Z M 56.101562 68.886719 C 56.101562 71.363281 54.09375 73.371094 51.617188 73.371094 L 51.617188 74.367188 C 54.644531 74.367188 57.097656 71.914062 57.097656 68.886719 Z M 51.617188 73.371094 L 46.4375 73.371094 L 46.4375 74.367188 L 51.617188 74.367188 Z M 41.253906 73.371094 L 30.890625 73.371094 L 30.890625 74.367188 L 41.253906 74.367188 Z M 25.710938 73.371094 L 15.347656 73.371094 L 15.347656 74.367188 L 25.710938 74.367188 Z M 10.164062 73.371094 L 4.984375 73.371094 L 4.984375 74.367188 L 10.164062 74.367188 Z M 4.984375 72.875 C 2.78125 72.875 0.996094 71.089844 0.996094 68.886719 L -0.996094 68.886719 C -0.996094 72.191406 1.679688 74.867188 4.984375 74.867188 Z M 0.996094 68.886719 L 0.996094 63.574219 L -0.996094 63.574219 L -0.996094 68.886719 Z M 0.996094 58.257812 L 0.996094 47.628906 L -0.996094 47.628906 L -0.996094 58.257812 Z M 0.996094 42.316406 L 0.996094 31.683594 L -0.996094 31.683594 L -0.996094 42.316406 Z M 0.996094 26.371094 L 0.996094 15.742188 L -0.996094 15.742188 L -0.996094 26.371094 Z M 0.996094 10.425781 L 0.996094 5.113281 L -0.996094 5.113281 L -0.996094 10.425781 Z M 0.996094 5.113281 C 0.996094 2.910156 2.78125 1.125 4.984375 1.125 L 4.984375 -0.867188 C 1.679688 -0.867188 -0.996094 1.808594 -0.996094 5.113281 Z M 4.984375 1.125 L 10.164062 1.125 L 10.164062 -0.867188 L 4.984375 -0.867188 Z M 15.347656 1.125 L 25.710938 1.125 L 25.710938 -0.867188 L 15.347656 -0.867188 Z M 30.890625 1.125 L 41.253906 1.125 L 41.253906 -0.867188 L 30.890625 -0.867188 Z M 46.4375 1.125 L 51.617188 1.125 L 51.617188 -0.867188 L 46.4375 -0.867188 Z M 51.617188 1.125 C 53.820312 1.125 55.605469 2.910156 55.605469 5.113281 L 57.597656 5.113281 C 57.597656 1.808594 54.921875 -0.867188 51.617188 -0.867188 Z M 55.605469 5.113281 L 55.605469 10.425781 L 57.597656 10.425781 L 57.597656 5.113281 Z M 55.605469 15.742188 L 55.605469 26.371094 L 57.597656 26.371094 L 57.597656 15.742188 Z M 55.605469 31.683594 L 55.605469 42.316406 L 57.597656 42.316406 L 57.597656 31.683594 Z M 55.605469 47.628906 L 55.605469 58.257812 L 57.597656 58.257812 L 57.597656 47.628906 Z M 55.605469 63.574219 L 55.605469 68.886719 L 57.597656 68.886719 L 57.597656 63.574219 Z M 55.605469 68.886719 C 55.605469 71.089844 53.820312 72.875 51.617188 72.875 L 51.617188 74.867188 C 54.921875 74.867188 57.597656 72.191406 57.597656 68.886719 Z M 51.617188 72.875 L 46.4375 72.875 L 46.4375 74.867188 L 51.617188 74.867188 Z M 41.253906 72.875 L 30.890625 72.875 L 30.890625 74.867188 L 41.253906 74.867188 Z M 25.710938 72.875 L 15.347656 72.875 L 15.347656 74.867188 L 25.710938 74.867188 Z M 10.164062 72.875 L 4.984375 72.875 L 4.984375 74.867188 L 10.164062 74.867188 Z M 10.164062 72.875 "/>
</g>
</g>
</svg>
