<?xml version="1.0" encoding="UTF-8"?>
<svg xmlns="http://www.w3.org/2000/svg" xmlns:xlink="http://www.w3.org/1999/xlink" width="1640" height="140" viewBox="0 0 1640 140">
<defs>
<g>
<g id="glyph-0-0">
</g>
<g id="glyph-0-1">
</g>
<g id="glyph-0-2">
</g>
<g id="glyph-0-3">
</g>
<g id="glyph-0-4">
</g>
<g id="glyph-0-5">
</g>
<g id="glyph-0-6">
</g>
<g id="glyph-0-7">
</g>
<g id="glyph-0-8">
</g>
<g id="glyph-0-9">
</g>
<g id="glyph-1-0">
</g>
<g id="glyph-1-1">
</g>
</g>
</defs>
<rect x="-164" y="-14" width="1968" height="168" fill="rgb(100%, 100%, 100%)" fill-opacity="1"/>
<path fill-rule="nonzero" fill="rgb(0%, 0%, 0%)" fill-opacity="1" d="M 63 75 Z M 67.242188 75.167969 C 69.679688 75.167969 71.050781 73.867188 71.050781 71.988281 C 71.050781 70.308594 70.085938 69.414062 68.082031 69.09375 L 67.117188 68.9375 C 66.304688 68.8125 65.953125 68.558594 65.953125 67.886719 C 65.953125 67.300781 66.414062 66.9375 67.367188 66.9375 C 68.375 66.9375 69.007812 67.3125 69.46875 67.859375 L 70.882812 66.433594 C 70.085938 65.550781 68.964844 65.058594 67.492188 65.058594 C 65.199219 65.058594 63.824219 66.277344 63.824219 68.027344 C 63.824219 69.664062 64.765625 70.675781 66.820312 70.941406 L 67.789062 71.066406 C 68.699219 71.191406 68.921875 71.585938 68.921875 72.117188 C 68.921875 72.828125 68.417969 73.292969 67.382812 73.292969 C 66.429688 73.292969 65.589844 72.914062 64.933594 72.171875 L 63.53125 73.585938 C 64.371094 74.511719 65.535156 75.167969 67.242188 75.167969 Z M 71.734375 75 Z M 77.042969 75 L 79.113281 75 L 79.113281 67.648438 L 77.042969 67.648438 L 77.042969 72.425781 C 77.042969 73.125 76.382812 73.488281 75.742188 73.488281 C 74.984375 73.488281 74.691406 72.984375 74.691406 72.089844 L 74.691406 67.648438 L 72.617188 67.648438 L 72.617188 72.269531 C 72.617188 74.117188 73.417969 75.167969 74.914062 75.167969 C 76.117188 75.167969 76.71875 74.511719 76.972656 73.769531 L 77.042969 73.769531 Z M 80.078125 75 Z M 81.042969 77.800781 L 83.113281 77.800781 L 83.113281 73.769531 L 83.183594 73.769531 C 83.394531 74.566406 84.207031 75.167969 85.15625 75.167969 C 87.019531 75.167969 87.984375 73.808594 87.984375 71.316406 C 87.984375 68.824219 87.019531 67.480469 85.15625 67.480469 C 84.207031 67.480469 83.394531 68.070312 83.183594 68.882812 L 83.113281 68.882812 L 83.113281 67.648438 L 81.042969 67.648438 Z M 84.472656 73.488281 C 83.6875 73.488281 83.113281 73.082031 83.113281 72.410156 L 83.113281 70.238281 C 83.113281 69.566406 83.6875 69.160156 84.472656 69.160156 C 85.257812 69.160156 85.832031 69.765625 85.832031 70.6875 L 85.832031 71.960938 C 85.832031 72.886719 85.257812 73.488281 84.472656 73.488281 Z M 88.59375 75 Z M 89.558594 77.800781 L 91.632812 77.800781 L 91.632812 73.769531 L 91.703125 73.769531 C 91.910156 74.566406 92.722656 75.167969 93.675781 75.167969 C 95.539062 75.167969 96.503906 73.808594 96.503906 71.316406 C 96.503906 68.824219 95.539062 67.480469 93.675781 67.480469 C 92.722656 67.480469 91.910156 68.070312 91.703125 68.882812 L 91.632812 68.882812 L 91.632812 67.648438 L 89.558594 67.648438 Z M 92.988281 73.488281 C 92.207031 73.488281 91.632812 73.082031 91.632812 72.410156 L 91.632812 70.238281 C 91.632812 69.566406 92.207031 69.160156 92.988281 69.160156 C 93.773438 69.160156 94.347656 69.765625 94.347656 70.6875 L 94.347656 71.960938 C 94.347656 72.886719 93.773438 73.488281 92.988281 73.488281 Z M 97.109375 75 Z M 101.058594 75.167969 C 103.214844 75.167969 104.503906 73.683594 104.503906 71.316406 C 104.503906 68.953125 103.214844 67.480469 101.058594 67.480469 C 98.902344 67.480469 97.617188 68.953125 97.617188 71.316406 C 97.617188 73.683594 98.902344 75.167969 101.058594 75.167969 Z M 101.058594 73.53125 C 100.246094 73.53125 99.769531 72.996094 99.769531 72.074219 L 99.769531 70.574219 C 99.769531 69.652344 100.246094 69.121094 101.058594 69.121094 C 101.871094 69.121094 102.347656 69.652344 102.347656 70.574219 L 102.347656 72.074219 C 102.347656 72.996094 101.871094 73.53125 101.058594 73.53125 Z M 105.015625 75 Z M 108.050781 75 L 108.050781 70.703125 C 108.050781 69.847656 108.640625 69.582031 109.84375 69.582031 L 110.363281 69.582031 L 110.363281 67.648438 L 109.996094 67.648438 C 108.851562 67.648438 108.289062 68.433594 108.121094 69.246094 L 108.050781 69.246094 L 108.050781 67.648438 L 105.980469 67.648438 L 105.980469 75 Z M 110.730469 75 Z M 115.503906 75 L 115.503906 73.390625 L 114.160156 73.390625 L 114.160156 69.261719 L 115.613281 69.261719 L 115.613281 67.648438 L 114.160156 67.648438 L 114.160156 65.660156 L 112.296875 65.660156 L 112.296875 66.867188 C 112.296875 67.371094 112.128906 67.648438 111.570312 67.648438 L 111.050781 67.648438 L 111.050781 69.261719 L 112.085938 69.261719 L 112.085938 72.859375 C 112.085938 74.257812 112.84375 75 114.269531 75 Z M 116.03125 75 Z M 120.066406 75.167969 C 121.410156 75.167969 122.488281 74.707031 123.144531 73.949219 L 122.109375 72.660156 C 121.648438 73.136719 121.171875 73.542969 120.304688 73.542969 C 119.195312 73.542969 118.679688 72.929688 118.679688 71.960938 L 118.679688 71.851562 L 123.398438 71.851562 L 123.398438 71.234375 C 123.398438 69.246094 122.417969 67.480469 119.980469 67.480469 C 117.769531 67.480469 116.539062 68.992188 116.539062 71.316406 C 116.539062 73.671875 117.8125 75.167969 120.066406 75.167969 Z M 120.023438 69.007812 C 120.847656 69.007812 121.253906 69.609375 121.253906 70.507812 L 121.253906 70.632812 L 118.679688 70.632812 L 118.679688 70.519531 C 118.679688 69.609375 119.195312 69.007812 120.023438 69.007812 Z M 123.894531 75 Z M 126.933594 75 L 126.933594 70.703125 C 126.933594 69.847656 127.519531 69.582031 128.722656 69.582031 L 129.242188 69.582031 L 129.242188 67.648438 L 128.878906 67.648438 C 127.730469 67.648438 127.171875 68.433594 127.003906 69.246094 L 126.933594 69.246094 L 126.933594 67.648438 L 124.859375 67.648438 L 124.859375 75 Z M 132.863281 75 Z M 137.105469 75.167969 C 139.542969 75.167969 140.914062 73.867188 140.914062 71.988281 C 140.914062 70.308594 139.949219 69.414062 137.945312 69.09375 L 136.980469 68.9375 C 136.167969 68.8125 135.816406 68.558594 135.816406 67.886719 C 135.816406 67.300781 136.277344 66.9375 137.230469 66.9375 C 138.238281 66.9375 138.871094 67.3125 139.332031 67.859375 L 140.746094 66.433594 C 139.949219 65.550781 138.828125 65.058594 137.355469 65.058594 C 135.0625 65.058594 133.6875 66.277344 133.6875 68.027344 C 133.6875 69.664062 134.628906 70.675781 136.683594 70.941406 L 137.652344 71.066406 C 138.5625 71.191406 138.785156 71.585938 138.785156 72.117188 C 138.785156 72.828125 138.28125 73.292969 137.246094 73.292969 C 136.292969 73.292969 135.453125 72.914062 134.796875 72.171875 L 133.394531 73.585938 C 134.234375 74.511719 135.398438 75.167969 137.105469 75.167969 Z M 141.53125 75 Z M 146.304688 75 L 146.304688 73.390625 L 144.960938 73.390625 L 144.960938 69.261719 L 146.417969 69.261719 L 146.417969 67.648438 L 144.960938 67.648438 L 144.960938 65.660156 L 143.097656 65.660156 L 143.097656 66.867188 C 143.097656 67.371094 142.929688 67.648438 142.371094 67.648438 L 141.851562 67.648438 L 141.851562 69.261719 L 142.890625 69.261719 L 142.890625 72.859375 C 142.890625 74.257812 143.644531 75 145.074219 75 Z M 146.890625 75 Z M 154.4375 75 L 154.4375 73.390625 L 153.75 73.390625 L 153.75 70.171875 C 153.75 68.433594 152.6875 67.480469 150.613281 67.480469 C 149.074219 67.480469 148.234375 68.015625 147.648438 68.882812 L 148.878906 69.972656 C 149.199219 69.527344 149.632812 69.105469 150.460938 69.105469 C 151.328125 69.105469 151.679688 69.554688 151.679688 70.269531 L 151.679688 70.730469 L 150.515625 70.730469 C 148.570312 70.730469 147.367188 71.472656 147.367188 73.027344 C 147.367188 74.300781 148.179688 75.167969 149.648438 75.167969 C 150.769531 75.167969 151.582031 74.664062 151.804688 73.710938 L 151.886719 73.710938 C 152.015625 74.496094 152.546875 75 153.289062 75 Z M 150.417969 73.726562 C 149.800781 73.726562 149.453125 73.472656 149.453125 72.941406 L 149.453125 72.730469 C 149.453125 72.199219 149.871094 71.90625 150.671875 71.90625 L 151.679688 71.90625 L 151.679688 72.773438 C 151.679688 73.445312 151.105469 73.726562 150.417969 73.726562 Z M 154.78125 75 Z M 159.554688 75 L 159.554688 73.390625 L 158.210938 73.390625 L 158.210938 69.261719 L 159.664062 69.261719 L 159.664062 67.648438 L 158.210938 67.648438 L 158.210938 65.660156 L 156.347656 65.660156 L 156.347656 66.867188 C 156.347656 67.371094 156.179688 67.648438 155.621094 67.648438 L 155.101562 67.648438 L 155.101562 69.261719 L 156.136719 69.261719 L 156.136719 72.859375 C 156.136719 74.257812 156.894531 75 158.320312 75 Z M 160.140625 75 Z M 165.445312 75 L 167.515625 75 L 167.515625 67.648438 L 165.445312 67.648438 L 165.445312 72.425781 C 165.445312 73.125 164.785156 73.488281 164.144531 73.488281 C 163.386719 73.488281 163.09375 72.984375 163.09375 72.089844 L 163.09375 67.648438 L 161.019531 67.648438 L 161.019531 72.269531 C 161.019531 74.117188 161.820312 75.167969 163.316406 75.167969 C 164.519531 75.167969 165.121094 74.511719 165.375 73.769531 L 165.445312 73.769531 Z M 168.480469 75 Z M 171.9375 75.167969 C 173.828125 75.167969 175.085938 74.132812 175.085938 72.71875 C 175.085938 71.445312 174.261719 70.714844 172.664062 70.507812 L 171.839844 70.394531 C 171.238281 70.308594 171.070312 70.101562 171.070312 69.707031 C 171.070312 69.34375 171.347656 69.09375 172.046875 69.09375 C 172.664062 69.09375 173.28125 69.386719 173.742188 69.847656 L 174.933594 68.628906 C 174.191406 67.902344 173.476562 67.480469 171.9375 67.480469 C 170.1875 67.480469 169.082031 68.460938 169.082031 69.875 C 169.082031 71.207031 169.890625 71.933594 171.558594 72.144531 L 172.355469 72.242188 C 172.875 72.3125 173.097656 72.492188 173.097656 72.859375 C 173.097656 73.292969 172.820312 73.558594 172.007812 73.558594 C 171.207031 73.558594 170.578125 73.195312 170.058594 72.621094 L 168.84375 73.851562 C 169.597656 74.691406 170.523438 75.167969 171.9375 75.167969 Z M 171.9375 75.167969 "/>
<path fill-rule="nonzero" fill="rgb(92.156982%, 32.940674%, 61.177063%)" fill-opacity="1" d="M 319 41 L 329 41 C 333.417969 41 337 44.582031 337 49 C 337 53.417969 333.417969 57 329 57 L 319 57 C 314.582031 57 311 53.417969 311 49 C 311 44.582031 314.582031 41 319 41 Z M 319 41 "/>
<path fill-rule="nonzero" fill="rgb(100%, 100%, 100%)" fill-opacity="1" d="M 318.9375 52 Z M 323.769531 48.535156 L 321.855469 46.53125 C 321.292969 45.953125 321.328125 44.984375 321.960938 44.441406 C 322.488281 43.96875 323.296875 44.054688 323.789062 44.582031 L 324 44.777344 L 324.191406 44.582031 C 324.6875 44.054688 325.496094 43.96875 326.039062 44.441406 C 326.65625 44.984375 326.6875 45.953125 326.125 46.53125 L 324.210938 48.535156 C 324.089844 48.660156 323.894531 48.660156 323.769531 48.535156 Z M 328.871094 49.90625 C 329.132812 50.136719 329.113281 50.539062 328.851562 50.75 L 326.179688 52.878906 C 325.984375 53.054688 325.738281 53.125 325.476562 53.125 L 319.21875 53.125 C 319.0625 53.125 318.9375 53 318.9375 52.84375 L 318.9375 51.15625 C 318.9375 51.015625 319.0625 50.875 319.21875 50.875 L 320.1875 50.875 L 320.996094 50.222656 C 321.363281 49.925781 321.839844 49.75 322.3125 49.75 L 325.125 49.75 C 325.457031 49.75 325.722656 50.066406 325.671875 50.417969 C 325.636719 50.699219 325.371094 50.875 325.089844 50.875 L 323.71875 50.875 C 323.5625 50.875 323.4375 51.015625 323.4375 51.15625 C 323.4375 51.3125 323.5625 51.4375 323.71875 51.4375 L 325.792969 51.4375 C 326.039062 51.4375 326.300781 51.367188 326.496094 51.191406 L 328.113281 49.90625 C 328.34375 49.734375 328.65625 49.714844 328.871094 49.90625 Z M 328.871094 49.90625 "/>
<path fill-rule="nonzero" fill="rgb(92.156982%, 32.940674%, 61.177063%)" fill-opacity="1" d="M 275 41 L 279 41 C 283.417969 41 287 44.582031 287 49 C 287 53.417969 283.417969 57 279 57 L 275 57 C 270.582031 57 267 53.417969 267 49 C 267 44.582031 270.582031 41 275 41 Z M 275 41 "/>
<path fill-rule="nonzero" fill="rgb(100%, 100%, 100%)" fill-opacity="1" d="M 272.5 52 Z M 280.621094 45.230469 C 281.730469 46.179688 281.78125 47.867188 280.796875 48.886719 L 277.386719 52.402344 C 277.175781 52.632812 276.808594 52.632812 276.59375 52.402344 L 273.1875 48.886719 C 272.203125 47.867188 272.253906 46.179688 273.359375 45.230469 C 274.328125 44.40625 275.769531 44.5625 276.648438 45.476562 L 277 45.828125 L 277.332031 45.476562 C 278.230469 44.5625 279.65625 44.40625 280.621094 45.230469 Z M 280.621094 45.230469 "/>
<path fill-rule="nonzero" fill="rgb(92.156982%, 32.940674%, 61.177063%)" fill-opacity="1" d="M 271 59 L 283 59 C 287.417969 59 291 62.582031 291 67 C 291 71.417969 287.417969 75 283 75 L 271 75 C 266.582031 75 263 71.417969 263 67 C 263 62.582031 266.582031 59 271 59 Z M 271 59 "/>
<path fill-rule="nonzero" fill="rgb(100%, 100%, 100%)" fill-opacity="1" d="M 268 70 Z M 276.121094 63.230469 C 277.230469 64.179688 277.28125 65.867188 276.296875 66.886719 L 272.886719 70.402344 C 272.675781 70.632812 272.308594 70.632812 272.09375 70.402344 L 268.6875 66.886719 C 267.703125 65.867188 267.753906 64.179688 268.859375 63.230469 C 269.828125 62.40625 271.269531 62.5625 272.148438 63.476562 L 272.5 63.828125 L 272.832031 63.476562 C 273.730469 62.5625 275.15625 62.40625 276.121094 63.230469 Z M 277 70 Z M 285.121094 63.230469 C 286.230469 64.179688 286.28125 65.867188 285.296875 66.886719 L 281.886719 70.402344 C 281.675781 70.632812 281.308594 70.632812 281.09375 70.402344 L 277.6875 66.886719 C 276.703125 65.867188 276.753906 64.179688 277.859375 63.230469 C 278.828125 62.40625 280.269531 62.5625 281.148438 63.476562 L 281.5 63.828125 L 281.832031 63.476562 C 282.730469 62.5625 284.15625 62.40625 285.121094 63.230469 Z M 285.121094 63.230469 "/>
<path fill-rule="nonzero" fill="rgb(92.156982%, 32.940674%, 61.177063%)" fill-opacity="1" d="M 266 77 L 288 77 C 292.417969 77 296 80.582031 296 85 C 296 89.417969 292.417969 93 288 93 L 266 93 C 261.582031 93 258 89.417969 258 85 C 258 80.582031 261.582031 77 266 77 Z M 266 77 "/>
<path fill-rule="nonzero" fill="rgb(100%, 100%, 100%)" fill-opacity="1" d="M 263.5 88 Z M 271.621094 81.230469 C 272.730469 82.179688 272.78125 83.867188 271.796875 84.886719 L 268.386719 88.402344 C 268.175781 88.632812 267.808594 88.632812 267.59375 88.402344 L 264.1875 84.886719 C 263.203125 83.867188 263.253906 82.179688 264.359375 81.230469 C 265.328125 80.40625 266.769531 80.5625 267.648438 81.476562 L 268 81.828125 L 268.332031 81.476562 C 269.230469 80.5625 270.65625 80.40625 271.621094 81.230469 Z M 272.5 88 Z M 280.621094 81.230469 C 281.730469 82.179688 281.78125 83.867188 280.796875 84.886719 L 277.386719 88.402344 C 277.175781 88.632812 276.808594 88.632812 276.59375 88.402344 L 273.1875 84.886719 C 272.203125 83.867188 272.253906 82.179688 273.359375 81.230469 C 274.328125 80.40625 275.769531 80.5625 276.648438 81.476562 L 277 81.828125 L 277.332031 81.476562 C 278.230469 80.5625 279.65625 80.40625 280.621094 81.230469 Z M 281.5 88 Z M 289.621094 81.230469 C 290.730469 82.179688 290.78125 83.867188 289.796875 84.886719 L 286.386719 88.402344 C 286.175781 88.632812 285.808594 88.632812 285.59375 88.402344 L 282.1875 84.886719 C 281.203125 83.867188 281.253906 82.179688 282.359375 81.230469 C 283.328125 80.40625 284.769531 80.5625 285.648438 81.476562 L 286 81.828125 L 286.332031 81.476562 C 287.230469 80.5625 288.65625 80.40625 289.621094 81.230469 Z M 289.621094 81.230469 "/>
<g fill="rgb(0%, 0%, 0%)" fill-opacity="1">
<use xlink:href="#glyph-0-0" x="63" y="75"/>
</g>
<g fill="rgb(0%, 0%, 0%)" fill-opacity="1">
<use xlink:href="#glyph-0-1" x="71.736" y="75"/>
</g>
<g fill="rgb(0%, 0%, 0%)" fill-opacity="1">
<use xlink:href="#glyph-0-2" x="80.08" y="75"/>
</g>
<g fill="rgb(0%, 0%, 0%)" fill-opacity="1">
<use xlink:href="#glyph-0-2" x="88.592" y="75"/>
</g>
<g fill="rgb(0%, 0%, 0%)" fill-opacity="1">
<use xlink:href="#glyph-0-3" x="97.104" y="75"/>
</g>
<g fill="rgb(0%, 0%, 0%)" fill-opacity="1">
<use xlink:href="#glyph-0-4" x="105" y="75"/>
</g>
<g fill="rgb(0%, 0%, 0%)" fill-opacity="1">
<use xlink:href="#glyph-0-5" x="110.714846" y="75"/>
</g>
<g fill="rgb(0%, 0%, 0%)" fill-opacity="1">
<use xlink:href="#glyph-0-6" x="116.019534" y="75"/>
</g>
<g fill="rgb(0%, 0%, 0%)" fill-opacity="1">
<use xlink:href="#glyph-0-4" x="123.887534" y="75"/>
</g>
<g fill="rgb(0%, 0%, 0%)" fill-opacity="1">
<use xlink:href="#glyph-0-7" x="129.543534" y="75"/>
</g>
<g fill="rgb(0%, 0%, 0%)" fill-opacity="1">
<use xlink:href="#glyph-0-0" x="132.847534" y="75"/>
</g>
<g fill="rgb(0%, 0%, 0%)" fill-opacity="1">
<use xlink:href="#glyph-0-5" x="141.515502" y="75"/>
</g>
<g fill="rgb(0%, 0%, 0%)" fill-opacity="1">
<use xlink:href="#glyph-0-8" x="146.877502" y="75"/>
</g>
<g fill="rgb(0%, 0%, 0%)" fill-opacity="1">
<use xlink:href="#glyph-0-5" x="154.766171" y="75"/>
</g>
<g fill="rgb(0%, 0%, 0%)" fill-opacity="1">
<use xlink:href="#glyph-0-1" x="160.128171" y="75"/>
</g>
<g fill="rgb(0%, 0%, 0%)" fill-opacity="1">
<use xlink:href="#glyph-0-9" x="168.472171" y="75"/>
</g>
<g fill="rgb(0%, 0%, 0%)" fill-opacity="1">
<use xlink:href="#glyph-1-0" x="272.5" y="52"/>
</g>
<g fill="rgb(0%, 0%, 0%)" fill-opacity="1">
<use xlink:href="#glyph-1-0" x="268" y="70"/>
</g>
<g fill="rgb(0%, 0%, 0%)" fill-opacity="1">
<use xlink:href="#glyph-1-0" x="277" y="70"/>
</g>
<g fill="rgb(0%, 0%, 0%)" fill-opacity="1">
<use xlink:href="#glyph-1-0" x="263.5" y="88"/>
</g>
<g fill="rgb(0%, 0%, 0%)" fill-opacity="1">
<use xlink:href="#glyph-1-0" x="272.5" y="88"/>
</g>
<g fill="rgb(0%, 0%, 0%)" fill-opacity="1">
<use xlink:href="#glyph-1-0" x="281.5" y="88"/>
</g>
<g fill="rgb(0%, 0%, 0%)" fill-opacity="1">
<use xlink:href="#glyph-1-1" x="318.9375" y="52"/>
</g>
</svg>
