<?xml version="1.0" encoding="UTF-8"?>
<svg xmlns="http://www.w3.org/2000/svg" xmlns:xlink="http://www.w3.org/1999/xlink" width="20.824402" height="20.490479" viewBox="0 0 20.824402 20.490479">
<defs>
<clipPath id="clip-0">
<path clip-rule="nonzero" d="M 0.167969 0 L 20.484375 0 L 20.484375 19.992188 L 0.167969 19.992188 Z M 0.167969 0 "/>
</clipPath>
</defs>
<g clip-path="url(#clip-0)">
<path fill-rule="nonzero" fill="rgb(0%, 0%, 0%)" fill-opacity="1" d="M 13.898438 2.925781 C 13.496094 2.925781 13.167969 3.253906 13.167969 3.660156 C 13.167969 4.0625 13.496094 4.390625 13.898438 4.390625 Z M 19.753906 4.390625 C 20.160156 4.390625 20.484375 4.0625 20.484375 3.660156 C 20.484375 3.253906 20.160156 2.925781 19.753906 2.925781 Z M 17.558594 0.730469 C 17.558594 0.328125 17.230469 0 16.828125 0 C 16.421875 0 16.09375 0.328125 16.09375 0.730469 Z M 16.09375 6.585938 C 16.09375 6.992188 16.421875 7.316406 16.828125 7.316406 C 17.230469 7.316406 17.558594 6.992188 17.558594 6.585938 Z M 14.699219 12.761719 L 14.152344 12.273438 L 14.152344 12.277344 Z M 9.503906 18.605469 L 8.957031 18.121094 Z M 6.585938 18.605469 L 7.132812 18.121094 Z M 1.390625 12.761719 L 1.9375 12.277344 L 1.9375 12.273438 Z M 0.898438 11.464844 L 1.628906 11.464844 Z M 1.390625 10.167969 L 1.9375 10.65625 Z M 6.585938 4.324219 L 7.132812 4.808594 Z M 9.503906 4.324219 L 8.957031 4.808594 Z M 14.699219 10.167969 L 14.152344 10.65625 Z M 13.898438 4.390625 L 16.828125 4.390625 L 16.828125 2.925781 L 13.898438 2.925781 Z M 19.753906 2.925781 L 16.828125 2.925781 L 16.828125 4.390625 L 19.753906 4.390625 Z M 17.558594 3.660156 L 17.558594 0.730469 L 16.09375 0.730469 L 16.09375 3.660156 Z M 16.09375 3.660156 L 16.09375 6.585938 L 17.558594 6.585938 L 17.558594 3.660156 Z M 14.152344 12.277344 L 8.957031 18.121094 L 10.050781 19.09375 L 15.246094 13.246094 Z M 8.957031 18.121094 C 8.84375 18.25 8.703125 18.351562 8.546875 18.421875 L 9.144531 19.757812 C 9.492188 19.601562 9.800781 19.375 10.050781 19.09375 Z M 8.546875 18.421875 C 8.386719 18.492188 8.21875 18.53125 8.046875 18.53125 L 8.046875 19.992188 C 8.425781 19.992188 8.800781 19.914062 9.144531 19.757812 Z M 8.046875 18.53125 C 7.875 18.53125 7.703125 18.492188 7.546875 18.421875 L 6.945312 19.757812 C 7.292969 19.914062 7.667969 19.992188 8.046875 19.992188 Z M 7.546875 18.421875 C 7.386719 18.351562 7.25 18.25 7.132812 18.121094 L 6.039062 19.09375 C 6.292969 19.375 6.601562 19.601562 6.945312 19.757812 Z M 7.132812 18.121094 L 1.9375 12.277344 L 0.84375 13.246094 L 6.039062 19.09375 Z M 1.9375 12.273438 C 1.742188 12.050781 1.628906 11.765625 1.628906 11.464844 L 0.167969 11.464844 C 0.167969 12.121094 0.410156 12.757812 0.84375 13.246094 Z M 1.628906 11.464844 C 1.628906 11.167969 1.742188 10.878906 1.9375 10.65625 L 0.84375 9.683594 C 0.410156 10.171875 0.167969 10.808594 0.167969 11.464844 Z M 1.9375 10.65625 L 7.132812 4.808594 L 6.039062 3.835938 L 0.84375 9.683594 Z M 7.132812 4.808594 C 7.25 4.679688 7.386719 4.578125 7.546875 4.507812 L 6.945312 3.171875 C 6.601562 3.328125 6.292969 3.554688 6.039062 3.835938 Z M 7.546875 4.507812 C 7.703125 4.4375 7.875 4.398438 8.046875 4.398438 L 8.046875 2.9375 C 7.667969 2.9375 7.292969 3.015625 6.945312 3.171875 Z M 8.046875 4.398438 C 8.21875 4.398438 8.386719 4.4375 8.546875 4.507812 L 9.144531 3.171875 C 8.800781 3.015625 8.425781 2.9375 8.046875 2.9375 Z M 8.546875 4.507812 C 8.703125 4.578125 8.84375 4.679688 8.957031 4.808594 L 10.050781 3.835938 C 9.800781 3.554688 9.492188 3.328125 9.144531 3.171875 Z M 8.957031 4.808594 L 14.152344 10.65625 L 15.246094 9.683594 L 10.050781 3.835938 Z M 14.152344 10.65625 C 14.351562 10.878906 14.460938 11.167969 14.460938 11.464844 L 15.925781 11.464844 C 15.925781 10.808594 15.683594 10.171875 15.246094 9.683594 Z M 14.460938 11.464844 C 14.460938 11.765625 14.351562 12.050781 14.152344 12.273438 L 15.246094 13.246094 C 15.683594 12.757812 15.925781 12.121094 15.925781 11.464844 Z M 14.460938 11.464844 "/>
</g>
</svg>
