<?xml version="1.0" encoding="UTF-8"?>
<svg xmlns="http://www.w3.org/2000/svg" xmlns:xlink="http://www.w3.org/1999/xlink" width="19.500122" height="20.122375" viewBox="0 0 19.500122 20.122375">
<defs>
<clipPath id="clip-0">
<path clip-rule="nonzero" d="M 0.167969 0 L 18.851562 0 L 18.851562 19.28125 L 0.167969 19.28125 Z M 0.167969 0 "/>
</clipPath>
</defs>
<g clip-path="url(#clip-0)">
<path fill-rule="nonzero" fill="rgb(0%, 0%, 0%)" fill-opacity="1" d="M 17.273438 15.144531 L 17.628906 14.519531 Z M 18.132812 14.644531 L 18.851562 14.648438 L 18.851562 14.644531 Z M 18.132812 1.292969 L 17.414062 1.292969 Z M 17.273438 0.796875 L 17.628906 1.417969 Z M 0.886719 7.96875 L 0.167969 7.96875 Z M 4.71875 4.136719 L 4.71875 3.417969 Z M 5.445312 16.882812 L 4.734375 16.984375 L 4.734375 16.992188 Z M 8.550781 11.804688 L 9.265625 11.703125 L 9.175781 11.085938 L 8.550781 11.085938 Z M 9.199219 16.34375 L 9.914062 16.25 L 9.914062 16.242188 Z M 12.144531 11.804688 L 12.144531 4.136719 L 10.707031 4.136719 L 10.707031 11.804688 Z M 11.070312 12.425781 L 16.917969 15.769531 L 17.628906 14.519531 L 11.785156 11.179688 Z M 16.917969 15.769531 C 17.113281 15.878906 17.335938 15.941406 17.5625 15.9375 L 17.558594 14.5 C 17.585938 14.5 17.609375 14.507812 17.628906 14.519531 Z M 17.5625 15.9375 C 17.789062 15.9375 18.011719 15.878906 18.207031 15.765625 L 17.488281 14.519531 C 17.507812 14.507812 17.535156 14.5 17.558594 14.5 Z M 18.207031 15.765625 C 18.402344 15.652344 18.566406 15.488281 18.679688 15.292969 L 17.433594 14.574219 C 17.449219 14.550781 17.464844 14.535156 17.488281 14.519531 Z M 18.679688 15.292969 C 18.792969 15.097656 18.851562 14.875 18.851562 14.648438 L 17.414062 14.644531 C 17.414062 14.621094 17.421875 14.59375 17.433594 14.574219 Z M 18.851562 14.644531 L 18.851562 1.292969 L 17.414062 1.292969 L 17.414062 14.644531 Z M 18.851562 1.292969 C 18.851562 1.066406 18.792969 0.84375 18.679688 0.648438 L 17.433594 1.367188 C 17.421875 1.34375 17.414062 1.320312 17.414062 1.292969 Z M 18.679688 0.648438 C 18.566406 0.453125 18.40625 0.289062 18.207031 0.175781 L 17.488281 1.417969 C 17.464844 1.40625 17.449219 1.386719 17.433594 1.367188 Z M 18.207031 0.175781 C 18.011719 0.0625 17.789062 0 17.5625 0 L 17.558594 1.4375 C 17.535156 1.4375 17.507812 1.429688 17.488281 1.417969 Z M 17.5625 0 C 17.335938 0 17.113281 0.0585938 16.917969 0.171875 L 17.628906 1.417969 C 17.609375 1.429688 17.585938 1.4375 17.558594 1.4375 Z M 16.917969 0.171875 L 11.070312 3.511719 L 11.785156 4.761719 L 17.628906 1.417969 Z M 11.425781 11.085938 L 4.71875 11.085938 L 4.71875 12.523438 L 11.425781 12.523438 Z M 4.71875 11.085938 C 3.894531 11.085938 3.101562 10.757812 2.515625 10.171875 L 1.5 11.1875 C 2.355469 12.042969 3.511719 12.523438 4.71875 12.523438 Z M 2.515625 10.171875 C 1.933594 9.589844 1.605469 8.796875 1.605469 7.96875 L 0.167969 7.96875 C 0.167969 9.175781 0.648438 10.335938 1.5 11.1875 Z M 1.605469 7.96875 C 1.605469 7.144531 1.933594 6.351562 2.515625 5.769531 L 1.5 4.75 C 0.648438 5.605469 0.167969 6.761719 0.167969 7.96875 Z M 2.515625 5.769531 C 3.101562 5.183594 3.894531 4.855469 4.71875 4.855469 L 4.71875 3.417969 C 3.511719 3.417969 2.355469 3.898438 1.5 4.75 Z M 4.71875 4.855469 L 11.425781 4.855469 L 11.425781 3.417969 L 4.71875 3.417969 Z M 6.15625 16.78125 L 5.429688 11.703125 L 4.007812 11.90625 L 4.734375 16.984375 Z M 4.71875 12.523438 L 8.550781 12.523438 L 8.550781 11.085938 L 4.71875 11.085938 Z M 7.839844 11.90625 L 8.488281 16.445312 L 9.914062 16.242188 L 9.265625 11.703125 Z M 8.488281 16.441406 C 8.53125 16.746094 8.445312 17.058594 8.257812 17.304688 L 9.40625 18.175781 C 9.820312 17.625 10.003906 16.933594 9.914062 16.25 Z M 8.257812 17.304688 C 8.070312 17.554688 7.792969 17.71875 7.488281 17.761719 L 7.691406 19.183594 C 8.371094 19.085938 8.988281 18.722656 9.40625 18.175781 Z M 7.488281 17.761719 C 7.179688 17.804688 6.867188 17.726562 6.617188 17.539062 L 5.761719 18.695312 C 6.316406 19.105469 7.007812 19.28125 7.691406 19.183594 Z M 6.617188 17.539062 C 6.367188 17.355469 6.203125 17.078125 6.15625 16.773438 L 4.734375 16.992188 C 4.839844 17.671875 5.207031 18.285156 5.761719 18.695312 Z M 6.617188 17.539062 "/>
</g>
</svg>
