<?xml version="1.0" encoding="UTF-8"?>
<svg xmlns="http://www.w3.org/2000/svg" xmlns:xlink="http://www.w3.org/1999/xlink" width="21.5" height="21.5" viewBox="0 0 21.5 21.5">
<defs>
<clipPath id="clip-0">
<path clip-rule="nonzero" d="M 0 5 L 16 5 L 16 21.011719 L 0 21.011719 Z M 0 5 "/>
</clipPath>
<clipPath id="clip-1">
<path clip-rule="nonzero" d="M 5 0 L 21.011719 0 L 21.011719 16 L 5 16 Z M 5 0 "/>
</clipPath>
</defs>
<g clip-path="url(#clip-0)">
<path fill-rule="nonzero" fill="rgb(0%, 0%, 0%)" fill-opacity="1" d="M 7.574219 20.277344 L 7.574219 19.546875 Z M 7.574219 6.597656 L 7.574219 5.863281 Z M 0.734375 13.4375 L 0 13.4375 Z M 7.574219 21.011719 C 9.582031 21.011719 11.507812 20.214844 12.929688 18.792969 L 11.894531 17.757812 C 10.746094 18.902344 9.195312 19.546875 7.574219 19.546875 Z M 12.929688 18.792969 C 14.351562 17.371094 15.148438 15.445312 15.148438 13.4375 L 13.683594 13.4375 C 13.683594 15.058594 13.039062 16.609375 11.894531 17.757812 Z M 15.148438 13.4375 C 15.148438 11.429688 14.351562 9.503906 12.929688 8.082031 L 11.894531 9.117188 C 13.039062 10.265625 13.683594 11.816406 13.683594 13.4375 Z M 12.929688 8.082031 C 11.507812 6.660156 9.582031 5.863281 7.574219 5.863281 L 7.574219 7.328125 C 9.195312 7.328125 10.746094 7.972656 11.894531 9.117188 Z M 7.574219 5.863281 C 5.566406 5.863281 3.640625 6.660156 2.21875 8.082031 L 3.253906 9.117188 C 4.398438 7.972656 5.953125 7.328125 7.574219 7.328125 Z M 2.21875 8.082031 C 0.796875 9.503906 0 11.429688 0 13.4375 L 1.464844 13.4375 C 1.464844 11.816406 2.109375 10.265625 3.253906 9.117188 Z M 0 13.4375 C 0 15.445312 0.796875 17.371094 2.21875 18.792969 L 3.253906 17.757812 C 2.109375 16.609375 1.464844 15.058594 1.464844 13.4375 Z M 2.21875 18.792969 C 3.640625 20.214844 5.566406 21.011719 7.574219 21.011719 L 7.574219 19.546875 C 5.953125 19.546875 4.398438 18.902344 3.253906 17.757812 Z M 2.21875 18.792969 "/>
</g>
<g clip-path="url(#clip-1)">
<path fill-rule="nonzero" fill="rgb(0%, 0%, 0%)" fill-opacity="1" d="M 13.4375 14.414062 L 13.4375 15.148438 Z M 13.4375 0.734375 L 13.4375 0 Z M 6.597656 7.574219 L 5.863281 7.574219 Z M 13.4375 15.148438 C 15.445312 15.148438 17.371094 14.351562 18.792969 12.929688 L 17.757812 11.894531 C 16.609375 13.039062 15.058594 13.683594 13.4375 13.683594 Z M 18.792969 12.929688 C 20.214844 11.507812 21.011719 9.582031 21.011719 7.574219 L 19.546875 7.574219 C 19.546875 9.195312 18.902344 10.746094 17.757812 11.894531 Z M 21.011719 7.574219 C 21.011719 5.566406 20.214844 3.640625 18.792969 2.21875 L 17.757812 3.253906 C 18.902344 4.398438 19.546875 5.953125 19.546875 7.574219 Z M 18.792969 2.21875 C 17.371094 0.796875 15.445312 0 13.4375 0 L 13.4375 1.464844 C 15.058594 1.464844 16.609375 2.109375 17.757812 3.253906 Z M 13.4375 0 C 11.429688 0 9.503906 0.796875 8.082031 2.21875 L 9.117188 3.253906 C 10.265625 2.109375 11.816406 1.464844 13.4375 1.464844 Z M 8.082031 2.21875 C 6.660156 3.640625 5.863281 5.566406 5.863281 7.574219 L 7.328125 7.574219 C 7.328125 5.953125 7.972656 4.398438 9.117188 3.253906 Z M 5.863281 7.574219 C 5.863281 9.582031 6.660156 11.507812 8.082031 12.929688 L 9.117188 11.894531 C 7.972656 10.746094 7.328125 9.195312 7.328125 7.574219 Z M 8.082031 12.929688 C 9.503906 14.351562 11.429688 15.148438 13.4375 15.148438 L 13.4375 13.683594 C 11.816406 13.683594 10.265625 13.039062 9.117188 11.894531 Z M 8.082031 12.929688 "/>
</g>
</svg>
