<?xml version="1.0" encoding="UTF-8"?>
<svg xmlns="http://www.w3.org/2000/svg" xmlns:xlink="http://www.w3.org/1999/xlink" width="70" height="120" viewBox="0 0 70 120">
<defs>
<clipPath id="clip-0">
<path clip-rule="nonzero" d="M 5 0 L 65 0 C 67.761719 0 70 2.238281 70 5 L 70 115 C 70 117.761719 67.761719 120 65 120 L 5 120 C 2.238281 120 0 117.761719 0 115 L 0 5 C 0 2.238281 2.238281 0 5 0 Z M 5 0 "/>
</clipPath>
</defs>
<path fill-rule="nonzero" fill="rgb(13.33313%, 16.470337%, 15.686035%)" fill-opacity="0.8" d="M 35 20 C 43.285156 20 50 26.714844 50 35 C 50 43.285156 43.285156 50 35 50 C 26.714844 50 20 43.285156 20 35 C 20 26.714844 26.714844 20 35 20 Z M 35 20 "/>
<path fill-rule="nonzero" fill="rgb(100%, 100%, 100%)" fill-opacity="1" d="M 38.726562 32.109375 C 38.96875 32.351562 39.363281 32.351562 39.609375 32.109375 C 39.851562 31.863281 39.851562 31.46875 39.609375 31.226562 Z M 35 27.5 L 35.441406 27.058594 C 35.199219 26.8125 34.800781 26.8125 34.558594 27.058594 Z M 30.390625 31.226562 C 30.148438 31.46875 30.148438 31.863281 30.390625 32.109375 C 30.636719 32.351562 31.03125 32.351562 31.273438 32.109375 Z M 39.609375 38.773438 C 39.851562 38.53125 39.851562 38.136719 39.609375 37.890625 C 39.363281 37.648438 38.96875 37.648438 38.726562 37.890625 Z M 35 42.5 L 34.558594 42.941406 C 34.800781 43.1875 35.199219 43.1875 35.441406 42.941406 Z M 31.273438 37.890625 C 31.03125 37.648438 30.636719 37.648438 30.390625 37.890625 C 30.148438 38.136719 30.148438 38.53125 30.390625 38.773438 Z M 39.609375 31.226562 L 35.441406 27.058594 L 34.558594 27.941406 L 38.726562 32.109375 Z M 34.558594 27.058594 L 30.390625 31.226562 L 31.273438 32.109375 L 35.441406 27.941406 Z M 38.726562 37.890625 L 34.558594 42.058594 L 35.441406 42.941406 L 39.609375 38.773438 Z M 35.441406 42.058594 L 31.273438 37.890625 L 30.390625 38.773438 L 34.558594 42.941406 Z M 35.441406 42.058594 "/>
<path fill-rule="nonzero" fill="rgb(13.33313%, 16.470337%, 15.686035%)" fill-opacity="1" d="M 35 70 C 43.285156 70 50 76.714844 50 85 C 50 93.285156 43.285156 100 35 100 C 26.714844 100 20 93.285156 20 85 C 20 76.714844 26.714844 70 35 70 Z M 35 70 "/>
<path fill-rule="nonzero" fill="rgb(39.99939%, 100%, 80.000305%)" fill-opacity="1" d="M 38.726562 82.109375 C 38.96875 82.351562 39.363281 82.351562 39.609375 82.109375 C 39.851562 81.863281 39.851562 81.46875 39.609375 81.226562 Z M 35 77.5 L 35.441406 77.058594 C 35.199219 76.8125 34.800781 76.8125 34.558594 77.058594 Z M 30.390625 81.226562 C 30.148438 81.46875 30.148438 81.863281 30.390625 82.109375 C 30.636719 82.351562 31.03125 82.351562 31.273438 82.109375 Z M 39.609375 88.773438 C 39.851562 88.53125 39.851562 88.136719 39.609375 87.890625 C 39.363281 87.648438 38.96875 87.648438 38.726562 87.890625 Z M 35 92.5 L 34.558594 92.941406 C 34.800781 93.1875 35.199219 93.1875 35.441406 92.941406 Z M 31.273438 87.890625 C 31.03125 87.648438 30.636719 87.648438 30.390625 87.890625 C 30.148438 88.136719 30.148438 88.53125 30.390625 88.773438 Z M 39.609375 81.226562 L 35.441406 77.058594 L 34.558594 77.941406 L 38.726562 82.109375 Z M 34.558594 77.058594 L 30.390625 81.226562 L 31.273438 82.109375 L 35.441406 77.941406 Z M 38.726562 87.890625 L 34.558594 92.058594 L 35.441406 92.941406 L 39.609375 88.773438 Z M 35.441406 92.058594 L 31.273438 87.890625 L 30.390625 88.773438 L 34.558594 92.941406 Z M 35.441406 92.058594 "/>
<g clip-path="url(#clip-0)">
<path fill-rule="nonzero" fill="rgb(59.216309%, 27.842712%, 100%)" fill-opacity="1" d="M 5 119.5 C 2.515625 119.5 0.5 117.484375 0.5 115 L -0.5 115 C -0.5 118.039062 1.960938 120.5 5 120.5 Z M 0.5 115 L 0.5 109.761719 L -0.5 109.761719 L -0.5 115 Z M 0.5 104.523438 L 0.5 94.046875 L -0.5 94.046875 L -0.5 104.523438 Z M 0.5 88.808594 L 0.5 78.332031 L -0.5 78.332031 L -0.5 88.808594 Z M 0.5 73.09375 L 0.5 62.617188 L -0.5 62.617188 L -0.5 73.09375 Z M 0.5 57.382812 L 0.5 46.90625 L -0.5 46.90625 L -0.5 57.382812 Z M 0.5 41.667969 L 0.5 31.191406 L -0.5 31.191406 L -0.5 41.667969 Z M 0.5 25.953125 L 0.5 15.476562 L -0.5 15.476562 L -0.5 25.953125 Z M 0.5 10.238281 L 0.5 5 L -0.5 5 L -0.5 10.238281 Z M 0.5 5 C 0.5 2.515625 2.515625 0.5 5 0.5 L 5 -0.5 C 1.960938 -0.5 -0.5 1.960938 -0.5 5 Z M 5 0.5 L 10 0.5 L 10 -0.5 L 5 -0.5 Z M 15 0.5 L 25 0.5 L 25 -0.5 L 15 -0.5 Z M 30 0.5 L 40 0.5 L 40 -0.5 L 30 -0.5 Z M 45 0.5 L 55 0.5 L 55 -0.5 L 45 -0.5 Z M 60 0.5 L 65 0.5 L 65 -0.5 L 60 -0.5 Z M 65 0.5 C 67.484375 0.5 69.5 2.515625 69.5 5 L 70.5 5 C 70.5 1.960938 68.039062 -0.5 65 -0.5 Z M 69.5 5 L 69.5 10.238281 L 70.5 10.238281 L 70.5 5 Z M 69.5 15.476562 L 69.5 25.953125 L 70.5 25.953125 L 70.5 15.476562 Z M 69.5 31.191406 L 69.5 41.667969 L 70.5 41.667969 L 70.5 31.191406 Z M 69.5 46.90625 L 69.5 57.382812 L 70.5 57.382812 L 70.5 46.90625 Z M 69.5 62.617188 L 69.5 73.09375 L 70.5 73.09375 L 70.5 62.617188 Z M 69.5 78.332031 L 69.5 88.808594 L 70.5 88.808594 L 70.5 78.332031 Z M 69.5 94.046875 L 69.5 104.523438 L 70.5 104.523438 L 70.5 94.046875 Z M 69.5 109.761719 L 69.5 115 L 70.5 115 L 70.5 109.761719 Z M 69.5 115 C 69.5 117.484375 67.484375 119.5 65 119.5 L 65 120.5 C 68.039062 120.5 70.5 118.039062 70.5 115 Z M 65 119.5 L 60 119.5 L 60 120.5 L 65 120.5 Z M 55 119.5 L 45 119.5 L 45 120.5 L 55 120.5 Z M 40 119.5 L 30 119.5 L 30 120.5 L 40 120.5 Z M 25 119.5 L 15 119.5 L 15 120.5 L 25 120.5 Z M 10 119.5 L 5 119.5 L 5 120.5 L 10 120.5 Z M 5 119 C 2.789062 119 1 117.210938 1 115 L -1 115 C -1 118.3125 1.6875 121 5 121 Z M 1 115 L 1 109.761719 L -1 109.761719 L -1 115 Z M 1 104.523438 L 1 94.046875 L -1 94.046875 L -1 104.523438 Z M 1 88.808594 L 1 78.332031 L -1 78.332031 L -1 88.808594 Z M 1 73.09375 L 1 62.617188 L -1 62.617188 L -1 73.09375 Z M 1 57.382812 L 1 46.90625 L -1 46.90625 L -1 57.382812 Z M 1 41.667969 L 1 31.191406 L -1 31.191406 L -1 41.667969 Z M 1 25.953125 L 1 15.476562 L -1 15.476562 L -1 25.953125 Z M 1 10.238281 L 1 5 L -1 5 L -1 10.238281 Z M 1 5 C 1 2.789062 2.789062 1 5 1 L 5 -1 C 1.6875 -1 -1 1.6875 -1 5 Z M 5 1 L 10 1 L 10 -1 L 5 -1 Z M 15 1 L 25 1 L 25 -1 L 15 -1 Z M 30 1 L 40 1 L 40 -1 L 30 -1 Z M 45 1 L 55 1 L 55 -1 L 45 -1 Z M 60 1 L 65 1 L 65 -1 L 60 -1 Z M 65 1 C 67.210938 1 69 2.789062 69 5 L 71 5 C 71 1.6875 68.3125 -1 65 -1 Z M 69 5 L 69 10.238281 L 71 10.238281 L 71 5 Z M 69 15.476562 L 69 25.953125 L 71 25.953125 L 71 15.476562 Z M 69 31.191406 L 69 41.667969 L 71 41.667969 L 71 31.191406 Z M 69 46.90625 L 69 57.382812 L 71 57.382812 L 71 46.90625 Z M 69 62.617188 L 69 73.09375 L 71 73.09375 L 71 62.617188 Z M 69 78.332031 L 69 88.808594 L 71 88.808594 L 71 78.332031 Z M 69 94.046875 L 69 104.523438 L 71 104.523438 L 71 94.046875 Z M 69 109.761719 L 69 115 L 71 115 L 71 109.761719 Z M 69 115 C 69 117.210938 67.210938 119 65 119 L 65 121 C 68.3125 121 71 118.3125 71 115 Z M 65 119 L 60 119 L 60 121 L 65 121 Z M 55 119 L 45 119 L 45 121 L 55 121 Z M 40 119 L 30 119 L 30 121 L 40 121 Z M 25 119 L 15 119 L 15 121 L 25 121 Z M 10 119 L 5 119 L 5 121 L 10 121 Z M 10 119 "/>
</g>
</svg>
