<?xml version="1.0" encoding="UTF-8"?>
<svg xmlns="http://www.w3.org/2000/svg" xmlns:xlink="http://www.w3.org/1999/xlink" width="21.5" height="21.5" viewBox="0 0 21.5 21.5">
<defs>
<clipPath id="clip-0">
<path clip-rule="nonzero" d="M 0 0 L 21.011719 0 L 21.011719 21.011719 L 0 21.011719 Z M 0 0 "/>
</clipPath>
</defs>
<g clip-path="url(#clip-0)">
<path fill-rule="nonzero" fill="rgb(0%, 0%, 0%)" fill-opacity="1" d="M 7.222656 12.75 C 6.9375 13.039062 6.9375 13.5 7.222656 13.789062 C 7.511719 14.074219 7.972656 14.074219 8.261719 13.789062 Z M 13.789062 8.261719 C 14.074219 7.972656 14.074219 7.511719 13.789062 7.222656 C 13.503906 6.9375 13.039062 6.9375 12.753906 7.222656 Z M 8.261719 7.222656 C 7.972656 6.9375 7.511719 6.9375 7.222656 7.222656 C 6.9375 7.511719 6.9375 7.972656 7.222656 8.261719 Z M 12.753906 13.789062 C 13.039062 14.074219 13.503906 14.074219 13.789062 13.789062 C 14.074219 13.5 14.074219 13.039062 13.789062 12.75 Z M 8.261719 13.789062 L 11.023438 11.023438 L 9.988281 9.988281 L 7.222656 12.75 Z M 12.753906 7.222656 L 9.988281 9.988281 L 11.023438 11.023438 L 13.789062 8.261719 Z M 11.023438 9.988281 L 8.261719 7.222656 L 7.222656 8.261719 L 9.988281 11.023438 Z M 9.988281 11.023438 L 12.753906 13.789062 L 13.789062 12.75 L 11.023438 9.988281 Z M 10.503906 21.011719 C 16.308594 21.011719 21.011719 16.308594 21.011719 10.503906 L 19.546875 10.503906 C 19.546875 15.5 15.5 19.546875 10.503906 19.546875 Z M 21.011719 10.503906 C 21.011719 4.703125 16.308594 0 10.503906 0 L 10.503906 1.464844 C 15.5 1.464844 19.546875 5.511719 19.546875 10.503906 Z M 10.503906 0 C 4.703125 0 0 4.703125 0 10.503906 L 1.464844 10.503906 C 1.464844 5.511719 5.511719 1.464844 10.503906 1.464844 Z M 0 10.503906 C 0 16.308594 4.703125 21.011719 10.503906 21.011719 L 10.503906 19.546875 C 5.511719 19.546875 1.464844 15.5 1.464844 10.503906 Z M 0 10.503906 "/>
</g>
</svg>
