<?xml version="1.0" encoding="UTF-8"?>
<svg xmlns="http://www.w3.org/2000/svg" xmlns:xlink="http://www.w3.org/1999/xlink" width="17.5" height="19.527832" viewBox="0 0 17.5 19.527832">
<defs>
<clipPath id="clip-0">
<path clip-rule="nonzero" d="M 4 0.0429688 L 17.015625 0.0429688 L 17.015625 15 L 4 15 Z M 4 0.0429688 "/>
</clipPath>
<clipPath id="clip-1">
<path clip-rule="nonzero" d="M 0 10 L 17.015625 10 L 17.015625 19.027344 L 0 19.027344 Z M 0 10 "/>
</clipPath>
</defs>
<g clip-path="url(#clip-0)">
<path fill-rule="nonzero" fill="rgb(0%, 0%, 0%)" fill-opacity="1" d="M 15.554688 11.492188 C 15.554688 11.894531 15.882812 12.222656 16.285156 12.222656 C 16.6875 12.222656 17.015625 11.894531 17.015625 11.492188 Z M 16.285156 0.796875 L 17.015625 0.796875 C 17.015625 0.582031 16.917969 0.375 16.75 0.238281 C 16.585938 0.0976562 16.367188 0.0429688 16.152344 0.0820312 Z M 5.589844 2.742188 L 5.460938 2.023438 C 5.113281 2.089844 4.859375 2.390625 4.859375 2.742188 Z M 4.859375 13.4375 C 4.859375 13.839844 5.1875 14.164062 5.589844 14.164062 C 5.992188 14.164062 6.320312 13.839844 6.320312 13.4375 Z M 17.015625 11.492188 L 17.015625 0.796875 L 15.554688 0.796875 L 15.554688 11.492188 Z M 16.152344 0.0820312 L 5.460938 2.023438 L 5.722656 3.460938 L 16.414062 1.515625 Z M 4.859375 2.742188 L 4.859375 13.4375 L 6.320312 13.4375 L 6.320312 2.742188 Z M 4.859375 2.742188 "/>
</g>
<g clip-path="url(#clip-1)">
<path fill-rule="nonzero" fill="rgb(0%, 0%, 0%)" fill-opacity="1" d="M 16.285156 11.492188 L 17.015625 11.492188 C 17.015625 11.089844 16.6875 10.761719 16.285156 10.761719 Z M 5.589844 13.4375 L 6.320312 13.4375 C 6.320312 13.035156 5.992188 12.707031 5.589844 12.707031 Z M 2.671875 13.4375 L 2.671875 14.164062 Z M 0.730469 15.382812 L 0 15.382812 Z M 0.730469 16.351562 L 0 16.351562 Z M 13.367188 17.082031 L 14.339844 17.082031 L 14.339844 15.625 L 13.367188 15.625 Z M 14.339844 17.082031 C 15.050781 17.082031 15.730469 16.800781 16.230469 16.300781 L 15.199219 15.269531 C 14.972656 15.496094 14.664062 15.625 14.339844 15.625 Z M 16.230469 16.300781 C 16.730469 15.796875 17.015625 15.117188 17.015625 14.410156 L 15.554688 14.410156 C 15.554688 14.730469 15.425781 15.039062 15.199219 15.269531 Z M 17.015625 14.410156 L 17.015625 11.492188 L 15.554688 11.492188 L 15.554688 14.410156 Z M 16.285156 10.761719 L 13.367188 10.761719 L 13.367188 12.222656 L 16.285156 12.222656 Z M 13.367188 10.761719 C 12.660156 10.761719 11.980469 11.042969 11.476562 11.546875 L 12.507812 12.578125 C 12.738281 12.347656 13.046875 12.222656 13.367188 12.222656 Z M 11.476562 11.546875 C 10.976562 12.046875 10.695312 12.726562 10.695312 13.4375 L 12.152344 13.4375 C 12.152344 13.113281 12.28125 12.804688 12.507812 12.578125 Z M 10.695312 13.4375 L 10.695312 14.410156 L 12.152344 14.410156 L 12.152344 13.4375 Z M 10.695312 14.410156 C 10.695312 15.117188 10.976562 15.796875 11.476562 16.300781 L 12.507812 15.269531 C 12.28125 15.039062 12.152344 14.730469 12.152344 14.410156 Z M 11.476562 16.300781 C 11.980469 16.800781 12.660156 17.082031 13.367188 17.082031 L 13.367188 15.625 C 13.046875 15.625 12.738281 15.496094 12.507812 15.269531 Z M 2.671875 19.027344 L 3.644531 19.027344 L 3.644531 17.570312 L 2.671875 17.570312 Z M 3.644531 19.027344 C 4.355469 19.027344 5.035156 18.746094 5.535156 18.242188 L 4.503906 17.210938 C 4.277344 17.441406 3.96875 17.570312 3.644531 17.570312 Z M 5.535156 18.242188 C 6.039062 17.742188 6.320312 17.0625 6.320312 16.351562 L 4.859375 16.351562 C 4.859375 16.675781 4.734375 16.984375 4.503906 17.210938 Z M 6.320312 16.351562 L 6.320312 13.4375 L 4.859375 13.4375 L 4.859375 16.351562 Z M 5.589844 12.707031 L 2.671875 12.707031 L 2.671875 14.164062 L 5.589844 14.164062 Z M 2.671875 12.707031 C 1.964844 12.707031 1.285156 12.988281 0.78125 13.492188 L 1.8125 14.523438 C 2.042969 14.292969 2.351562 14.164062 2.671875 14.164062 Z M 0.78125 13.492188 C 0.28125 13.992188 0 14.671875 0 15.382812 L 1.457031 15.382812 C 1.457031 15.058594 1.585938 14.75 1.8125 14.523438 Z M 0 15.382812 L 0 16.351562 L 1.457031 16.351562 L 1.457031 15.382812 Z M 0 16.351562 C 0 17.0625 0.28125 17.742188 0.78125 18.242188 L 1.8125 17.210938 C 1.585938 16.984375 1.457031 16.675781 1.457031 16.351562 Z M 0.78125 18.242188 C 1.285156 18.746094 1.964844 19.027344 2.671875 19.027344 L 2.671875 17.570312 C 2.351562 17.570312 2.042969 17.441406 1.8125 17.210938 Z M 0.78125 18.242188 "/>
</g>
</svg>
