<?xml version="1.0" encoding="UTF-8"?>
<svg xmlns="http://www.w3.org/2000/svg" xmlns:xlink="http://www.w3.org/1999/xlink" width="23.5" height="15.646484" viewBox="0 0 23.5 15.646484">
<defs>
<clipPath id="clip-0">
<path clip-rule="nonzero" d="M 0.015625 0 L 22.996094 0 L 22.996094 15.300781 L 0.015625 15.300781 Z M 0.015625 0 "/>
</clipPath>
</defs>
<g clip-path="url(#clip-0)">
<path fill-rule="nonzero" fill="rgb(0%, 0%, 0%)" fill-opacity="1" d="M 17.402344 3.21875 C 17.117188 2.933594 16.652344 2.933594 16.367188 3.21875 C 16.078125 3.507812 16.078125 3.972656 16.367188 4.257812 Z M 16.367188 11.042969 C 16.078125 11.328125 16.078125 11.792969 16.367188 12.082031 C 16.652344 12.367188 17.117188 12.367188 17.402344 12.082031 Z M 20.335938 0.285156 C 20.050781 0 19.585938 0 19.300781 0.285156 C 19.011719 0.574219 19.011719 1.039062 19.300781 1.324219 Z M 19.300781 13.976562 C 19.011719 14.261719 19.011719 14.726562 19.300781 15.015625 C 19.585938 15.300781 20.050781 15.300781 20.335938 15.015625 Z M 6.644531 4.257812 C 6.933594 3.972656 6.933594 3.507812 6.644531 3.21875 C 6.359375 2.933594 5.894531 2.933594 5.609375 3.21875 Z M 5.609375 12.082031 C 5.894531 12.367188 6.359375 12.367188 6.644531 12.082031 C 6.933594 11.792969 6.933594 11.328125 6.644531 11.042969 Z M 3.710938 1.324219 C 4 1.039062 4 0.574219 3.710938 0.285156 C 3.425781 0 2.960938 0 2.675781 0.285156 Z M 2.675781 15.015625 C 2.960938 15.300781 3.425781 15.300781 3.710938 15.015625 C 4 14.726562 4 14.261719 3.710938 13.976562 Z M 16.882812 3.738281 C 16.367188 4.257812 16.363281 4.257812 16.363281 4.257812 C 16.363281 4.253906 16.363281 4.253906 16.363281 4.253906 C 16.363281 4.253906 16.363281 4.257812 16.367188 4.261719 C 16.375 4.265625 16.386719 4.277344 16.398438 4.296875 C 16.429688 4.328125 16.476562 4.382812 16.535156 4.457031 C 16.652344 4.605469 16.8125 4.832031 16.972656 5.128906 C 17.296875 5.71875 17.617188 6.578125 17.617188 7.648438 L 19.085938 7.648438 C 19.085938 6.277344 18.671875 5.179688 18.261719 4.425781 C 18.054688 4.050781 17.847656 3.757812 17.691406 3.554688 C 17.613281 3.453125 17.542969 3.375 17.492188 3.316406 C 17.46875 3.289062 17.449219 3.269531 17.433594 3.25 C 17.425781 3.242188 17.417969 3.238281 17.414062 3.230469 C 17.410156 3.230469 17.410156 3.226562 17.40625 3.226562 C 17.40625 3.222656 17.40625 3.222656 17.40625 3.222656 C 17.402344 3.222656 17.402344 3.222656 17.402344 3.222656 C 17.402344 3.222656 17.402344 3.21875 17.402344 3.21875 C 17.402344 3.21875 17.402344 3.21875 16.882812 3.738281 Z M 17.617188 7.648438 C 17.617188 8.722656 17.296875 9.582031 16.972656 10.171875 C 16.8125 10.46875 16.652344 10.695312 16.535156 10.84375 C 16.476562 10.917969 16.429688 10.972656 16.398438 11.003906 C 16.386719 11.023438 16.375 11.035156 16.367188 11.039062 C 16.363281 11.042969 16.363281 11.046875 16.363281 11.046875 C 16.363281 11.046875 16.363281 11.046875 16.363281 11.042969 C 16.363281 11.042969 16.367188 11.042969 16.882812 11.5625 C 17.402344 12.082031 17.402344 12.082031 17.402344 12.082031 C 17.402344 12.082031 17.402344 12.078125 17.402344 12.078125 C 17.402344 12.078125 17.402344 12.078125 17.40625 12.078125 C 17.40625 12.078125 17.40625 12.078125 17.40625 12.074219 C 17.410156 12.074219 17.410156 12.070312 17.414062 12.070312 C 17.417969 12.0625 17.425781 12.058594 17.433594 12.050781 C 17.449219 12.03125 17.46875 12.011719 17.492188 11.984375 C 17.542969 11.925781 17.613281 11.847656 17.691406 11.746094 C 17.847656 11.542969 18.054688 11.25 18.261719 10.875 C 18.671875 10.121094 19.085938 9.023438 19.085938 7.648438 Z M 19.816406 0.804688 C 19.300781 1.324219 19.300781 1.324219 19.296875 1.324219 C 19.296875 1.320312 19.296875 1.320312 19.296875 1.320312 C 19.296875 1.320312 19.296875 1.320312 19.296875 1.324219 C 19.300781 1.324219 19.304688 1.328125 19.3125 1.335938 C 19.324219 1.351562 19.34375 1.375 19.375 1.40625 C 19.429688 1.46875 19.515625 1.570312 19.617188 1.703125 C 19.824219 1.972656 20.109375 2.378906 20.390625 2.917969 C 20.957031 3.996094 21.527344 5.589844 21.527344 7.648438 L 22.996094 7.648438 C 22.996094 5.308594 22.34375 3.480469 21.6875 2.234375 C 21.363281 1.613281 21.03125 1.136719 20.78125 0.808594 C 20.65625 0.644531 20.550781 0.519531 20.472656 0.433594 C 20.433594 0.386719 20.402344 0.355469 20.378906 0.332031 C 20.367188 0.316406 20.359375 0.308594 20.351562 0.300781 C 20.347656 0.296875 20.34375 0.292969 20.339844 0.292969 C 20.339844 0.289062 20.339844 0.289062 20.339844 0.289062 C 20.339844 0.289062 20.335938 0.289062 20.335938 0.289062 C 20.335938 0.289062 20.335938 0.285156 20.335938 0.285156 C 20.335938 0.285156 20.335938 0.285156 19.816406 0.804688 Z M 21.527344 7.648438 C 21.527344 9.710938 20.957031 11.304688 20.390625 12.382812 C 20.109375 12.921875 19.824219 13.328125 19.617188 13.597656 C 19.515625 13.730469 19.429688 13.832031 19.375 13.894531 C 19.34375 13.925781 19.324219 13.949219 19.3125 13.964844 C 19.304688 13.972656 19.300781 13.976562 19.296875 13.976562 C 19.296875 13.980469 19.296875 13.980469 19.296875 13.980469 C 19.296875 13.980469 19.296875 13.980469 19.296875 13.976562 C 19.300781 13.976562 19.300781 13.976562 19.816406 14.496094 C 20.335938 15.015625 20.335938 15.015625 20.335938 15.015625 C 20.335938 15.015625 20.335938 15.011719 20.335938 15.011719 C 20.335938 15.011719 20.339844 15.011719 20.339844 15.011719 C 20.339844 15.011719 20.339844 15.011719 20.339844 15.007812 C 20.34375 15.007812 20.347656 15.003906 20.351562 15 C 20.359375 14.992188 20.367188 14.984375 20.378906 14.96875 C 20.402344 14.945312 20.433594 14.914062 20.472656 14.867188 C 20.550781 14.78125 20.65625 14.65625 20.78125 14.492188 C 21.03125 14.164062 21.363281 13.6875 21.6875 13.066406 C 22.34375 11.820312 22.996094 9.992188 22.996094 7.648438 Z M 6.128906 3.738281 C 5.609375 3.21875 5.609375 3.21875 5.609375 3.21875 C 5.609375 3.21875 5.609375 3.222656 5.609375 3.222656 C 5.605469 3.222656 5.605469 3.222656 5.605469 3.222656 C 5.605469 3.222656 5.605469 3.222656 5.605469 3.226562 C 5.601562 3.226562 5.601562 3.230469 5.597656 3.230469 C 5.59375 3.238281 5.585938 3.242188 5.578125 3.25 C 5.5625 3.269531 5.542969 3.289062 5.515625 3.316406 C 5.46875 3.375 5.398438 3.453125 5.320312 3.554688 C 5.160156 3.757812 4.957031 4.050781 4.75 4.425781 C 4.339844 5.179688 3.925781 6.277344 3.925781 7.648438 L 5.394531 7.648438 C 5.394531 6.578125 5.714844 5.71875 6.039062 5.128906 C 6.199219 4.832031 6.359375 4.605469 6.476562 4.457031 C 6.535156 4.382812 6.582031 4.328125 6.609375 4.296875 C 6.625 4.277344 6.636719 4.265625 6.644531 4.261719 C 6.644531 4.257812 6.648438 4.253906 6.648438 4.253906 C 6.648438 4.253906 6.648438 4.253906 6.648438 4.257812 C 6.648438 4.257812 6.648438 4.257812 6.644531 4.257812 C 6.644531 4.257812 6.644531 4.257812 6.128906 3.738281 Z M 3.925781 7.648438 C 3.925781 9.023438 4.339844 10.121094 4.75 10.875 C 4.957031 11.25 5.160156 11.542969 5.320312 11.746094 C 5.398438 11.847656 5.46875 11.925781 5.515625 11.984375 C 5.542969 12.011719 5.5625 12.03125 5.578125 12.050781 C 5.585938 12.058594 5.59375 12.0625 5.597656 12.070312 C 5.601562 12.070312 5.601562 12.074219 5.605469 12.074219 C 5.605469 12.078125 5.605469 12.078125 5.605469 12.078125 C 5.605469 12.078125 5.605469 12.078125 5.609375 12.078125 C 5.609375 12.078125 5.609375 12.082031 5.609375 12.082031 C 5.609375 12.082031 5.609375 12.082031 6.128906 11.5625 C 6.644531 11.042969 6.644531 11.042969 6.644531 11.042969 C 6.648438 11.042969 6.648438 11.042969 6.648438 11.042969 C 6.648438 11.046875 6.648438 11.046875 6.648438 11.046875 C 6.648438 11.046875 6.644531 11.042969 6.644531 11.039062 C 6.636719 11.035156 6.625 11.023438 6.609375 11.003906 C 6.582031 10.972656 6.535156 10.917969 6.476562 10.84375 C 6.359375 10.695312 6.199219 10.46875 6.039062 10.171875 C 5.714844 9.582031 5.394531 8.722656 5.394531 7.648438 Z M 3.191406 0.804688 C 2.675781 0.285156 2.675781 0.285156 2.675781 0.285156 C 2.675781 0.285156 2.675781 0.289062 2.671875 0.289062 C 2.671875 0.289062 2.671875 0.289062 2.667969 0.292969 C 2.667969 0.292969 2.664062 0.296875 2.660156 0.300781 C 2.652344 0.308594 2.644531 0.316406 2.632812 0.332031 C 2.609375 0.355469 2.578125 0.386719 2.539062 0.433594 C 2.460938 0.519531 2.355469 0.644531 2.230469 0.808594 C 1.980469 1.136719 1.648438 1.613281 1.320312 2.234375 C 0.664062 3.480469 0.015625 5.308594 0.015625 7.648438 L 1.480469 7.648438 C 1.480469 5.589844 2.054688 3.996094 2.621094 2.917969 C 2.902344 2.378906 3.183594 1.972656 3.394531 1.703125 C 3.496094 1.570312 3.582031 1.46875 3.636719 1.40625 C 3.664062 1.375 3.6875 1.351562 3.699219 1.335938 C 3.707031 1.328125 3.710938 1.324219 3.710938 1.324219 C 3.714844 1.320312 3.714844 1.320312 3.714844 1.320312 C 3.714844 1.320312 3.714844 1.320312 3.714844 1.324219 C 3.714844 1.324219 3.714844 1.324219 3.710938 1.324219 C 3.710938 1.324219 3.710938 1.324219 3.191406 0.804688 Z M 0.015625 7.648438 C 0.015625 9.992188 0.664062 11.820312 1.320312 13.066406 C 1.648438 13.6875 1.980469 14.164062 2.230469 14.492188 C 2.355469 14.65625 2.460938 14.78125 2.539062 14.867188 C 2.578125 14.914062 2.609375 14.945312 2.632812 14.96875 C 2.644531 14.984375 2.652344 14.992188 2.660156 15 C 2.664062 15.003906 2.667969 15.007812 2.667969 15.007812 C 2.671875 15.011719 2.671875 15.011719 2.671875 15.011719 C 2.675781 15.011719 2.675781 15.015625 2.675781 15.015625 C 2.675781 15.015625 2.675781 15.015625 3.191406 14.496094 C 3.710938 13.976562 3.710938 13.976562 3.710938 13.976562 C 3.714844 13.976562 3.714844 13.976562 3.714844 13.976562 C 3.714844 13.980469 3.714844 13.980469 3.714844 13.980469 C 3.714844 13.980469 3.714844 13.980469 3.710938 13.976562 C 3.710938 13.976562 3.707031 13.972656 3.699219 13.964844 C 3.6875 13.949219 3.664062 13.925781 3.636719 13.894531 C 3.582031 13.832031 3.496094 13.730469 3.394531 13.597656 C 3.183594 13.328125 2.902344 12.921875 2.621094 12.382812 C 2.054688 11.304688 1.480469 9.710938 1.480469 7.648438 Z M 0.015625 7.648438 "/>
</g>
<path fill-rule="nonzero" fill="rgb(0%, 0%, 0%)" fill-opacity="1" d="M 11.503906 8.628906 C 11.765625 8.628906 12.011719 8.523438 12.195312 8.34375 C 12.378906 8.160156 12.484375 7.910156 12.484375 7.648438 C 12.484375 7.390625 12.378906 7.140625 12.195312 6.957031 C 12.011719 6.777344 11.765625 6.671875 11.503906 6.671875 C 11.246094 6.671875 10.996094 6.777344 10.8125 6.957031 C 10.628906 7.140625 10.527344 7.390625 10.527344 7.648438 C 10.527344 7.910156 10.628906 8.160156 10.8125 8.34375 C 10.996094 8.523438 11.246094 8.628906 11.503906 8.628906 Z M 11.503906 8.628906 "/>
<path fill-rule="nonzero" fill="rgb(0%, 0%, 0%)" fill-opacity="1" d="M 11.503906 9.363281 C 11.960938 9.363281 12.394531 9.179688 12.714844 8.859375 L 11.679688 7.824219 C 11.632812 7.867188 11.570312 7.894531 11.503906 7.894531 Z M 12.714844 8.859375 C 13.035156 8.539062 13.21875 8.105469 13.21875 7.648438 L 11.75 7.648438 C 11.75 7.714844 11.722656 7.777344 11.679688 7.824219 Z M 13.21875 7.648438 C 13.21875 7.195312 13.035156 6.761719 12.714844 6.441406 L 11.679688 7.476562 C 11.722656 7.523438 11.75 7.585938 11.75 7.648438 Z M 12.714844 6.441406 C 12.394531 6.121094 11.960938 5.9375 11.503906 5.9375 L 11.503906 7.40625 C 11.570312 7.40625 11.632812 7.433594 11.679688 7.476562 Z M 11.503906 5.9375 C 11.050781 5.9375 10.617188 6.121094 10.296875 6.441406 L 11.332031 7.476562 C 11.378906 7.433594 11.441406 7.40625 11.503906 7.40625 Z M 10.296875 6.441406 C 9.972656 6.761719 9.792969 7.195312 9.792969 7.648438 L 11.261719 7.648438 C 11.261719 7.585938 11.285156 7.523438 11.332031 7.476562 Z M 9.792969 7.648438 C 9.792969 8.105469 9.972656 8.539062 10.296875 8.859375 L 11.332031 7.824219 C 11.285156 7.777344 11.261719 7.714844 11.261719 7.648438 Z M 10.296875 8.859375 C 10.617188 9.179688 11.050781 9.363281 11.503906 9.363281 L 11.503906 7.894531 C 11.441406 7.894531 11.378906 7.867188 11.332031 7.824219 Z M 10.296875 8.859375 "/>
</svg>
