<?xml version="1.0" encoding="UTF-8"?>
<svg xmlns="http://www.w3.org/2000/svg" xmlns:xlink="http://www.w3.org/1999/xlink" width="73.600098" height="108" viewBox="0 0 73.600098 108">
<defs>
<clipPath id="clip-0">
<path clip-rule="nonzero" d="M 0 0.292969 L 73.203125 0.292969 L 73.203125 107.707031 L 0 107.707031 Z M 0 0.292969 "/>
</clipPath>
<clipPath id="clip-1">
<path clip-rule="nonzero" d="M 4.972656 0.292969 L 68.230469 0.292969 C 70.976562 0.292969 73.203125 2.519531 73.203125 5.265625 L 73.203125 102.734375 C 73.203125 105.480469 70.976562 107.707031 68.230469 107.707031 L 4.972656 107.707031 C 2.226562 107.707031 0 105.480469 0 102.734375 L 0 5.265625 C 0 2.519531 2.226562 0.292969 4.972656 0.292969 Z M 4.972656 0.292969 "/>
</clipPath>
</defs>
<path fill-rule="nonzero" fill="rgb(86.66687%, 18.03894%, 26.66626%)" fill-opacity="1" d="M 52.941406 40.382812 C 52.941406 42.410156 51.296875 44.054688 49.269531 44.054688 L 23.5625 44.054688 C 21.535156 44.054688 19.890625 42.410156 19.890625 40.382812 L 19.890625 23.855469 C 19.890625 21.828125 21.535156 20.183594 23.5625 20.183594 L 49.269531 20.183594 C 51.296875 20.183594 52.941406 21.828125 52.941406 23.855469 Z M 52.941406 40.382812 "/>
<path fill-rule="nonzero" fill="rgb(93.333435%, 93.333435%, 93.333435%)" fill-opacity="1" d="M 20.402344 42.21875 L 52.433594 42.21875 C 52.75 41.675781 52.941406 41.054688 52.941406 40.382812 L 19.890625 40.382812 C 19.890625 41.054688 20.085938 41.675781 20.402344 42.21875 Z M 19.890625 36.707031 L 52.941406 36.707031 L 52.941406 38.546875 L 19.890625 38.546875 Z M 19.890625 33.035156 L 52.941406 33.035156 L 52.941406 34.871094 L 19.890625 34.871094 Z M 19.890625 29.363281 L 52.941406 29.363281 L 52.941406 31.199219 L 19.890625 31.199219 Z M 19.890625 25.691406 L 52.941406 25.691406 L 52.941406 27.527344 L 19.890625 27.527344 Z M 20.402344 22.019531 C 20.085938 22.5625 19.890625 23.183594 19.890625 23.855469 L 52.941406 23.855469 C 52.941406 23.183594 52.75 22.5625 52.433594 22.019531 Z M 20.402344 22.019531 "/>
<path fill-rule="nonzero" fill="rgb(0.392151%, 0%, 39.99939%)" fill-opacity="1" d="M 36.417969 20.183594 L 23.5625 20.183594 C 21.535156 20.183594 19.890625 21.828125 19.890625 23.855469 L 19.890625 33.035156 L 36.417969 33.035156 Z M 36.417969 20.183594 "/>
<path fill-rule="nonzero" fill="rgb(100%, 80.000305%, 30.195618%)" fill-opacity="1" d="M 28.644531 31.414062 C 25.992188 31.414062 23.839844 29.261719 23.839844 26.609375 C 23.839844 23.957031 25.992188 21.804688 28.644531 21.804688 C 29.300781 21.804688 29.925781 21.941406 30.496094 22.175781 C 29.582031 21.503906 28.457031 21.101562 27.238281 21.101562 C 24.195312 21.101562 21.726562 23.570312 21.726562 26.609375 C 21.726562 29.652344 24.195312 32.117188 27.238281 32.117188 C 28.457031 32.117188 29.582031 31.714844 30.496094 31.042969 C 29.925781 31.28125 29.300781 31.414062 28.644531 31.414062 Z M 28.644531 31.414062 "/>
<path fill-rule="nonzero" fill="rgb(100%, 80.000305%, 30.195618%)" fill-opacity="1" d="M 31.753906 23.699219 L 32.0625 25.1875 L 32.984375 23.980469 L 32.613281 25.453125 L 33.96875 24.765625 L 32.996094 25.929688 L 34.515625 25.898438 L 33.132812 26.527344 L 34.515625 27.15625 L 32.996094 27.125 L 33.96875 28.292969 L 32.613281 27.605469 L 32.984375 29.078125 L 32.0625 27.871094 L 31.753906 29.359375 L 31.449219 27.871094 L 30.527344 29.078125 L 30.898438 27.605469 L 29.542969 28.292969 L 30.515625 27.125 L 28.996094 27.15625 L 30.378906 26.527344 L 28.996094 25.898438 L 30.515625 25.929688 L 29.542969 24.765625 L 30.898438 25.453125 L 30.527344 23.980469 L 31.449219 25.1875 Z M 31.753906 23.699219 "/>
<path fill-rule="nonzero" fill="rgb(93.333435%, 93.333435%, 93.333435%)" fill-opacity="1" d="M 52.941406 84.144531 C 52.941406 86.171875 51.296875 87.816406 49.269531 87.816406 L 23.5625 87.816406 C 21.535156 87.816406 19.890625 86.171875 19.890625 84.144531 L 19.890625 67.617188 C 19.890625 65.589844 21.535156 63.945312 23.5625 63.945312 L 49.269531 63.945312 C 51.296875 63.945312 52.941406 65.589844 52.941406 67.617188 Z M 52.941406 84.144531 "/>
<path fill-rule="nonzero" fill="rgb(92.941284%, 10.588074%, 18.431091%)" fill-opacity="1" d="M 36.417969 82.308594 C 39.96875 82.308594 42.84375 79.429688 42.84375 75.878906 C 42.84375 72.332031 39.96875 69.453125 36.417969 69.453125 C 32.867188 69.453125 29.992188 72.332031 29.992188 75.878906 C 29.992188 79.429688 32.867188 82.308594 36.417969 82.308594 Z M 36.417969 82.308594 "/>
<g clip-path="url(#clip-0)">
<g clip-path="url(#clip-1)">
<path fill-rule="nonzero" fill="rgb(59.216309%, 27.842712%, 100%)" fill-opacity="1" d="M 4.972656 107.210938 C 2.5 107.210938 0.496094 105.207031 0.496094 102.734375 L -0.496094 102.734375 C -0.496094 105.757812 1.953125 108.207031 4.972656 108.207031 Z M 0.496094 102.734375 L 0.496094 98.09375 L -0.496094 98.09375 L -0.496094 102.734375 Z M 0.496094 93.453125 L 0.496094 84.167969 L -0.496094 84.167969 L -0.496094 93.453125 Z M 0.496094 79.527344 L 0.496094 70.246094 L -0.496094 70.246094 L -0.496094 79.527344 Z M 0.496094 65.605469 L 0.496094 56.320312 L -0.496094 56.320312 L -0.496094 65.605469 Z M 0.496094 51.679688 L 0.496094 42.394531 L -0.496094 42.394531 L -0.496094 51.679688 Z M 0.496094 37.753906 L 0.496094 28.472656 L -0.496094 28.472656 L -0.496094 37.753906 Z M 0.496094 23.832031 L 0.496094 14.546875 L -0.496094 14.546875 L -0.496094 23.832031 Z M 0.496094 9.90625 L 0.496094 5.265625 L -0.496094 5.265625 L -0.496094 9.90625 Z M 0.496094 5.265625 C 0.496094 2.792969 2.5 0.789062 4.972656 0.789062 L 4.972656 -0.207031 C 1.953125 -0.207031 -0.496094 2.242188 -0.496094 5.265625 Z M 4.972656 0.789062 L 10.246094 0.789062 L 10.246094 -0.207031 L 4.972656 -0.207031 Z M 15.515625 0.789062 L 26.058594 0.789062 L 26.058594 -0.207031 L 15.515625 -0.207031 Z M 31.328125 0.789062 L 41.871094 0.789062 L 41.871094 -0.207031 L 31.328125 -0.207031 Z M 47.144531 0.789062 L 57.6875 0.789062 L 57.6875 -0.207031 L 47.144531 -0.207031 Z M 62.957031 0.789062 L 68.230469 0.789062 L 68.230469 -0.207031 L 62.957031 -0.207031 Z M 68.230469 0.789062 C 70.703125 0.789062 72.703125 2.792969 72.703125 5.265625 L 73.699219 5.265625 C 73.699219 2.242188 71.25 -0.207031 68.230469 -0.207031 Z M 72.703125 5.265625 L 72.703125 9.90625 L 73.699219 9.90625 L 73.699219 5.265625 Z M 72.703125 14.546875 L 72.703125 23.832031 L 73.699219 23.832031 L 73.699219 14.546875 Z M 72.703125 28.472656 L 72.703125 37.753906 L 73.699219 37.753906 L 73.699219 28.472656 Z M 72.703125 42.394531 L 72.703125 51.679688 L 73.699219 51.679688 L 73.699219 42.394531 Z M 72.703125 56.320312 L 72.703125 65.605469 L 73.699219 65.605469 L 73.699219 56.320312 Z M 72.703125 70.246094 L 72.703125 79.527344 L 73.699219 79.527344 L 73.699219 70.246094 Z M 72.703125 84.167969 L 72.703125 93.453125 L 73.699219 93.453125 L 73.699219 84.167969 Z M 72.703125 98.09375 L 72.703125 102.734375 L 73.699219 102.734375 L 73.699219 98.09375 Z M 72.703125 102.734375 C 72.703125 105.207031 70.703125 107.210938 68.230469 107.210938 L 68.230469 108.207031 C 71.25 108.207031 73.699219 105.757812 73.699219 102.734375 Z M 68.230469 107.210938 L 62.957031 107.210938 L 62.957031 108.207031 L 68.230469 108.207031 Z M 57.6875 107.210938 L 47.144531 107.210938 L 47.144531 108.207031 L 57.6875 108.207031 Z M 41.871094 107.210938 L 31.328125 107.210938 L 31.328125 108.207031 L 41.871094 108.207031 Z M 26.058594 107.210938 L 15.515625 107.210938 L 15.515625 108.207031 L 26.058594 108.207031 Z M 10.246094 107.210938 L 4.972656 107.210938 L 4.972656 108.207031 L 10.246094 108.207031 Z M 4.972656 106.714844 C 2.777344 106.714844 0.996094 104.933594 0.996094 102.734375 L -0.996094 102.734375 C -0.996094 106.03125 1.675781 108.703125 4.972656 108.703125 Z M 0.996094 102.734375 L 0.996094 98.09375 L -0.996094 98.09375 L -0.996094 102.734375 Z M 0.996094 93.453125 L 0.996094 84.167969 L -0.996094 84.167969 L -0.996094 93.453125 Z M 0.996094 79.527344 L 0.996094 70.246094 L -0.996094 70.246094 L -0.996094 79.527344 Z M 0.996094 65.605469 L 0.996094 56.320312 L -0.996094 56.320312 L -0.996094 65.605469 Z M 0.996094 51.679688 L 0.996094 42.394531 L -0.996094 42.394531 L -0.996094 51.679688 Z M 0.996094 37.753906 L 0.996094 28.472656 L -0.996094 28.472656 L -0.996094 37.753906 Z M 0.996094 23.832031 L 0.996094 14.546875 L -0.996094 14.546875 L -0.996094 23.832031 Z M 0.996094 9.90625 L 0.996094 5.265625 L -0.996094 5.265625 L -0.996094 9.90625 Z M 0.996094 5.265625 C 0.996094 3.066406 2.777344 1.285156 4.972656 1.285156 L 4.972656 -0.703125 C 1.675781 -0.703125 -0.996094 1.96875 -0.996094 5.265625 Z M 4.972656 1.285156 L 10.246094 1.285156 L 10.246094 -0.703125 L 4.972656 -0.703125 Z M 15.515625 1.285156 L 26.058594 1.285156 L 26.058594 -0.703125 L 15.515625 -0.703125 Z M 31.328125 1.285156 L 41.871094 1.285156 L 41.871094 -0.703125 L 31.328125 -0.703125 Z M 47.144531 1.285156 L 57.6875 1.285156 L 57.6875 -0.703125 L 47.144531 -0.703125 Z M 62.957031 1.285156 L 68.230469 1.285156 L 68.230469 -0.703125 L 62.957031 -0.703125 Z M 68.230469 1.285156 C 70.425781 1.285156 72.207031 3.066406 72.207031 5.265625 L 74.195312 5.265625 C 74.195312 1.96875 71.523438 -0.703125 68.230469 -0.703125 Z M 72.207031 5.265625 L 72.207031 9.90625 L 74.195312 9.90625 L 74.195312 5.265625 Z M 72.207031 14.546875 L 72.207031 23.832031 L 74.195312 23.832031 L 74.195312 14.546875 Z M 72.207031 28.472656 L 72.207031 37.753906 L 74.195312 37.753906 L 74.195312 28.472656 Z M 72.207031 42.394531 L 72.207031 51.679688 L 74.195312 51.679688 L 74.195312 42.394531 Z M 72.207031 56.320312 L 72.207031 65.605469 L 74.195312 65.605469 L 74.195312 56.320312 Z M 72.207031 70.246094 L 72.207031 79.527344 L 74.195312 79.527344 L 74.195312 70.246094 Z M 72.207031 84.167969 L 72.207031 93.453125 L 74.195312 93.453125 L 74.195312 84.167969 Z M 72.207031 98.09375 L 72.207031 102.734375 L 74.195312 102.734375 L 74.195312 98.09375 Z M 72.207031 102.734375 C 72.207031 104.933594 70.425781 106.714844 68.230469 106.714844 L 68.230469 108.703125 C 71.523438 108.703125 74.195312 106.03125 74.195312 102.734375 Z M 68.230469 106.714844 L 62.957031 106.714844 L 62.957031 108.703125 L 68.230469 108.703125 Z M 57.6875 106.714844 L 47.144531 106.714844 L 47.144531 108.703125 L 57.6875 108.703125 Z M 41.871094 106.714844 L 31.328125 106.714844 L 31.328125 108.703125 L 41.871094 108.703125 Z M 26.058594 106.714844 L 15.515625 106.714844 L 15.515625 108.703125 L 26.058594 108.703125 Z M 10.246094 106.714844 L 4.972656 106.714844 L 4.972656 108.703125 L 10.246094 108.703125 Z M 10.246094 106.714844 "/>
</g>
</g>
</svg>
