<?xml version="1.0" encoding="UTF-8"?>
<svg xmlns="http://www.w3.org/2000/svg" xmlns:xlink="http://www.w3.org/1999/xlink" width="22.208679" height="15.677979" viewBox="0 0 22.208679 15.677979">
<defs>
<clipPath id="clip-0">
<path clip-rule="nonzero" d="M 0 0.113281 L 14 0.113281 L 14 15.253906 L 0 15.253906 Z M 0 0.113281 "/>
</clipPath>
<clipPath id="clip-1">
<path clip-rule="nonzero" d="M 10 0.113281 L 18 0.113281 L 18 15.253906 L 10 15.253906 Z M 10 0.113281 "/>
</clipPath>
<clipPath id="clip-2">
<path clip-rule="nonzero" d="M 14 0.113281 L 21.445312 0.113281 L 21.445312 15.253906 L 14 15.253906 Z M 14 0.113281 "/>
</clipPath>
</defs>
<g clip-path="url(#clip-0)">
<path fill-rule="nonzero" fill="rgb(0%, 0%, 0%)" fill-opacity="1" d="M 12.496094 8.957031 L 13.039062 9.433594 Z M 8.300781 13.746094 L 8.847656 14.222656 Z M 5.394531 13.746094 L 4.851562 14.222656 Z M 1.203125 8.957031 L 0.65625 9.433594 Z M 0.722656 7.683594 L 0 7.683594 Z M 1.203125 6.410156 L 0.65625 5.933594 Z M 5.394531 1.621094 L 4.851562 1.144531 Z M 6.847656 0.960938 L 6.847656 1.683594 Z M 8.300781 1.621094 L 8.847656 1.144531 Z M 12.496094 6.410156 L 13.039062 5.933594 Z M 11.949219 8.476562 L 7.757812 13.269531 L 8.847656 14.222656 L 13.039062 9.433594 Z M 7.757812 13.269531 C 7.644531 13.398438 7.503906 13.503906 7.347656 13.574219 L 7.945312 14.894531 C 8.289062 14.738281 8.597656 14.507812 8.847656 14.222656 Z M 7.347656 13.574219 C 7.191406 13.644531 7.019531 13.683594 6.847656 13.683594 L 6.847656 15.132812 C 7.226562 15.132812 7.601562 15.050781 7.945312 14.894531 Z M 6.847656 13.683594 C 6.675781 13.683594 6.507812 13.644531 6.351562 13.574219 L 5.75 14.894531 C 6.097656 15.050781 6.46875 15.132812 6.847656 15.132812 Z M 6.351562 13.574219 C 6.195312 13.503906 6.054688 13.398438 5.941406 13.269531 L 4.851562 14.222656 C 5.101562 14.507812 5.40625 14.738281 5.75 14.894531 Z M 5.941406 13.269531 L 1.746094 8.476562 L 0.65625 9.433594 L 4.851562 14.222656 Z M 1.746094 8.476562 C 1.554688 8.257812 1.449219 7.976562 1.449219 7.683594 L 0 7.683594 C 0 8.328125 0.234375 8.949219 0.65625 9.433594 Z M 1.449219 7.683594 C 1.449219 7.390625 1.554688 7.109375 1.746094 6.890625 L 0.65625 5.933594 C 0.234375 6.417969 0 7.039062 0 7.683594 Z M 1.746094 6.890625 L 5.941406 2.097656 L 4.851562 1.144531 L 0.65625 5.933594 Z M 5.941406 2.097656 C 6.054688 1.96875 6.195312 1.863281 6.351562 1.792969 L 5.75 0.472656 C 5.40625 0.628906 5.101562 0.859375 4.851562 1.144531 Z M 6.351562 1.792969 C 6.507812 1.722656 6.675781 1.683594 6.847656 1.683594 L 6.847656 0.234375 C 6.46875 0.234375 6.097656 0.316406 5.75 0.472656 Z M 6.847656 1.683594 C 7.019531 1.683594 7.191406 1.722656 7.347656 1.792969 L 7.945312 0.472656 C 7.601562 0.316406 7.226562 0.234375 6.847656 0.234375 Z M 7.347656 1.792969 C 7.503906 1.863281 7.644531 1.96875 7.757812 2.097656 L 8.847656 1.144531 C 8.597656 0.859375 8.289062 0.628906 7.945312 0.472656 Z M 7.757812 2.097656 L 11.949219 6.890625 L 13.039062 5.933594 L 8.847656 1.144531 Z M 11.949219 6.890625 C 12.144531 7.109375 12.25 7.390625 12.25 7.683594 L 13.699219 7.683594 C 13.699219 7.039062 13.464844 6.417969 13.039062 5.933594 Z M 12.25 7.683594 C 12.25 7.976562 12.144531 8.257812 11.949219 8.476562 L 13.039062 9.433594 C 13.464844 8.949219 13.699219 8.328125 13.699219 7.683594 Z M 12.25 7.683594 "/>
</g>
<g clip-path="url(#clip-1)">
<path fill-rule="nonzero" fill="rgb(0%, 0%, 0%)" fill-opacity="1" d="M 11.125 13.972656 C 10.867188 14.273438 10.902344 14.730469 11.207031 14.992188 C 11.507812 15.253906 11.964844 15.21875 12.226562 14.914062 Z M 16.394531 8.941406 L 15.84375 8.46875 Z M 16.394531 6.425781 L 15.84375 6.898438 Z M 12.226562 0.453125 C 11.964844 0.148438 11.507812 0.113281 11.207031 0.375 C 10.902344 0.636719 10.867188 1.09375 11.125 1.394531 Z M 12.226562 14.914062 L 16.941406 9.410156 L 15.84375 8.46875 L 11.125 13.972656 Z M 16.941406 9.414062 C 17.355469 8.929688 17.582031 8.316406 17.582031 7.683594 L 16.132812 7.683594 C 16.132812 7.972656 16.03125 8.25 15.84375 8.46875 Z M 17.582031 7.683594 C 17.582031 7.050781 17.355469 6.4375 16.941406 5.953125 L 15.84375 6.898438 C 16.03125 7.117188 16.132812 7.394531 16.132812 7.683594 Z M 16.941406 5.953125 L 12.226562 0.453125 L 11.125 1.394531 L 15.84375 6.898438 Z M 16.941406 5.953125 "/>
</g>
<g clip-path="url(#clip-2)">
<path fill-rule="nonzero" fill="rgb(0%, 0%, 0%)" fill-opacity="1" d="M 14.988281 13.972656 C 14.730469 14.273438 14.765625 14.730469 15.066406 14.992188 C 15.371094 15.253906 15.828125 15.21875 16.089844 14.914062 Z M 20.253906 8.941406 L 19.707031 8.46875 Z M 20.253906 6.425781 L 19.707031 6.898438 Z M 16.089844 0.453125 C 15.828125 0.148438 15.371094 0.113281 15.066406 0.375 C 14.765625 0.636719 14.730469 1.09375 14.988281 1.394531 Z M 16.089844 14.914062 L 20.804688 9.410156 L 19.707031 8.46875 L 14.988281 13.972656 Z M 20.804688 9.414062 C 21.21875 8.929688 21.445312 8.316406 21.445312 7.683594 L 19.996094 7.683594 C 19.996094 7.972656 19.894531 8.25 19.707031 8.46875 Z M 21.445312 7.683594 C 21.445312 7.050781 21.21875 6.4375 20.804688 5.953125 L 19.707031 6.898438 C 19.894531 7.117188 19.996094 7.394531 19.996094 7.683594 Z M 20.804688 5.953125 L 16.089844 0.453125 L 14.988281 1.394531 L 19.707031 6.898438 Z M 20.804688 5.953125 "/>
</g>
</svg>
