<?xml version="1.0" encoding="UTF-8"?>
<svg xmlns="http://www.w3.org/2000/svg" xmlns:xlink="http://www.w3.org/1999/xlink" width="60" height="108" viewBox="0 0 60 108">
<defs>
<clipPath id="clip-0">
<path clip-rule="nonzero" d="M 5 0 L 55 0 C 57.761719 0 60 2.238281 60 5 L 60 103 C 60 105.761719 57.761719 108 55 108 L 5 108 C 2.238281 108 0 105.761719 0 103 L 0 5 C 0 2.238281 2.238281 0 5 0 Z M 5 0 "/>
</clipPath>
</defs>
<path fill-rule="nonzero" fill="rgb(0%, 0%, 0%)" fill-opacity="0.5" d="M 28 20 L 32 20 C 36.417969 20 40 23.582031 40 28 C 40 32.417969 36.417969 36 32 36 L 28 36 C 23.582031 36 20 32.417969 20 28 C 20 23.582031 23.582031 20 28 20 Z M 28 20 "/>
<path fill-rule="nonzero" fill="rgb(69.804382%, 100%, 39.99939%)" fill-opacity="1" d="M 24 32 C 24 32.277344 24.222656 32.5 24.5 32.5 C 24.777344 32.5 25 32.277344 25 32 Z M 28 28 L 28 27.5 Z M 31 32 C 31 32.277344 31.222656 32.5 31.5 32.5 C 31.777344 32.5 32 32.277344 32 32 Z M 25 32 L 25 31.5 L 24 31.5 L 24 32 Z M 25 31.5 C 25 30.703125 25.316406 29.941406 25.878906 29.378906 L 25.171875 28.671875 C 24.421875 29.421875 24 30.4375 24 31.5 Z M 25.878906 29.378906 C 26.441406 28.816406 27.203125 28.5 28 28.5 L 28 27.5 C 26.9375 27.5 25.921875 27.921875 25.171875 28.671875 Z M 28 28.5 C 28.796875 28.5 29.558594 28.816406 30.121094 29.378906 L 30.828125 28.671875 C 30.078125 27.921875 29.0625 27.5 28 27.5 Z M 30.121094 29.378906 C 30.683594 29.941406 31 30.703125 31 31.5 L 32 31.5 C 32 30.4375 31.578125 29.421875 30.828125 28.671875 Z M 31 31.5 L 31 32 L 32 32 L 32 31.5 Z M 31 31.5 "/>
<path fill-rule="nonzero" fill="rgb(69.804382%, 100%, 39.99939%)" fill-opacity="1" d="M 30 29 C 30 29.277344 30.222656 29.5 30.5 29.5 C 30.777344 29.5 31 29.277344 31 29 Z M 33 26.5 L 33 26 Z M 35 29.25 C 35 29.527344 35.222656 29.75 35.5 29.75 C 35.777344 29.75 36 29.527344 36 29.25 Z M 31 29 C 31 28.46875 31.210938 27.960938 31.585938 27.585938 L 30.878906 26.878906 C 30.316406 27.441406 30 28.203125 30 29 Z M 31.585938 27.585938 C 31.960938 27.210938 32.46875 27 33 27 L 33 26 C 32.203125 26 31.441406 26.316406 30.878906 26.878906 Z M 33 27 C 33.261719 27 33.523438 27.050781 33.765625 27.152344 L 34.148438 26.226562 C 33.785156 26.078125 33.394531 26 33 26 Z M 33.765625 27.152344 C 34.007812 27.253906 34.226562 27.398438 34.414062 27.585938 L 35.121094 26.878906 C 34.84375 26.601562 34.511719 26.378906 34.148438 26.226562 Z M 34.414062 27.585938 C 34.601562 27.773438 34.746094 27.992188 34.847656 28.234375 L 35.773438 27.851562 C 35.621094 27.488281 35.398438 27.15625 35.121094 26.878906 Z M 34.847656 28.234375 C 34.949219 28.476562 35 28.738281 35 29 L 36 29 C 36 28.605469 35.921875 28.214844 35.773438 27.851562 Z M 35 29 L 35 29.25 L 36 29.25 L 36 29 Z M 35 29 "/>
<path fill-rule="nonzero" fill="rgb(69.804382%, 100%, 39.99939%)" fill-opacity="1" d="M 28 28 L 28 28.5 Z M 30 26 L 30.5 26 Z M 28 24 L 28 23.5 Z M 26 26 L 25.5 26 Z M 33 26.5 L 33 27 Z M 34.5 25 L 35 25 Z M 33 23.5 L 33 23 Z M 28 28.5 C 28.664062 28.5 29.300781 28.238281 29.769531 27.769531 L 29.0625 27.0625 C 28.78125 27.34375 28.398438 27.5 28 27.5 Z M 29.769531 27.769531 C 30.238281 27.300781 30.5 26.664062 30.5 26 L 29.5 26 C 29.5 26.398438 29.34375 26.78125 29.0625 27.0625 Z M 30.5 26 C 30.5 25.335938 30.238281 24.699219 29.769531 24.230469 L 29.0625 24.9375 C 29.34375 25.21875 29.5 25.601562 29.5 26 Z M 29.769531 24.230469 C 29.300781 23.761719 28.664062 23.5 28 23.5 L 28 24.5 C 28.398438 24.5 28.78125 24.65625 29.0625 24.9375 Z M 28 23.5 C 27.335938 23.5 26.699219 23.761719 26.230469 24.230469 L 26.9375 24.9375 C 27.21875 24.65625 27.601562 24.5 28 24.5 Z M 26.230469 24.230469 C 25.761719 24.699219 25.5 25.335938 25.5 26 L 26.5 26 C 26.5 25.601562 26.65625 25.21875 26.9375 24.9375 Z M 25.5 26 C 25.5 26.664062 25.761719 27.300781 26.230469 27.769531 L 26.9375 27.0625 C 26.65625 26.78125 26.5 26.398438 26.5 26 Z M 26.230469 27.769531 C 26.699219 28.238281 27.335938 28.5 28 28.5 L 28 27.5 C 27.601562 27.5 27.21875 27.34375 26.9375 27.0625 Z M 33 27 C 33.53125 27 34.039062 26.789062 34.414062 26.414062 L 33.707031 25.707031 C 33.519531 25.894531 33.265625 26 33 26 Z M 34.414062 26.414062 C 34.789062 26.039062 35 25.53125 35 25 L 34 25 C 34 25.265625 33.894531 25.519531 33.707031 25.707031 Z M 35 25 C 35 24.46875 34.789062 23.960938 34.414062 23.585938 L 33.707031 24.292969 C 33.894531 24.480469 34 24.734375 34 25 Z M 34.414062 23.585938 C 34.039062 23.210938 33.53125 23 33 23 L 33 24 C 33.265625 24 33.519531 24.105469 33.707031 24.292969 Z M 33 23 C 32.46875 23 31.960938 23.210938 31.585938 23.585938 L 32.292969 24.292969 C 32.480469 24.105469 32.734375 24 33 24 Z M 31.585938 23.585938 C 31.210938 23.960938 31 24.46875 31 25 L 32 25 C 32 24.734375 32.105469 24.480469 32.292969 24.292969 Z M 31 25 C 31 25.53125 31.210938 26.039062 31.585938 26.414062 L 32.292969 25.707031 C 32.105469 25.519531 32 25.265625 32 25 Z M 31.585938 26.414062 C 31.960938 26.789062 32.46875 27 33 27 L 33 26 C 32.734375 26 32.480469 25.894531 32.292969 25.707031 Z M 31.585938 26.414062 "/>
<path fill-rule="nonzero" fill="rgb(0%, 0%, 0%)" fill-opacity="0.5" d="M 28 46 L 32 46 C 36.417969 46 40 49.582031 40 54 C 40 58.417969 36.417969 62 32 62 L 28 62 C 23.582031 62 20 58.417969 20 54 C 20 49.582031 23.582031 46 28 46 Z M 28 46 "/>
<path fill-rule="nonzero" fill="rgb(100%, 100%, 100%)" fill-opacity="1" d="M 32.5 52.5 C 32.222656 52.5 32 52.722656 32 53 C 32 53.277344 32.222656 53.5 32.5 53.5 Z M 35.5 53.5 C 35.777344 53.5 36 53.277344 36 53 C 36 52.722656 35.777344 52.5 35.5 52.5 Z M 34.5 51.5 C 34.5 51.222656 34.277344 51 34 51 C 33.722656 51 33.5 51.222656 33.5 51.5 Z M 33.5 54.5 C 33.5 54.777344 33.722656 55 34 55 C 34.277344 55 34.5 54.777344 34.5 54.5 Z M 24 58 C 24 58.277344 24.222656 58.5 24.5 58.5 C 24.777344 58.5 25 58.277344 25 58 Z M 31 58 C 31 58.277344 31.222656 58.5 31.5 58.5 C 31.777344 58.5 32 58.277344 32 58 Z M 30 52 L 30.5 52 Z M 28 50 L 28 49.5 Z M 26 52 L 25.5 52 Z M 32.5 53.5 L 34 53.5 L 34 52.5 L 32.5 52.5 Z M 35.5 52.5 L 34 52.5 L 34 53.5 L 35.5 53.5 Z M 34.5 53 L 34.5 51.5 L 33.5 51.5 L 33.5 53 Z M 33.5 53 L 33.5 54.5 L 34.5 54.5 L 34.5 53 Z M 25 58 L 25 57.5 L 24 57.5 L 24 58 Z M 25 57.5 C 25 56.703125 25.316406 55.941406 25.878906 55.378906 L 25.171875 54.671875 C 24.421875 55.421875 24 56.4375 24 57.5 Z M 25.878906 55.378906 C 26.441406 54.816406 27.203125 54.5 28 54.5 L 28 53.5 C 26.9375 53.5 25.921875 53.921875 25.171875 54.671875 Z M 28 54.5 C 28.796875 54.5 29.558594 54.816406 30.121094 55.378906 L 30.828125 54.671875 C 30.078125 53.921875 29.0625 53.5 28 53.5 Z M 30.121094 55.378906 C 30.683594 55.941406 31 56.703125 31 57.5 L 32 57.5 C 32 56.4375 31.578125 55.421875 30.828125 54.671875 Z M 31 57.5 L 31 58 L 32 58 L 32 57.5 Z M 28 54.5 C 28.664062 54.5 29.300781 54.238281 29.769531 53.769531 L 29.0625 53.0625 C 28.78125 53.34375 28.398438 53.5 28 53.5 Z M 29.769531 53.769531 C 30.238281 53.300781 30.5 52.664062 30.5 52 L 29.5 52 C 29.5 52.398438 29.34375 52.78125 29.0625 53.0625 Z M 30.5 52 C 30.5 51.335938 30.238281 50.699219 29.769531 50.230469 L 29.0625 50.9375 C 29.34375 51.21875 29.5 51.601562 29.5 52 Z M 29.769531 50.230469 C 29.300781 49.761719 28.664062 49.5 28 49.5 L 28 50.5 C 28.398438 50.5 28.78125 50.65625 29.0625 50.9375 Z M 28 49.5 C 27.335938 49.5 26.699219 49.761719 26.230469 50.230469 L 26.9375 50.9375 C 27.21875 50.65625 27.601562 50.5 28 50.5 Z M 26.230469 50.230469 C 25.761719 50.699219 25.5 51.335938 25.5 52 L 26.5 52 C 26.5 51.601562 26.65625 51.21875 26.9375 50.9375 Z M 25.5 52 C 25.5 52.664062 25.761719 53.300781 26.230469 53.769531 L 26.9375 53.0625 C 26.65625 52.78125 26.5 52.398438 26.5 52 Z M 26.230469 53.769531 C 26.699219 54.238281 27.335938 54.5 28 54.5 L 28 53.5 C 27.601562 53.5 27.21875 53.34375 26.9375 53.0625 Z M 26.230469 53.769531 "/>
<path fill-rule="nonzero" fill="rgb(0%, 0%, 0%)" fill-opacity="0.5" d="M 28 72 L 32 72 C 36.417969 72 40 75.582031 40 80 C 40 84.417969 36.417969 88 32 88 L 28 88 C 23.582031 88 20 84.417969 20 80 C 20 75.582031 23.582031 72 28 72 Z M 28 72 "/>
<path fill-rule="nonzero" fill="rgb(69.804382%, 100%, 39.99939%)" fill-opacity="1" d="M 25.125 85 C 25.125 85.277344 25.347656 85.5 25.625 85.5 C 25.902344 85.5 26.125 85.277344 26.125 85 Z M 33.875 85 C 33.875 85.277344 34.097656 85.5 34.375 85.5 C 34.652344 85.5 34.875 85.277344 34.875 85 Z M 32.5 77.5 L 33 77.5 Z M 30 75 L 30 74.5 Z M 27.5 77.5 L 27 77.5 Z M 26.125 85 L 26.125 84.375 L 25.125 84.375 L 25.125 85 Z M 26.125 84.375 C 26.125 83.347656 26.535156 82.363281 27.261719 81.636719 L 26.554688 80.929688 C 25.636719 81.84375 25.125 83.082031 25.125 84.375 Z M 27.261719 81.636719 C 27.988281 80.910156 28.972656 80.5 30 80.5 L 30 79.5 C 28.707031 79.5 27.46875 80.015625 26.554688 80.929688 Z M 30 80.5 C 31.027344 80.5 32.011719 80.910156 32.738281 81.636719 L 33.445312 80.929688 C 32.53125 80.015625 31.292969 79.5 30 79.5 Z M 32.738281 81.636719 C 33.46875 82.363281 33.875 83.347656 33.875 84.375 L 34.875 84.375 C 34.875 83.082031 34.363281 81.84375 33.445312 80.929688 Z M 33.875 84.375 L 33.875 85 L 34.875 85 L 34.875 84.375 Z M 30 80.5 C 30.796875 80.5 31.558594 80.183594 32.121094 79.621094 L 31.414062 78.914062 C 31.039062 79.289062 30.53125 79.5 30 79.5 Z M 32.121094 79.621094 C 32.683594 79.058594 33 78.296875 33 77.5 L 32 77.5 C 32 78.03125 31.789062 78.539062 31.414062 78.914062 Z M 33 77.5 C 33 76.703125 32.683594 75.941406 32.121094 75.378906 L 31.414062 76.085938 C 31.789062 76.460938 32 76.96875 32 77.5 Z M 32.121094 75.378906 C 31.558594 74.816406 30.796875 74.5 30 74.5 L 30 75.5 C 30.53125 75.5 31.039062 75.710938 31.414062 76.085938 Z M 30 74.5 C 29.203125 74.5 28.441406 74.816406 27.878906 75.378906 L 28.585938 76.085938 C 28.960938 75.710938 29.46875 75.5 30 75.5 Z M 27.878906 75.378906 C 27.316406 75.941406 27 76.703125 27 77.5 L 28 77.5 C 28 76.96875 28.210938 76.460938 28.585938 76.085938 Z M 27 77.5 C 27 78.296875 27.316406 79.058594 27.878906 79.621094 L 28.585938 78.914062 C 28.210938 78.539062 28 78.03125 28 77.5 Z M 27.878906 79.621094 C 28.441406 80.183594 29.203125 80.5 30 80.5 L 30 79.5 C 29.46875 79.5 28.960938 79.289062 28.585938 78.914062 Z M 27.878906 79.621094 "/>
<g clip-path="url(#clip-0)">
<path fill-rule="nonzero" fill="rgb(59.216309%, 27.842712%, 100%)" fill-opacity="1" d="M 5 107.5 C 2.515625 107.5 0.5 105.484375 0.5 103 L -0.5 103 C -0.5 106.039062 1.960938 108.5 5 108.5 Z M 0.5 103 L 0.5 98.332031 L -0.5 98.332031 L -0.5 103 Z M 0.5 93.667969 L 0.5 84.332031 L -0.5 84.332031 L -0.5 93.667969 Z M 0.5 79.667969 L 0.5 70.332031 L -0.5 70.332031 L -0.5 79.667969 Z M 0.5 65.667969 L 0.5 56.332031 L -0.5 56.332031 L -0.5 65.667969 Z M 0.5 51.667969 L 0.5 42.332031 L -0.5 42.332031 L -0.5 51.667969 Z M 0.5 37.667969 L 0.5 28.332031 L -0.5 28.332031 L -0.5 37.667969 Z M 0.5 23.667969 L 0.5 14.332031 L -0.5 14.332031 L -0.5 23.667969 Z M 0.5 9.667969 L 0.5 5 L -0.5 5 L -0.5 9.667969 Z M 0.5 5 C 0.5 2.515625 2.515625 0.5 5 0.5 L 5 -0.5 C 1.960938 -0.5 -0.5 1.960938 -0.5 5 Z M 5 0.5 L 10.554688 0.5 L 10.554688 -0.5 L 5 -0.5 Z M 16.109375 0.5 L 27.222656 0.5 L 27.222656 -0.5 L 16.109375 -0.5 Z M 32.777344 0.5 L 43.890625 0.5 L 43.890625 -0.5 L 32.777344 -0.5 Z M 49.445312 0.5 L 55 0.5 L 55 -0.5 L 49.445312 -0.5 Z M 55 0.5 C 57.484375 0.5 59.5 2.515625 59.5 5 L 60.5 5 C 60.5 1.960938 58.039062 -0.5 55 -0.5 Z M 59.5 5 L 59.5 9.667969 L 60.5 9.667969 L 60.5 5 Z M 59.5 14.332031 L 59.5 23.667969 L 60.5 23.667969 L 60.5 14.332031 Z M 59.5 28.332031 L 59.5 37.667969 L 60.5 37.667969 L 60.5 28.332031 Z M 59.5 42.332031 L 59.5 51.667969 L 60.5 51.667969 L 60.5 42.332031 Z M 59.5 56.332031 L 59.5 65.667969 L 60.5 65.667969 L 60.5 56.332031 Z M 59.5 70.332031 L 59.5 79.667969 L 60.5 79.667969 L 60.5 70.332031 Z M 59.5 84.332031 L 59.5 93.667969 L 60.5 93.667969 L 60.5 84.332031 Z M 59.5 98.332031 L 59.5 103 L 60.5 103 L 60.5 98.332031 Z M 59.5 103 C 59.5 105.484375 57.484375 107.5 55 107.5 L 55 108.5 C 58.039062 108.5 60.5 106.039062 60.5 103 Z M 55 107.5 L 49.445312 107.5 L 49.445312 108.5 L 55 108.5 Z M 43.890625 107.5 L 32.777344 107.5 L 32.777344 108.5 L 43.890625 108.5 Z M 27.222656 107.5 L 16.109375 107.5 L 16.109375 108.5 L 27.222656 108.5 Z M 10.554688 107.5 L 5 107.5 L 5 108.5 L 10.554688 108.5 Z M 5 107 C 2.789062 107 1 105.210938 1 103 L -1 103 C -1 106.3125 1.6875 109 5 109 Z M 1 103 L 1 98.332031 L -1 98.332031 L -1 103 Z M 1 93.667969 L 1 84.332031 L -1 84.332031 L -1 93.667969 Z M 1 79.667969 L 1 70.332031 L -1 70.332031 L -1 79.667969 Z M 1 65.667969 L 1 56.332031 L -1 56.332031 L -1 65.667969 Z M 1 51.667969 L 1 42.332031 L -1 42.332031 L -1 51.667969 Z M 1 37.667969 L 1 28.332031 L -1 28.332031 L -1 37.667969 Z M 1 23.667969 L 1 14.332031 L -1 14.332031 L -1 23.667969 Z M 1 9.667969 L 1 5 L -1 5 L -1 9.667969 Z M 1 5 C 1 2.789062 2.789062 1 5 1 L 5 -1 C 1.6875 -1 -1 1.6875 -1 5 Z M 5 1 L 10.554688 1 L 10.554688 -1 L 5 -1 Z M 16.109375 1 L 27.222656 1 L 27.222656 -1 L 16.109375 -1 Z M 32.777344 1 L 43.890625 1 L 43.890625 -1 L 32.777344 -1 Z M 49.445312 1 L 55 1 L 55 -1 L 49.445312 -1 Z M 55 1 C 57.210938 1 59 2.789062 59 5 L 61 5 C 61 1.6875 58.3125 -1 55 -1 Z M 59 5 L 59 9.667969 L 61 9.667969 L 61 5 Z M 59 14.332031 L 59 23.667969 L 61 23.667969 L 61 14.332031 Z M 59 28.332031 L 59 37.667969 L 61 37.667969 L 61 28.332031 Z M 59 42.332031 L 59 51.667969 L 61 51.667969 L 61 42.332031 Z M 59 56.332031 L 59 65.667969 L 61 65.667969 L 61 56.332031 Z M 59 70.332031 L 59 79.667969 L 61 79.667969 L 61 70.332031 Z M 59 84.332031 L 59 93.667969 L 61 93.667969 L 61 84.332031 Z M 59 98.332031 L 59 103 L 61 103 L 61 98.332031 Z M 59 103 C 59 105.210938 57.210938 107 55 107 L 55 109 C 58.3125 109 61 106.3125 61 103 Z M 55 107 L 49.445312 107 L 49.445312 109 L 55 109 Z M 43.890625 107 L 32.777344 107 L 32.777344 109 L 43.890625 109 Z M 27.222656 107 L 16.109375 107 L 16.109375 109 L 27.222656 109 Z M 10.554688 107 L 5 107 L 5 109 L 10.554688 109 Z M 10.554688 107 "/>
</g>
</svg>
