<?xml version="1.0" encoding="UTF-8"?>
<svg xmlns="http://www.w3.org/2000/svg" xmlns:xlink="http://www.w3.org/1999/xlink" width="78" height="108" viewBox="0 0 78 108">
<defs>
<clipPath id="clip-0">
<path clip-rule="nonzero" d="M 5 0 L 73 0 C 75.761719 0 78 2.238281 78 5 L 78 103 C 78 105.761719 75.761719 108 73 108 L 5 108 C 2.238281 108 0 105.761719 0 103 L 0 5 C 0 2.238281 2.238281 0 5 0 Z M 5 0 "/>
</clipPath>
</defs>
<path fill-rule="nonzero" fill="rgb(92.156982%, 32.940674%, 61.177063%)" fill-opacity="1" d="M 28 20 L 50 20 C 54.417969 20 58 23.582031 58 28 C 58 32.417969 54.417969 36 50 36 L 28 36 C 23.582031 36 20 32.417969 20 28 C 20 23.582031 23.582031 20 28 20 Z M 28 20 "/>
<path fill-rule="nonzero" fill="rgb(100%, 100%, 100%)" fill-opacity="1" d="M 33.640625 24.515625 C 34.191406 25.015625 34.484375 25.652344 34.519531 26.425781 C 34.554688 27.203125 34.320312 27.859375 33.816406 28.394531 L 30.421875 32.144531 C 30.304688 32.269531 30.171875 32.332031 30.019531 32.332031 C 29.867188 32.332031 29.730469 32.269531 29.613281 32.144531 L 26.222656 28.394531 C 25.71875 27.859375 25.484375 27.203125 25.519531 26.425781 C 25.554688 25.652344 25.847656 25.015625 26.398438 24.515625 C 26.878906 24.078125 27.429688 23.890625 28.050781 23.953125 C 28.683594 24.003906 29.222656 24.269531 29.667969 24.757812 L 30.019531 25.132812 L 30.371094 24.757812 C 30.816406 24.269531 31.347656 24.003906 31.96875 23.953125 C 32.601562 23.890625 33.160156 24.078125 33.640625 24.515625 Z M 33.640625 24.515625 "/>
<path fill-rule="nonzero" fill="rgb(100%, 100%, 100%)" fill-opacity="1" d="M 42.640625 24.515625 C 43.191406 25.015625 43.484375 25.652344 43.519531 26.425781 C 43.554688 27.203125 43.320312 27.859375 42.816406 28.394531 L 39.421875 32.144531 C 39.304688 32.269531 39.171875 32.332031 39.019531 32.332031 C 38.867188 32.332031 38.730469 32.269531 38.613281 32.144531 L 35.222656 28.394531 C 34.71875 27.859375 34.484375 27.203125 34.519531 26.425781 C 34.554688 25.652344 34.847656 25.015625 35.398438 24.515625 C 35.878906 24.078125 36.429688 23.890625 37.050781 23.953125 C 37.683594 24.003906 38.222656 24.269531 38.667969 24.757812 L 39.019531 25.132812 L 39.371094 24.757812 C 39.816406 24.269531 40.347656 24.003906 40.96875 23.953125 C 41.601562 23.890625 42.160156 24.078125 42.640625 24.515625 Z M 42.640625 24.515625 "/>
<path fill-rule="nonzero" fill="rgb(100%, 100%, 100%)" fill-opacity="1" d="M 51.640625 24.515625 C 52.191406 25.015625 52.484375 25.652344 52.519531 26.425781 C 52.554688 27.203125 52.320312 27.859375 51.816406 28.394531 L 48.421875 32.144531 C 48.304688 32.269531 48.171875 32.332031 48.019531 32.332031 C 47.867188 32.332031 47.730469 32.269531 47.613281 32.144531 L 44.222656 28.394531 C 43.71875 27.859375 43.484375 27.203125 43.519531 26.425781 C 43.554688 25.652344 43.847656 25.015625 44.398438 24.515625 C 44.878906 24.078125 45.429688 23.890625 46.050781 23.953125 C 46.683594 24.003906 47.222656 24.269531 47.667969 24.757812 L 48.019531 25.132812 L 48.371094 24.757812 C 48.816406 24.269531 49.347656 24.003906 49.96875 23.953125 C 50.601562 23.890625 51.160156 24.078125 51.640625 24.515625 Z M 51.640625 24.515625 "/>
<path fill-rule="nonzero" fill="rgb(92.156982%, 32.940674%, 61.177063%)" fill-opacity="1" d="M 28 46 L 50 46 C 54.417969 46 58 49.582031 58 54 C 58 58.417969 54.417969 62 50 62 L 28 62 C 23.582031 62 20 58.417969 20 54 C 20 49.582031 23.582031 46 28 46 Z M 28 46 "/>
<path fill-rule="nonzero" fill="rgb(100%, 100%, 100%)" fill-opacity="1" d="M 38.121094 50.515625 C 39.230469 51.527344 39.28125 53.328125 38.296875 54.414062 L 34.886719 58.164062 C 34.675781 58.410156 34.308594 58.410156 34.097656 58.164062 L 30.6875 54.414062 C 29.703125 53.328125 29.753906 51.527344 30.863281 50.515625 C 31.828125 49.632812 33.269531 49.800781 34.148438 50.777344 L 34.5 51.152344 L 34.835938 50.777344 C 35.730469 49.800781 37.15625 49.632812 38.121094 50.515625 Z M 38.121094 50.515625 "/>
<path fill-rule="nonzero" fill="rgb(100%, 100%, 100%)" fill-opacity="1" d="M 47.121094 50.515625 C 48.230469 51.527344 48.28125 53.328125 47.296875 54.414062 L 43.886719 58.164062 C 43.675781 58.410156 43.308594 58.410156 43.097656 58.164062 L 39.6875 54.414062 C 38.703125 53.328125 38.753906 51.527344 39.863281 50.515625 C 40.828125 49.632812 42.269531 49.800781 43.148438 50.777344 L 43.5 51.152344 L 43.835938 50.777344 C 44.730469 49.800781 46.15625 49.632812 47.121094 50.515625 Z M 47.121094 50.515625 "/>
<path fill-rule="nonzero" fill="rgb(92.156982%, 32.940674%, 61.177063%)" fill-opacity="1" d="M 28 72 L 50 72 C 54.417969 72 58 75.582031 58 80 C 58 84.417969 54.417969 88 50 88 L 28 88 C 23.582031 88 20 84.417969 20 80 C 20 75.582031 23.582031 72 28 72 Z M 28 72 "/>
<path fill-rule="nonzero" fill="rgb(100%, 100%, 100%)" fill-opacity="1" d="M 42.621094 76.515625 C 43.730469 77.527344 43.78125 79.328125 42.796875 80.414062 L 39.386719 84.164062 C 39.175781 84.410156 38.808594 84.410156 38.597656 84.164062 L 35.1875 80.414062 C 34.203125 79.328125 34.253906 77.527344 35.363281 76.515625 C 36.328125 75.632812 37.769531 75.800781 38.648438 76.777344 L 39 77.152344 L 39.335938 76.777344 C 40.230469 75.800781 41.65625 75.632812 42.621094 76.515625 Z M 42.621094 76.515625 "/>
<g clip-path="url(#clip-0)">
<path fill-rule="nonzero" fill="rgb(59.216309%, 27.842712%, 100%)" fill-opacity="1" d="M 5 107.5 C 2.515625 107.5 0.5 105.484375 0.5 103 L -0.5 103 C -0.5 106.039062 1.960938 108.5 5 108.5 Z M 0.5 103 L 0.5 98.332031 L -0.5 98.332031 L -0.5 103 Z M 0.5 93.667969 L 0.5 84.332031 L -0.5 84.332031 L -0.5 93.667969 Z M 0.5 79.667969 L 0.5 70.332031 L -0.5 70.332031 L -0.5 79.667969 Z M 0.5 65.667969 L 0.5 56.332031 L -0.5 56.332031 L -0.5 65.667969 Z M 0.5 51.667969 L 0.5 42.332031 L -0.5 42.332031 L -0.5 51.667969 Z M 0.5 37.667969 L 0.5 28.332031 L -0.5 28.332031 L -0.5 37.667969 Z M 0.5 23.667969 L 0.5 14.332031 L -0.5 14.332031 L -0.5 23.667969 Z M 0.5 9.667969 L 0.5 5 L -0.5 5 L -0.5 9.667969 Z M 0.5 5 C 0.5 2.515625 2.515625 0.5 5 0.5 L 5 -0.5 C 1.960938 -0.5 -0.5 1.960938 -0.5 5 Z M 5 0.5 L 9.535156 0.5 L 9.535156 -0.5 L 5 -0.5 Z M 14.066406 0.5 L 23.132812 0.5 L 23.132812 -0.5 L 14.066406 -0.5 Z M 27.667969 0.5 L 36.734375 0.5 L 36.734375 -0.5 L 27.667969 -0.5 Z M 41.265625 0.5 L 50.332031 0.5 L 50.332031 -0.5 L 41.265625 -0.5 Z M 54.867188 0.5 L 63.933594 0.5 L 63.933594 -0.5 L 54.867188 -0.5 Z M 68.464844 0.5 L 73 0.5 L 73 -0.5 L 68.464844 -0.5 Z M 73 0.5 C 75.484375 0.5 77.5 2.515625 77.5 5 L 78.5 5 C 78.5 1.960938 76.039062 -0.5 73 -0.5 Z M 77.5 5 L 77.5 9.667969 L 78.5 9.667969 L 78.5 5 Z M 77.5 14.332031 L 77.5 23.667969 L 78.5 23.667969 L 78.5 14.332031 Z M 77.5 28.332031 L 77.5 37.667969 L 78.5 37.667969 L 78.5 28.332031 Z M 77.5 42.332031 L 77.5 51.667969 L 78.5 51.667969 L 78.5 42.332031 Z M 77.5 56.332031 L 77.5 65.667969 L 78.5 65.667969 L 78.5 56.332031 Z M 77.5 70.332031 L 77.5 79.667969 L 78.5 79.667969 L 78.5 70.332031 Z M 77.5 84.332031 L 77.5 93.667969 L 78.5 93.667969 L 78.5 84.332031 Z M 77.5 98.332031 L 77.5 103 L 78.5 103 L 78.5 98.332031 Z M 77.5 103 C 77.5 105.484375 75.484375 107.5 73 107.5 L 73 108.5 C 76.039062 108.5 78.5 106.039062 78.5 103 Z M 73 107.5 L 68.464844 107.5 L 68.464844 108.5 L 73 108.5 Z M 63.933594 107.5 L 54.867188 107.5 L 54.867188 108.5 L 63.933594 108.5 Z M 50.332031 107.5 L 41.265625 107.5 L 41.265625 108.5 L 50.332031 108.5 Z M 36.734375 107.5 L 27.667969 107.5 L 27.667969 108.5 L 36.734375 108.5 Z M 23.132812 107.5 L 14.066406 107.5 L 14.066406 108.5 L 23.132812 108.5 Z M 9.535156 107.5 L 5 107.5 L 5 108.5 L 9.535156 108.5 Z M 5 107 C 2.789062 107 1 105.210938 1 103 L -1 103 C -1 106.3125 1.6875 109 5 109 Z M 1 103 L 1 98.332031 L -1 98.332031 L -1 103 Z M 1 93.667969 L 1 84.332031 L -1 84.332031 L -1 93.667969 Z M 1 79.667969 L 1 70.332031 L -1 70.332031 L -1 79.667969 Z M 1 65.667969 L 1 56.332031 L -1 56.332031 L -1 65.667969 Z M 1 51.667969 L 1 42.332031 L -1 42.332031 L -1 51.667969 Z M 1 37.667969 L 1 28.332031 L -1 28.332031 L -1 37.667969 Z M 1 23.667969 L 1 14.332031 L -1 14.332031 L -1 23.667969 Z M 1 9.667969 L 1 5 L -1 5 L -1 9.667969 Z M 1 5 C 1 2.789062 2.789062 1 5 1 L 5 -1 C 1.6875 -1 -1 1.6875 -1 5 Z M 5 1 L 9.535156 1 L 9.535156 -1 L 5 -1 Z M 14.066406 1 L 23.132812 1 L 23.132812 -1 L 14.066406 -1 Z M 27.667969 1 L 36.734375 1 L 36.734375 -1 L 27.667969 -1 Z M 41.265625 1 L 50.332031 1 L 50.332031 -1 L 41.265625 -1 Z M 54.867188 1 L 63.933594 1 L 63.933594 -1 L 54.867188 -1 Z M 68.464844 1 L 73 1 L 73 -1 L 68.464844 -1 Z M 73 1 C 75.210938 1 77 2.789062 77 5 L 79 5 C 79 1.6875 76.3125 -1 73 -1 Z M 77 5 L 77 9.667969 L 79 9.667969 L 79 5 Z M 77 14.332031 L 77 23.667969 L 79 23.667969 L 79 14.332031 Z M 77 28.332031 L 77 37.667969 L 79 37.667969 L 79 28.332031 Z M 77 42.332031 L 77 51.667969 L 79 51.667969 L 79 42.332031 Z M 77 56.332031 L 77 65.667969 L 79 65.667969 L 79 56.332031 Z M 77 70.332031 L 77 79.667969 L 79 79.667969 L 79 70.332031 Z M 77 84.332031 L 77 93.667969 L 79 93.667969 L 79 84.332031 Z M 77 98.332031 L 77 103 L 79 103 L 79 98.332031 Z M 77 103 C 77 105.210938 75.210938 107 73 107 L 73 109 C 76.3125 109 79 106.3125 79 103 Z M 73 107 L 68.464844 107 L 68.464844 109 L 73 109 Z M 63.933594 107 L 54.867188 107 L 54.867188 109 L 63.933594 109 Z M 50.332031 107 L 41.265625 107 L 41.265625 109 L 50.332031 109 Z M 36.734375 107 L 27.667969 107 L 27.667969 109 L 36.734375 109 Z M 23.132812 107 L 14.066406 107 L 14.066406 109 L 23.132812 109 Z M 9.535156 107 L 5 107 L 5 109 L 9.535156 109 Z M 9.535156 107 "/>
</g>
</svg>
