<?xml version="1.0" encoding="UTF-8"?>
<svg xmlns="http://www.w3.org/2000/svg" xmlns:xlink="http://www.w3.org/1999/xlink" width="43.146484" height="42.292969" viewBox="0 0 43.146484 42.292969">
<defs>
<clipPath id="clip-0">
<path clip-rule="nonzero" d="M 14 0.0625 L 42.308594 0.0625 L 42.308594 41.535156 L 14 41.535156 Z M 14 0.0625 "/>
</clipPath>
</defs>
<g clip-path="url(#clip-0)">
<path fill-rule="nonzero" fill="rgb(0%, 0%, 0%)" fill-opacity="1" d="M 31.871094 33.546875 C 31.058594 33.546875 30.398438 34.207031 30.398438 35.019531 C 30.398438 35.832031 31.058594 36.488281 31.871094 36.488281 Z M 40.695312 35.019531 L 41.734375 36.058594 C 42.308594 35.484375 42.308594 34.554688 41.734375 33.976562 Z M 36.832031 29.074219 C 36.257812 28.5 35.328125 28.5 34.75 29.074219 C 34.175781 29.648438 34.175781 30.582031 34.75 31.15625 Z M 34.75 38.882812 C 34.175781 39.457031 34.175781 40.386719 34.75 40.960938 C 35.328125 41.535156 36.257812 41.535156 36.832031 40.960938 Z M 22.121094 2.71875 C 22.699219 2.144531 22.699219 1.210938 22.121094 0.636719 C 21.546875 0.0625 20.617188 0.0625 20.042969 0.636719 Z M 16.179688 6.582031 L 15.140625 5.539062 C 14.71875 5.960938 14.59375 6.59375 14.820312 7.144531 C 15.046875 7.695312 15.585938 8.050781 16.179688 8.050781 Z M 17.160156 8.050781 C 17.972656 8.050781 18.632812 7.394531 18.632812 6.582031 C 18.632812 5.769531 17.972656 5.109375 17.160156 5.109375 Z M 31.871094 36.488281 L 40.695312 36.488281 L 40.695312 33.546875 L 31.871094 33.546875 Z M 41.734375 33.976562 L 36.832031 29.074219 L 34.75 31.15625 L 39.65625 36.058594 Z M 39.65625 33.976562 L 34.75 38.882812 L 36.832031 40.960938 L 41.734375 36.058594 Z M 20.042969 0.636719 L 15.140625 5.539062 L 17.21875 7.621094 L 22.121094 2.71875 Z M 16.179688 8.050781 L 17.160156 8.050781 L 17.160156 5.109375 L 16.179688 5.109375 Z M 16.179688 8.050781 "/>
</g>
<path fill-rule="nonzero" fill="rgb(0%, 0%, 0%)" fill-opacity="1" d="M 18.140625 5.109375 C 17.328125 5.109375 16.671875 5.769531 16.671875 6.582031 C 16.671875 7.394531 17.328125 8.050781 18.140625 8.050781 Z M 1.472656 34.527344 C 0.660156 34.527344 0 35.1875 0 36 C 0 36.8125 0.660156 37.46875 1.472656 37.46875 Z M 18.140625 8.050781 C 21.652344 8.050781 25.019531 9.445312 27.5 11.929688 L 29.582031 9.847656 C 26.546875 6.816406 22.433594 5.109375 18.140625 5.109375 Z M 27.5 11.929688 C 29.984375 14.410156 31.378906 17.777344 31.378906 21.289062 L 34.320312 21.289062 C 34.320312 17 32.617188 12.882812 29.582031 9.847656 Z M 31.378906 21.289062 C 31.378906 24.800781 29.984375 28.167969 27.5 30.652344 L 29.582031 32.730469 C 32.617188 29.695312 34.320312 25.582031 34.320312 21.289062 Z M 27.5 30.652344 C 25.019531 33.132812 21.652344 34.527344 18.140625 34.527344 L 18.140625 37.46875 C 22.433594 37.46875 26.546875 35.765625 29.582031 32.730469 Z M 18.140625 34.527344 L 1.472656 34.527344 L 1.472656 37.46875 L 18.140625 37.46875 Z M 18.140625 34.527344 "/>
<path fill-rule="nonzero" fill="rgb(0%, 0%, 0%)" fill-opacity="1" d="M 11.53125 9.816406 C 12.238281 9.410156 12.476562 8.511719 12.074219 7.808594 C 11.667969 7.105469 10.769531 6.863281 10.0625 7.269531 Z M 3.433594 21.289062 L 4.902344 21.289062 Z M 5.199219 31 C 5.6875 31.648438 6.609375 31.78125 7.257812 31.292969 C 7.90625 30.804688 8.039062 29.882812 7.550781 29.230469 Z M 10.0625 7.269531 C 7.601562 8.6875 5.554688 10.730469 4.132812 13.191406 L 6.679688 14.664062 C 7.84375 12.648438 9.515625 10.976562 11.53125 9.816406 Z M 4.132812 13.191406 C 2.710938 15.652344 1.960938 18.445312 1.960938 21.289062 L 4.902344 21.289062 C 4.902344 18.964844 5.515625 16.679688 6.679688 14.664062 Z M 1.960938 21.289062 C 1.960938 24.929688 3.164062 28.292969 5.199219 31 L 7.550781 29.230469 C 5.886719 27.019531 4.902344 24.269531 4.902344 21.289062 Z M 1.960938 21.289062 "/>
<path fill-rule="nonzero" fill="rgb(0%, 0%, 0%)" fill-opacity="1" d="M 23.535156 21.070312 C 23.535156 21.882812 24.191406 22.542969 25.003906 22.542969 C 25.816406 22.542969 26.476562 21.882812 26.476562 21.070312 Z M 25.003906 13.445312 L 26.476562 13.445312 C 26.476562 13.015625 26.289062 12.605469 25.957031 12.324219 C 25.628906 12.046875 25.195312 11.925781 24.769531 11.992188 Z M 14.21875 15.1875 L 13.984375 13.738281 C 13.273438 13.851562 12.746094 14.46875 12.746094 15.1875 Z M 12.746094 22.816406 C 12.746094 23.628906 13.40625 24.285156 14.21875 24.285156 C 15.03125 24.285156 15.691406 23.628906 15.691406 22.816406 Z M 26.476562 21.070312 L 26.476562 13.445312 L 23.535156 13.445312 L 23.535156 21.070312 Z M 24.769531 11.992188 L 13.984375 13.738281 L 14.453125 16.640625 L 25.238281 14.898438 Z M 12.746094 15.1875 L 12.746094 22.816406 L 15.691406 22.816406 L 15.691406 15.1875 Z M 12.746094 15.1875 "/>
<path fill-rule="nonzero" fill="rgb(0%, 0%, 0%)" fill-opacity="1" d="M 25.003906 21.074219 L 26.476562 21.074219 C 26.476562 20.261719 25.816406 19.601562 25.003906 19.601562 Z M 14.21875 22.816406 L 15.691406 22.816406 C 15.691406 22.003906 15.03125 21.34375 14.21875 21.34375 Z M 11.277344 22.816406 L 11.277344 24.285156 Z M 9.316406 24.558594 L 7.84375 24.558594 Z M 9.316406 25.429688 L 7.84375 25.429688 Z M 22.0625 26.902344 L 23.042969 26.902344 L 23.042969 23.960938 L 22.0625 23.960938 Z M 23.042969 26.902344 C 23.902344 26.902344 24.753906 26.601562 25.40625 26.019531 L 23.453125 23.820312 C 23.371094 23.894531 23.226562 23.960938 23.042969 23.960938 Z M 25.40625 26.019531 C 26.066406 25.433594 26.476562 24.597656 26.476562 23.6875 L 23.535156 23.6875 C 23.535156 23.699219 23.53125 23.710938 23.523438 23.734375 C 23.511719 23.753906 23.492188 23.785156 23.453125 23.820312 Z M 26.476562 23.6875 L 26.476562 21.074219 L 23.535156 21.074219 L 23.535156 23.6875 Z M 25.003906 19.601562 L 22.0625 19.601562 L 22.0625 22.542969 L 25.003906 22.542969 Z M 22.0625 19.601562 C 21.207031 19.601562 20.351562 19.902344 19.699219 20.484375 L 21.652344 22.683594 C 21.734375 22.609375 21.882812 22.542969 22.0625 22.542969 Z M 19.699219 20.484375 C 19.039062 21.070312 18.632812 21.902344 18.632812 22.816406 L 21.574219 22.816406 C 21.574219 22.804688 21.574219 22.789062 21.585938 22.769531 C 21.59375 22.75 21.613281 22.71875 21.652344 22.683594 Z M 18.632812 22.816406 L 18.632812 23.6875 L 21.574219 23.6875 L 21.574219 22.816406 Z M 18.632812 23.6875 C 18.632812 24.597656 19.039062 25.433594 19.699219 26.019531 L 21.652344 23.820312 C 21.613281 23.785156 21.59375 23.753906 21.585938 23.734375 C 21.574219 23.710938 21.574219 23.699219 21.574219 23.6875 Z M 19.699219 26.019531 C 20.351562 26.601562 21.207031 26.902344 22.0625 26.902344 L 22.0625 23.960938 C 21.882812 23.960938 21.734375 23.894531 21.652344 23.820312 Z M 11.277344 28.644531 L 12.257812 28.644531 L 12.257812 25.703125 L 11.277344 25.703125 Z M 12.257812 28.644531 C 13.117188 28.644531 13.96875 28.34375 14.621094 27.761719 L 12.667969 25.5625 C 12.585938 25.636719 12.441406 25.703125 12.257812 25.703125 Z M 14.621094 27.761719 C 15.28125 27.175781 15.691406 26.34375 15.691406 25.429688 L 12.746094 25.429688 C 12.746094 25.441406 12.746094 25.457031 12.734375 25.476562 C 12.726562 25.496094 12.707031 25.527344 12.667969 25.5625 Z M 15.691406 25.429688 L 15.691406 22.816406 L 12.746094 22.816406 L 12.746094 25.429688 Z M 14.21875 21.34375 L 11.277344 21.34375 L 11.277344 24.285156 L 14.21875 24.285156 Z M 11.277344 21.34375 C 10.417969 21.34375 9.566406 21.644531 8.914062 22.226562 L 10.867188 24.425781 C 10.949219 24.351562 11.09375 24.285156 11.277344 24.285156 Z M 8.914062 22.226562 C 8.253906 22.8125 7.84375 23.648438 7.84375 24.558594 L 10.785156 24.558594 C 10.785156 24.546875 10.789062 24.535156 10.796875 24.511719 C 10.808594 24.492188 10.828125 24.460938 10.867188 24.425781 Z M 7.84375 24.558594 L 7.84375 25.429688 L 10.785156 25.429688 L 10.785156 24.558594 Z M 7.84375 25.429688 C 7.84375 26.34375 8.253906 27.175781 8.914062 27.761719 L 10.867188 25.5625 C 10.828125 25.527344 10.808594 25.496094 10.796875 25.476562 C 10.789062 25.457031 10.785156 25.441406 10.785156 25.429688 Z M 8.914062 27.761719 C 9.566406 28.34375 10.417969 28.644531 11.277344 28.644531 L 11.277344 25.703125 C 11.09375 25.703125 10.949219 25.636719 10.867188 25.5625 Z M 8.914062 27.761719 "/>
</svg>
