<?xml version="1.0" encoding="UTF-8"?>
<svg xmlns="http://www.w3.org/2000/svg" xmlns:xlink="http://www.w3.org/1999/xlink" width="82" height="120" viewBox="0 0 82 120">
<defs>
<clipPath id="clip-0">
<path clip-rule="nonzero" d="M 5 0 L 77 0 C 79.761719 0 82 2.238281 82 5 L 82 115 C 82 117.761719 79.761719 120 77 120 L 5 120 C 2.238281 120 0 117.761719 0 115 L 0 5 C 0 2.238281 2.238281 0 5 0 Z M 5 0 "/>
</clipPath>
</defs>
<path fill-rule="nonzero" fill="rgb(86.66687%, 18.03894%, 26.66626%)" fill-opacity="1" d="M 62 45.382812 C 62 47.933594 59.910156 50 57.332031 50 L 24.667969 50 C 22.089844 50 20 47.933594 20 45.382812 L 20 24.617188 C 20 22.066406 22.089844 20 24.667969 20 L 57.332031 20 C 59.910156 20 62 22.066406 62 24.617188 Z M 62 45.382812 "/>
<path fill-rule="nonzero" fill="rgb(93.333435%, 93.333435%, 93.333435%)" fill-opacity="1" d="M 20.648438 47.691406 L 61.355469 47.691406 C 61.753906 47.011719 62 46.230469 62 45.382812 L 20 45.382812 C 20 46.230469 20.246094 47.011719 20.648438 47.691406 Z M 20 40.769531 L 62 40.769531 L 62 43.078125 L 20 43.078125 Z M 20 36.152344 L 62 36.152344 L 62 38.460938 L 20 38.460938 Z M 20 31.539062 L 62 31.539062 L 62 33.847656 L 20 33.847656 Z M 20 26.921875 L 62 26.921875 L 62 29.230469 L 20 29.230469 Z M 20.648438 22.308594 C 20.246094 22.988281 20 23.769531 20 24.617188 L 62 24.617188 C 62 23.769531 61.753906 22.988281 61.351562 22.308594 Z M 20.648438 22.308594 "/>
<path fill-rule="nonzero" fill="rgb(0.392151%, 0%, 39.99939%)" fill-opacity="1" d="M 41 20 L 24.667969 20 C 22.089844 20 20 22.066406 20 24.617188 L 20 36.152344 L 41 36.152344 Z M 41 20 "/>
<path fill-rule="nonzero" fill="rgb(100%, 80.000305%, 30.195618%)" fill-opacity="1" d="M 31.121094 34.117188 C 27.75 34.117188 25.015625 31.410156 25.015625 28.078125 C 25.015625 24.742188 27.75 22.039062 31.121094 22.039062 C 31.957031 22.039062 32.75 22.207031 33.476562 22.507812 C 32.316406 21.660156 30.886719 21.15625 29.332031 21.15625 C 25.46875 21.15625 22.332031 24.253906 22.332031 28.078125 C 22.332031 31.902344 25.46875 35 29.332031 35 C 30.886719 35 32.316406 34.496094 33.476562 33.648438 C 32.75 33.949219 31.957031 34.117188 31.121094 34.117188 Z M 31.121094 34.117188 "/>
<path fill-rule="nonzero" fill="rgb(100%, 80.000305%, 30.195618%)" fill-opacity="1" d="M 35.074219 24.417969 L 35.464844 26.289062 L 36.636719 24.769531 L 36.167969 26.621094 L 37.886719 25.757812 L 36.652344 27.222656 L 38.582031 27.183594 L 36.824219 27.972656 L 38.582031 28.765625 L 36.652344 28.726562 L 37.886719 30.191406 L 36.167969 29.328125 L 36.636719 31.179688 L 35.464844 29.660156 L 35.074219 31.53125 L 34.6875 29.660156 L 33.515625 31.179688 L 33.984375 29.328125 L 32.265625 30.191406 L 33.5 28.726562 L 31.570312 28.765625 L 33.324219 27.972656 L 31.570312 27.183594 L 33.5 27.222656 L 32.265625 25.757812 L 33.984375 26.621094 L 33.515625 24.769531 L 34.6875 26.289062 Z M 35.074219 24.417969 "/>
<path fill-rule="nonzero" fill="rgb(93.333435%, 93.333435%, 93.333435%)" fill-opacity="1" d="M 62 95.359375 C 62 97.921875 59.910156 100 57.332031 100 L 24.667969 100 C 22.089844 100 20 97.921875 20 95.359375 L 20 74.472656 C 20 71.910156 22.089844 69.832031 24.667969 69.832031 L 57.332031 69.832031 C 59.910156 69.832031 62 71.910156 62 74.472656 Z M 62 95.359375 "/>
<path fill-rule="nonzero" fill="rgb(92.941284%, 10.588074%, 18.431091%)" fill-opacity="1" d="M 41 93.039062 C 45.511719 93.039062 49.167969 89.402344 49.167969 84.917969 C 49.167969 80.429688 45.511719 76.796875 41 76.796875 C 36.488281 76.796875 32.832031 80.429688 32.832031 84.917969 C 32.832031 89.402344 36.488281 93.039062 41 93.039062 Z M 41 93.039062 "/>
<g clip-path="url(#clip-0)">
<path fill-rule="nonzero" fill="rgb(59.216309%, 27.842712%, 100%)" fill-opacity="1" d="M 5 119.5 C 2.515625 119.5 0.5 117.484375 0.5 115 L -0.5 115 C -0.5 118.039062 1.960938 120.5 5 120.5 Z M 0.5 115 L 0.5 109.761719 L -0.5 109.761719 L -0.5 115 Z M 0.5 104.523438 L 0.5 94.046875 L -0.5 94.046875 L -0.5 104.523438 Z M 0.5 88.808594 L 0.5 78.332031 L -0.5 78.332031 L -0.5 88.808594 Z M 0.5 73.09375 L 0.5 62.617188 L -0.5 62.617188 L -0.5 73.09375 Z M 0.5 57.382812 L 0.5 46.90625 L -0.5 46.90625 L -0.5 57.382812 Z M 0.5 41.667969 L 0.5 31.191406 L -0.5 31.191406 L -0.5 41.667969 Z M 0.5 25.953125 L 0.5 15.476562 L -0.5 15.476562 L -0.5 25.953125 Z M 0.5 10.238281 L 0.5 5 L -0.5 5 L -0.5 10.238281 Z M 0.5 5 C 0.5 2.515625 2.515625 0.5 5 0.5 L 5 -0.5 C 1.960938 -0.5 -0.5 1.960938 -0.5 5 Z M 5 0.5 L 9.800781 0.5 L 9.800781 -0.5 L 5 -0.5 Z M 14.601562 0.5 L 24.199219 0.5 L 24.199219 -0.5 L 14.601562 -0.5 Z M 29 0.5 L 38.601562 0.5 L 38.601562 -0.5 L 29 -0.5 Z M 43.398438 0.5 L 53 0.5 L 53 -0.5 L 43.398438 -0.5 Z M 57.800781 0.5 L 67.398438 0.5 L 67.398438 -0.5 L 57.800781 -0.5 Z M 72.199219 0.5 L 77 0.5 L 77 -0.5 L 72.199219 -0.5 Z M 77 0.5 C 79.484375 0.5 81.5 2.515625 81.5 5 L 82.5 5 C 82.5 1.960938 80.039062 -0.5 77 -0.5 Z M 81.5 5 L 81.5 10.238281 L 82.5 10.238281 L 82.5 5 Z M 81.5 15.476562 L 81.5 25.953125 L 82.5 25.953125 L 82.5 15.476562 Z M 81.5 31.191406 L 81.5 41.667969 L 82.5 41.667969 L 82.5 31.191406 Z M 81.5 46.90625 L 81.5 57.382812 L 82.5 57.382812 L 82.5 46.90625 Z M 81.5 62.617188 L 81.5 73.09375 L 82.5 73.09375 L 82.5 62.617188 Z M 81.5 78.332031 L 81.5 88.808594 L 82.5 88.808594 L 82.5 78.332031 Z M 81.5 94.046875 L 81.5 104.523438 L 82.5 104.523438 L 82.5 94.046875 Z M 81.5 109.761719 L 81.5 115 L 82.5 115 L 82.5 109.761719 Z M 81.5 115 C 81.5 117.484375 79.484375 119.5 77 119.5 L 77 120.5 C 80.039062 120.5 82.5 118.039062 82.5 115 Z M 77 119.5 L 72.199219 119.5 L 72.199219 120.5 L 77 120.5 Z M 67.398438 119.5 L 57.800781 119.5 L 57.800781 120.5 L 67.398438 120.5 Z M 53 119.5 L 43.398438 119.5 L 43.398438 120.5 L 53 120.5 Z M 38.601562 119.5 L 29 119.5 L 29 120.5 L 38.601562 120.5 Z M 24.199219 119.5 L 14.601562 119.5 L 14.601562 120.5 L 24.199219 120.5 Z M 9.800781 119.5 L 5 119.5 L 5 120.5 L 9.800781 120.5 Z M 5 119 C 2.789062 119 1 117.210938 1 115 L -1 115 C -1 118.3125 1.6875 121 5 121 Z M 1 115 L 1 109.761719 L -1 109.761719 L -1 115 Z M 1 104.523438 L 1 94.046875 L -1 94.046875 L -1 104.523438 Z M 1 88.808594 L 1 78.332031 L -1 78.332031 L -1 88.808594 Z M 1 73.09375 L 1 62.617188 L -1 62.617188 L -1 73.09375 Z M 1 57.382812 L 1 46.90625 L -1 46.90625 L -1 57.382812 Z M 1 41.667969 L 1 31.191406 L -1 31.191406 L -1 41.667969 Z M 1 25.953125 L 1 15.476562 L -1 15.476562 L -1 25.953125 Z M 1 10.238281 L 1 5 L -1 5 L -1 10.238281 Z M 1 5 C 1 2.789062 2.789062 1 5 1 L 5 -1 C 1.6875 -1 -1 1.6875 -1 5 Z M 5 1 L 9.800781 1 L 9.800781 -1 L 5 -1 Z M 14.601562 1 L 24.199219 1 L 24.199219 -1 L 14.601562 -1 Z M 29 1 L 38.601562 1 L 38.601562 -1 L 29 -1 Z M 43.398438 1 L 53 1 L 53 -1 L 43.398438 -1 Z M 57.800781 1 L 67.398438 1 L 67.398438 -1 L 57.800781 -1 Z M 72.199219 1 L 77 1 L 77 -1 L 72.199219 -1 Z M 77 1 C 79.210938 1 81 2.789062 81 5 L 83 5 C 83 1.6875 80.3125 -1 77 -1 Z M 81 5 L 81 10.238281 L 83 10.238281 L 83 5 Z M 81 15.476562 L 81 25.953125 L 83 25.953125 L 83 15.476562 Z M 81 31.191406 L 81 41.667969 L 83 41.667969 L 83 31.191406 Z M 81 46.90625 L 81 57.382812 L 83 57.382812 L 83 46.90625 Z M 81 62.617188 L 81 73.09375 L 83 73.09375 L 83 62.617188 Z M 81 78.332031 L 81 88.808594 L 83 88.808594 L 83 78.332031 Z M 81 94.046875 L 81 104.523438 L 83 104.523438 L 83 94.046875 Z M 81 109.761719 L 81 115 L 83 115 L 83 109.761719 Z M 81 115 C 81 117.210938 79.210938 119 77 119 L 77 121 C 80.3125 121 83 118.3125 83 115 Z M 77 119 L 72.199219 119 L 72.199219 121 L 77 121 Z M 67.398438 119 L 57.800781 119 L 57.800781 121 L 67.398438 121 Z M 53 119 L 43.398438 119 L 43.398438 121 L 53 121 Z M 38.601562 119 L 29 119 L 29 121 L 38.601562 121 Z M 24.199219 119 L 14.601562 119 L 14.601562 121 L 24.199219 121 Z M 9.800781 119 L 5 119 L 5 121 L 9.800781 121 Z M 9.800781 119 "/>
</g>
</svg>
