<?xml version="1.0" encoding="UTF-8"?>
<svg xmlns="http://www.w3.org/2000/svg" xmlns:xlink="http://www.w3.org/1999/xlink" width="19.5" height="20.5" viewBox="0 0 19.5 20.5">
<defs>
<clipPath id="clip-0">
<path clip-rule="nonzero" d="M 0 0.0117188 L 19.011719 0.0117188 L 19.011719 20 L 0 20 Z M 0 0.0117188 "/>
</clipPath>
</defs>
<g clip-path="url(#clip-0)">
<path fill-rule="nonzero" fill="rgb(0%, 0%, 0%)" fill-opacity="1" d="M 13.164062 0.742188 C 13.164062 0.339844 12.835938 0.0117188 12.429688 0.0117188 C 12.027344 0.0117188 11.699219 0.339844 11.699219 0.742188 Z M 11.699219 4.644531 C 11.699219 5.046875 12.027344 5.375 12.429688 5.375 C 12.835938 5.375 13.164062 5.046875 13.164062 4.644531 Z M 8.042969 1.960938 C 7.640625 1.960938 7.3125 2.289062 7.3125 2.695312 C 7.3125 3.097656 7.640625 3.425781 8.042969 3.425781 Z M 0.730469 17.320312 L 0 17.320312 Z M 2.679688 2.695312 L 2.679688 1.960938 Z M 4.632812 3.425781 C 5.035156 3.425781 5.363281 3.097656 5.363281 2.695312 C 5.363281 2.289062 5.035156 1.960938 4.632812 1.960938 Z M 5.363281 0.742188 C 5.363281 0.339844 5.035156 0.0117188 4.632812 0.0117188 C 4.226562 0.0117188 3.898438 0.339844 3.898438 0.742188 Z M 3.898438 4.644531 C 3.898438 5.046875 4.226562 5.375 4.632812 5.375 C 5.035156 5.375 5.363281 5.046875 5.363281 4.644531 Z M 16.332031 2.695312 L 16.332031 1.960938 Z M 15.84375 1.960938 C 15.441406 1.960938 15.113281 2.289062 15.113281 2.695312 C 15.113281 3.097656 15.441406 3.425781 15.84375 3.425781 Z M 13.164062 2.695312 L 13.164062 0.742188 L 11.699219 0.742188 L 11.699219 2.695312 Z M 11.699219 2.695312 L 11.699219 4.644531 L 13.164062 4.644531 L 13.164062 2.695312 Z M 12.429688 1.960938 L 8.042969 1.960938 L 8.042969 3.425781 L 12.429688 3.425781 Z M 0 8.542969 L 0 17.320312 L 1.460938 17.320312 L 1.460938 8.542969 Z M 0 17.320312 C 0 18.03125 0.28125 18.710938 0.785156 19.214844 L 1.820312 18.179688 C 1.589844 17.953125 1.460938 17.640625 1.460938 17.320312 Z M 0.785156 19.214844 C 1.289062 19.71875 1.96875 20 2.679688 20 L 2.679688 18.539062 C 2.359375 18.539062 2.046875 18.410156 1.820312 18.179688 Z M 2.679688 20 L 16.332031 20 L 16.332031 18.539062 L 2.679688 18.539062 Z M 16.332031 20 C 17.042969 20 17.722656 19.71875 18.226562 19.214844 L 17.191406 18.179688 C 16.964844 18.410156 16.65625 18.539062 16.332031 18.539062 Z M 18.226562 19.214844 C 18.730469 18.710938 19.011719 18.03125 19.011719 17.320312 L 17.550781 17.320312 C 17.550781 17.640625 17.421875 17.953125 17.191406 18.179688 Z M 19.011719 17.320312 L 19.011719 8.542969 L 17.550781 8.542969 L 17.550781 17.320312 Z M 18.28125 7.8125 L 0.730469 7.8125 L 0.730469 9.273438 L 18.28125 9.273438 Z M 1.460938 8.542969 L 1.460938 4.644531 L 0 4.644531 L 0 8.542969 Z M 1.460938 4.644531 C 1.460938 4.320312 1.589844 4.011719 1.820312 3.78125 L 0.785156 2.746094 C 0.28125 3.25 0 3.933594 0 4.644531 Z M 1.820312 3.78125 C 2.046875 3.554688 2.359375 3.425781 2.679688 3.425781 L 2.679688 1.960938 C 1.96875 1.960938 1.289062 2.246094 0.785156 2.746094 Z M 2.679688 3.425781 L 4.632812 3.425781 L 4.632812 1.960938 L 2.679688 1.960938 Z M 3.898438 0.742188 L 3.898438 4.644531 L 5.363281 4.644531 L 5.363281 0.742188 Z M 19.011719 8.542969 L 19.011719 4.644531 L 17.550781 4.644531 L 17.550781 8.542969 Z M 19.011719 4.644531 C 19.011719 3.933594 18.730469 3.25 18.226562 2.746094 L 17.191406 3.78125 C 17.421875 4.011719 17.550781 4.320312 17.550781 4.644531 Z M 18.226562 2.746094 C 17.722656 2.246094 17.042969 1.960938 16.332031 1.960938 L 16.332031 3.425781 C 16.65625 3.425781 16.964844 3.554688 17.191406 3.78125 Z M 16.332031 1.960938 L 15.84375 1.960938 L 15.84375 3.425781 L 16.332031 3.425781 Z M 16.332031 1.960938 "/>
</g>
</svg>
