<?xml version="1.0" encoding="UTF-8"?>
<svg xmlns="http://www.w3.org/2000/svg" xmlns:xlink="http://www.w3.org/1999/xlink" width="18.263672" height="18.263672" viewBox="0 0 18.263672 18.263672">
<defs>
<clipPath id="clip-0">
<path clip-rule="nonzero" d="M 0 0 L 17.554688 0 L 17.554688 17.554688 L 0 17.554688 Z M 0 0 "/>
</clipPath>
</defs>
<g clip-path="url(#clip-0)">
<path fill-rule="nonzero" fill="rgb(0%, 0%, 0%)" fill-opacity="1" d="M 12.195312 1.285156 L 12.703125 1.792969 Z M 14.914062 1.285156 L 14.402344 1.792969 Z M 16.273438 2.644531 L 16.78125 2.132812 Z M 16.273438 5.363281 L 16.78125 5.871094 Z M 1.527344 11.949219 L 1.019531 11.441406 Z M 0.972656 13.140625 L 0.253906 13.074219 Z M 0.738281 15.773438 L 1.457031 15.835938 Z M 1.78125 16.816406 L 1.84375 17.535156 Z M 4.414062 16.582031 L 4.351562 15.867188 Z M 5.609375 16.027344 L 6.117188 16.539062 Z M 11.28125 3.214844 L 12.703125 1.792969 L 11.683594 0.773438 L 10.261719 2.195312 Z M 12.703125 1.792969 C 12.816406 1.683594 12.949219 1.59375 13.09375 1.535156 L 12.542969 0.203125 C 12.222656 0.335938 11.929688 0.527344 11.683594 0.773438 Z M 13.09375 1.535156 C 13.238281 1.472656 13.394531 1.441406 13.554688 1.441406 L 13.554688 0 C 13.207031 0 12.863281 0.0703125 12.542969 0.203125 Z M 13.554688 1.441406 C 13.710938 1.441406 13.867188 1.472656 14.011719 1.535156 L 14.566406 0.203125 C 14.246094 0.0703125 13.902344 0 13.554688 0 Z M 14.011719 1.535156 C 14.160156 1.59375 14.292969 1.683594 14.402344 1.792969 L 15.421875 0.773438 C 15.175781 0.527344 14.886719 0.335938 14.566406 0.203125 Z M 14.402344 1.792969 L 15.761719 3.152344 L 16.78125 2.132812 L 15.421875 0.773438 Z M 15.761719 3.152344 C 15.988281 3.378906 16.113281 3.683594 16.113281 4.003906 L 17.554688 4.003906 C 17.554688 3.300781 17.277344 2.628906 16.78125 2.132812 Z M 16.113281 4.003906 C 16.113281 4.320312 15.988281 4.625 15.761719 4.851562 L 16.78125 5.871094 C 17.277344 5.375 17.554688 4.703125 17.554688 4.003906 Z M 15.761719 4.851562 L 14.339844 6.273438 L 15.359375 7.292969 L 16.78125 5.871094 Z M 10.261719 2.195312 L 1.019531 11.441406 L 2.039062 12.460938 L 11.28125 3.214844 Z M 1.019531 11.441406 C 0.578125 11.878906 0.308594 12.457031 0.253906 13.074219 L 1.691406 13.203125 C 1.714844 12.921875 1.839844 12.660156 2.039062 12.460938 Z M 0.253906 13.074219 L 0.0234375 15.710938 L 1.457031 15.835938 L 1.691406 13.203125 Z M 0.0234375 15.710938 C 0 15.953125 0.03125 16.199219 0.117188 16.433594 L 1.472656 15.941406 C 1.460938 15.90625 1.453125 15.871094 1.457031 15.835938 Z M 0.117188 16.433594 C 0.199219 16.664062 0.332031 16.875 0.507812 17.046875 L 1.527344 16.027344 C 1.503906 16.003906 1.484375 15.972656 1.472656 15.941406 Z M 0.507812 17.046875 C 0.679688 17.222656 0.890625 17.355469 1.121094 17.4375 L 1.613281 16.085938 C 1.582031 16.074219 1.550781 16.054688 1.527344 16.027344 Z M 1.121094 17.4375 C 1.351562 17.523438 1.601562 17.554688 1.84375 17.535156 L 1.71875 16.097656 C 1.683594 16.101562 1.648438 16.097656 1.613281 16.085938 Z M 1.84375 17.535156 L 4.480469 17.300781 L 4.351562 15.867188 L 1.71875 16.097656 Z M 4.476562 17.300781 C 5.097656 17.246094 5.675781 16.976562 6.117188 16.539062 L 5.097656 15.519531 C 4.898438 15.71875 4.632812 15.839844 4.351562 15.867188 Z M 6.117188 16.539062 L 15.359375 7.292969 L 14.339844 6.273438 L 5.097656 15.519531 Z M 10.261719 3.214844 L 14.339844 7.292969 L 15.359375 6.273438 L 11.28125 2.195312 Z M 10.261719 3.214844 "/>
</g>
</svg>
