<?xml version="1.0" encoding="UTF-8"?>
<svg xmlns="http://www.w3.org/2000/svg" xmlns:xlink="http://www.w3.org/1999/xlink" width="140" height="120" viewBox="0 0 140 120">
<defs>
<clipPath id="clip-0">
<path clip-rule="nonzero" d="M 5 0 L 135 0 C 137.761719 0 140 2.238281 140 5 L 140 115 C 140 117.761719 137.761719 120 135 120 L 5 120 C 2.238281 120 0 117.761719 0 115 L 0 5 C 0 2.238281 2.238281 0 5 0 Z M 5 0 "/>
</clipPath>
</defs>
<path fill-rule="nonzero" fill="rgb(13.33313%, 16.470337%, 15.686035%)" fill-opacity="0.8" d="M 35 20 L 105 20 C 113.285156 20 120 26.714844 120 35 C 120 43.285156 113.285156 50 105 50 L 35 50 C 26.714844 50 20 43.285156 20 35 C 20 26.714844 26.714844 20 35 20 Z M 35 20 "/>
<path fill-rule="nonzero" fill="rgb(100%, 100%, 100%)" fill-opacity="1" d="M 65.753906 28.78125 L 65.4375 29.320312 Z M 65 29.210938 L 64.375 29.210938 Z M 65 40.789062 L 64.375 40.789062 Z M 65.753906 41.21875 L 65.4375 40.679688 Z M 75.523438 35.429688 L 75.84375 35.96875 Z M 75.769531 35 L 75.144531 35 Z M 75.523438 34.570312 L 75.84375 34.03125 Z M 66.074219 28.242188 C 65.902344 28.140625 65.707031 28.085938 65.511719 28.085938 L 65.5 29.335938 C 65.476562 29.335938 65.457031 29.328125 65.4375 29.320312 Z M 65.511719 28.085938 C 65.3125 28.085938 65.117188 28.136719 64.941406 28.234375 L 65.5625 29.320312 C 65.542969 29.332031 65.519531 29.335938 65.5 29.335938 Z M 64.941406 28.234375 C 64.769531 28.332031 64.628906 28.472656 64.527344 28.644531 L 65.609375 29.273438 C 65.597656 29.292969 65.582031 29.308594 65.5625 29.320312 Z M 64.527344 28.644531 C 64.425781 28.816406 64.375 29.011719 64.375 29.210938 L 65.625 29.210938 C 65.625 29.234375 65.621094 29.253906 65.609375 29.273438 Z M 64.375 29.210938 L 64.375 40.789062 L 65.625 40.789062 L 65.625 29.210938 Z M 64.375 40.789062 C 64.375 40.988281 64.425781 41.183594 64.527344 41.355469 L 65.609375 40.726562 C 65.621094 40.746094 65.625 40.765625 65.625 40.789062 Z M 64.527344 41.355469 C 64.628906 41.527344 64.769531 41.667969 64.941406 41.765625 L 65.5625 40.679688 C 65.582031 40.691406 65.597656 40.707031 65.609375 40.726562 Z M 64.941406 41.765625 C 65.117188 41.863281 65.3125 41.914062 65.511719 41.914062 L 65.5 40.664062 C 65.519531 40.664062 65.542969 40.667969 65.5625 40.679688 Z M 65.511719 41.914062 C 65.707031 41.914062 65.902344 41.859375 66.074219 41.757812 L 65.4375 40.679688 C 65.457031 40.671875 65.476562 40.664062 65.5 40.664062 Z M 66.074219 41.757812 L 75.84375 35.96875 L 75.207031 34.890625 L 65.4375 40.679688 Z M 75.84375 35.96875 C 76.011719 35.867188 76.148438 35.726562 76.246094 35.558594 L 75.160156 34.9375 C 75.171875 34.917969 75.1875 34.902344 75.207031 34.890625 Z M 76.246094 35.558594 C 76.34375 35.386719 76.394531 35.195312 76.394531 35 L 75.144531 35 C 75.144531 34.976562 75.148438 34.957031 75.160156 34.9375 Z M 76.394531 35 C 76.394531 34.804688 76.34375 34.613281 76.246094 34.441406 L 75.160156 35.0625 C 75.148438 35.042969 75.144531 35.023438 75.144531 35 Z M 76.246094 34.441406 C 76.148438 34.273438 76.011719 34.132812 75.84375 34.03125 L 75.207031 35.109375 C 75.1875 35.097656 75.171875 35.082031 75.160156 35.0625 Z M 75.84375 34.03125 L 66.074219 28.242188 L 65.4375 29.320312 L 75.207031 35.109375 Z M 75.84375 34.03125 "/>
<path fill-rule="nonzero" fill="rgb(13.33313%, 16.470337%, 15.686035%)" fill-opacity="1" d="M 35 70 L 105 70 C 113.285156 70 120 76.714844 120 85 C 120 93.285156 113.285156 100 105 100 L 35 100 C 26.714844 100 20 93.285156 20 85 C 20 76.714844 26.714844 70 35 70 Z M 35 70 "/>
<path fill-rule="nonzero" fill="rgb(39.99939%, 100%, 80.000305%)" fill-opacity="1" d="M 65.753906 78.78125 L 65.4375 79.320312 Z M 65 79.210938 L 64.375 79.210938 Z M 65 90.789062 L 64.375 90.789062 Z M 65.753906 91.21875 L 65.4375 90.679688 Z M 75.523438 85.429688 L 75.84375 85.96875 Z M 75.769531 85 L 75.144531 85 Z M 75.523438 84.570312 L 75.84375 84.03125 Z M 66.074219 78.242188 C 65.902344 78.140625 65.707031 78.085938 65.511719 78.085938 L 65.5 79.335938 C 65.476562 79.335938 65.457031 79.328125 65.4375 79.320312 Z M 65.511719 78.085938 C 65.3125 78.085938 65.117188 78.136719 64.941406 78.234375 L 65.5625 79.320312 C 65.542969 79.332031 65.519531 79.335938 65.5 79.335938 Z M 64.941406 78.234375 C 64.769531 78.332031 64.628906 78.472656 64.527344 78.644531 L 65.609375 79.273438 C 65.597656 79.292969 65.582031 79.308594 65.5625 79.320312 Z M 64.527344 78.644531 C 64.425781 78.816406 64.375 79.011719 64.375 79.210938 L 65.625 79.210938 C 65.625 79.234375 65.621094 79.253906 65.609375 79.273438 Z M 64.375 79.210938 L 64.375 90.789062 L 65.625 90.789062 L 65.625 79.210938 Z M 64.375 90.789062 C 64.375 90.988281 64.425781 91.183594 64.527344 91.355469 L 65.609375 90.726562 C 65.621094 90.746094 65.625 90.765625 65.625 90.789062 Z M 64.527344 91.355469 C 64.628906 91.527344 64.769531 91.667969 64.941406 91.765625 L 65.5625 90.679688 C 65.582031 90.691406 65.597656 90.707031 65.609375 90.726562 Z M 64.941406 91.765625 C 65.117188 91.863281 65.3125 91.914062 65.511719 91.914062 L 65.5 90.664062 C 65.519531 90.664062 65.542969 90.667969 65.5625 90.679688 Z M 65.511719 91.914062 C 65.707031 91.914062 65.902344 91.859375 66.074219 91.757812 L 65.4375 90.679688 C 65.457031 90.671875 65.476562 90.664062 65.5 90.664062 Z M 66.074219 91.757812 L 75.84375 85.96875 L 75.207031 84.890625 L 65.4375 90.679688 Z M 75.84375 85.96875 C 76.011719 85.867188 76.148438 85.726562 76.246094 85.558594 L 75.160156 84.9375 C 75.171875 84.917969 75.1875 84.902344 75.207031 84.890625 Z M 76.246094 85.558594 C 76.34375 85.386719 76.394531 85.195312 76.394531 85 L 75.144531 85 C 75.144531 84.976562 75.148438 84.957031 75.160156 84.9375 Z M 76.394531 85 C 76.394531 84.804688 76.34375 84.613281 76.246094 84.441406 L 75.160156 85.0625 C 75.148438 85.042969 75.144531 85.023438 75.144531 85 Z M 76.246094 84.441406 C 76.148438 84.273438 76.011719 84.132812 75.84375 84.03125 L 75.207031 85.109375 C 75.1875 85.097656 75.171875 85.082031 75.160156 85.0625 Z M 75.84375 84.03125 L 66.074219 78.242188 L 65.4375 79.320312 L 75.207031 85.109375 Z M 75.84375 84.03125 "/>
<g clip-path="url(#clip-0)">
<path fill-rule="nonzero" fill="rgb(59.216309%, 27.842712%, 100%)" fill-opacity="1" d="M 5 119.5 C 2.515625 119.5 0.5 117.484375 0.5 115 L -0.5 115 C -0.5 118.039062 1.960938 120.5 5 120.5 Z M 0.5 115 L 0.5 109.761719 L -0.5 109.761719 L -0.5 115 Z M 0.5 104.523438 L 0.5 94.046875 L -0.5 94.046875 L -0.5 104.523438 Z M 0.5 88.808594 L 0.5 78.332031 L -0.5 78.332031 L -0.5 88.808594 Z M 0.5 73.09375 L 0.5 62.617188 L -0.5 62.617188 L -0.5 73.09375 Z M 0.5 57.382812 L 0.5 46.90625 L -0.5 46.90625 L -0.5 57.382812 Z M 0.5 41.667969 L 0.5 31.191406 L -0.5 31.191406 L -0.5 41.667969 Z M 0.5 25.953125 L 0.5 15.476562 L -0.5 15.476562 L -0.5 25.953125 Z M 0.5 10.238281 L 0.5 5 L -0.5 5 L -0.5 10.238281 Z M 0.5 5 C 0.5 2.515625 2.515625 0.5 5 0.5 L 5 -0.5 C 1.960938 -0.5 -0.5 1.960938 -0.5 5 Z M 5 0.5 L 9.816406 0.5 L 9.816406 -0.5 L 5 -0.5 Z M 14.628906 0.5 L 24.257812 0.5 L 24.257812 -0.5 L 14.628906 -0.5 Z M 29.074219 0.5 L 38.703125 0.5 L 38.703125 -0.5 L 29.074219 -0.5 Z M 43.519531 0.5 L 53.148438 0.5 L 53.148438 -0.5 L 43.519531 -0.5 Z M 57.964844 0.5 L 67.59375 0.5 L 67.59375 -0.5 L 57.964844 -0.5 Z M 72.40625 0.5 L 82.035156 0.5 L 82.035156 -0.5 L 72.40625 -0.5 Z M 86.851562 0.5 L 96.480469 0.5 L 96.480469 -0.5 L 86.851562 -0.5 Z M 101.296875 0.5 L 110.925781 0.5 L 110.925781 -0.5 L 101.296875 -0.5 Z M 115.742188 0.5 L 125.371094 0.5 L 125.371094 -0.5 L 115.742188 -0.5 Z M 130.183594 0.5 L 135 0.5 L 135 -0.5 L 130.183594 -0.5 Z M 135 0.5 C 137.484375 0.5 139.5 2.515625 139.5 5 L 140.5 5 C 140.5 1.960938 138.039062 -0.5 135 -0.5 Z M 139.5 5 L 139.5 10.238281 L 140.5 10.238281 L 140.5 5 Z M 139.5 15.476562 L 139.5 25.953125 L 140.5 25.953125 L 140.5 15.476562 Z M 139.5 31.191406 L 139.5 41.667969 L 140.5 41.667969 L 140.5 31.191406 Z M 139.5 46.90625 L 139.5 57.382812 L 140.5 57.382812 L 140.5 46.90625 Z M 139.5 62.617188 L 139.5 73.09375 L 140.5 73.09375 L 140.5 62.617188 Z M 139.5 78.332031 L 139.5 88.808594 L 140.5 88.808594 L 140.5 78.332031 Z M 139.5 94.046875 L 139.5 104.523438 L 140.5 104.523438 L 140.5 94.046875 Z M 139.5 109.761719 L 139.5 115 L 140.5 115 L 140.5 109.761719 Z M 139.5 115 C 139.5 117.484375 137.484375 119.5 135 119.5 L 135 120.5 C 138.039062 120.5 140.5 118.039062 140.5 115 Z M 135 119.5 L 130.183594 119.5 L 130.183594 120.5 L 135 120.5 Z M 125.371094 119.5 L 115.742188 119.5 L 115.742188 120.5 L 125.371094 120.5 Z M 110.925781 119.5 L 101.296875 119.5 L 101.296875 120.5 L 110.925781 120.5 Z M 96.480469 119.5 L 86.851562 119.5 L 86.851562 120.5 L 96.480469 120.5 Z M 82.035156 119.5 L 72.40625 119.5 L 72.40625 120.5 L 82.035156 120.5 Z M 67.59375 119.5 L 57.964844 119.5 L 57.964844 120.5 L 67.59375 120.5 Z M 53.148438 119.5 L 43.519531 119.5 L 43.519531 120.5 L 53.148438 120.5 Z M 38.703125 119.5 L 29.074219 119.5 L 29.074219 120.5 L 38.703125 120.5 Z M 24.257812 119.5 L 14.628906 119.5 L 14.628906 120.5 L 24.257812 120.5 Z M 9.816406 119.5 L 5 119.5 L 5 120.5 L 9.816406 120.5 Z M 5 119 C 2.789062 119 1 117.210938 1 115 L -1 115 C -1 118.3125 1.6875 121 5 121 Z M 1 115 L 1 109.761719 L -1 109.761719 L -1 115 Z M 1 104.523438 L 1 94.046875 L -1 94.046875 L -1 104.523438 Z M 1 88.808594 L 1 78.332031 L -1 78.332031 L -1 88.808594 Z M 1 73.09375 L 1 62.617188 L -1 62.617188 L -1 73.09375 Z M 1 57.382812 L 1 46.90625 L -1 46.90625 L -1 57.382812 Z M 1 41.667969 L 1 31.191406 L -1 31.191406 L -1 41.667969 Z M 1 25.953125 L 1 15.476562 L -1 15.476562 L -1 25.953125 Z M 1 10.238281 L 1 5 L -1 5 L -1 10.238281 Z M 1 5 C 1 2.789062 2.789062 1 5 1 L 5 -1 C 1.6875 -1 -1 1.6875 -1 5 Z M 5 1 L 9.816406 1 L 9.816406 -1 L 5 -1 Z M 14.628906 1 L 24.257812 1 L 24.257812 -1 L 14.628906 -1 Z M 29.074219 1 L 38.703125 1 L 38.703125 -1 L 29.074219 -1 Z M 43.519531 1 L 53.148438 1 L 53.148438 -1 L 43.519531 -1 Z M 57.964844 1 L 67.59375 1 L 67.59375 -1 L 57.964844 -1 Z M 72.40625 1 L 82.035156 1 L 82.035156 -1 L 72.40625 -1 Z M 86.851562 1 L 96.480469 1 L 96.480469 -1 L 86.851562 -1 Z M 101.296875 1 L 110.925781 1 L 110.925781 -1 L 101.296875 -1 Z M 115.742188 1 L 125.371094 1 L 125.371094 -1 L 115.742188 -1 Z M 130.183594 1 L 135 1 L 135 -1 L 130.183594 -1 Z M 135 1 C 137.210938 1 139 2.789062 139 5 L 141 5 C 141 1.6875 138.3125 -1 135 -1 Z M 139 5 L 139 10.238281 L 141 10.238281 L 141 5 Z M 139 15.476562 L 139 25.953125 L 141 25.953125 L 141 15.476562 Z M 139 31.191406 L 139 41.667969 L 141 41.667969 L 141 31.191406 Z M 139 46.90625 L 139 57.382812 L 141 57.382812 L 141 46.90625 Z M 139 62.617188 L 139 73.09375 L 141 73.09375 L 141 62.617188 Z M 139 78.332031 L 139 88.808594 L 141 88.808594 L 141 78.332031 Z M 139 94.046875 L 139 104.523438 L 141 104.523438 L 141 94.046875 Z M 139 109.761719 L 139 115 L 141 115 L 141 109.761719 Z M 139 115 C 139 117.210938 137.210938 119 135 119 L 135 121 C 138.3125 121 141 118.3125 141 115 Z M 135 119 L 130.183594 119 L 130.183594 121 L 135 121 Z M 125.371094 119 L 115.742188 119 L 115.742188 121 L 125.371094 121 Z M 110.925781 119 L 101.296875 119 L 101.296875 121 L 110.925781 121 Z M 96.480469 119 L 86.851562 119 L 86.851562 121 L 96.480469 121 Z M 82.035156 119 L 72.40625 119 L 72.40625 121 L 82.035156 121 Z M 67.59375 119 L 57.964844 119 L 57.964844 121 L 67.59375 121 Z M 53.148438 119 L 43.519531 119 L 43.519531 121 L 53.148438 121 Z M 38.703125 119 L 29.074219 119 L 29.074219 121 L 38.703125 121 Z M 24.257812 119 L 14.628906 119 L 14.628906 121 L 24.257812 121 Z M 9.816406 119 L 5 119 L 5 121 L 9.816406 121 Z M 9.816406 119 "/>
</g>
</svg>
