<?xml version="1.0" encoding="UTF-8"?>
<svg xmlns="http://www.w3.org/2000/svg" xmlns:xlink="http://www.w3.org/1999/xlink" width="21.5" height="21.5" viewBox="0 0 21.5 21.5">
<defs>
<clipPath id="clip-0">
<path clip-rule="nonzero" d="M 0 0 L 21 0 L 21 21.011719 L 0 21.011719 Z M 0 0 "/>
</clipPath>
<clipPath id="clip-1">
<path clip-rule="nonzero" d="M 14 13 L 21.011719 13 L 21.011719 21 L 14 21 Z M 14 13 "/>
</clipPath>
</defs>
<path fill-rule="nonzero" fill="rgb(0%, 0%, 0%)" fill-opacity="1" d="M 11.238281 4.640625 C 11.238281 4.238281 10.910156 3.910156 10.503906 3.910156 C 10.101562 3.910156 9.773438 4.238281 9.773438 4.640625 Z M 10.503906 10.503906 L 9.773438 10.503906 C 9.773438 10.910156 10.101562 11.238281 10.503906 11.238281 Z M 16.371094 11.238281 C 16.773438 11.238281 17.101562 10.910156 17.101562 10.503906 C 17.101562 10.101562 16.773438 9.773438 16.371094 9.773438 Z M 9.773438 4.640625 L 9.773438 10.503906 L 11.238281 10.503906 L 11.238281 4.640625 Z M 10.503906 11.238281 L 16.371094 11.238281 L 16.371094 9.773438 L 10.503906 9.773438 Z M 10.503906 11.238281 "/>
<g clip-path="url(#clip-0)">
<path fill-rule="nonzero" fill="rgb(0%, 0%, 0%)" fill-opacity="1" d="M 19.445312 9.148438 C 19.503906 9.550781 19.878906 9.824219 20.277344 9.765625 C 20.679688 9.703125 20.953125 9.332031 20.894531 8.929688 Z M 20.136719 14.707031 C 20.300781 14.335938 20.128906 13.90625 19.757812 13.742188 C 19.386719 13.582031 18.957031 13.75 18.792969 14.121094 Z M 20.894531 8.929688 C 20.132812 3.875 15.773438 0 10.503906 0 L 10.503906 1.464844 C 15.035156 1.464844 18.789062 4.800781 19.445312 9.148438 Z M 10.503906 0 C 4.703125 0 0 4.703125 0 10.503906 L 1.464844 10.503906 C 1.464844 5.511719 5.511719 1.464844 10.503906 1.464844 Z M 0 10.503906 C 0 16.308594 4.703125 21.011719 10.503906 21.011719 L 10.503906 19.546875 C 5.511719 19.546875 1.464844 15.5 1.464844 10.503906 Z M 10.503906 21.011719 C 14.8125 21.011719 18.515625 18.417969 20.136719 14.707031 L 18.792969 14.121094 C 17.398438 17.316406 14.210938 19.546875 10.503906 19.546875 Z M 10.503906 21.011719 "/>
</g>
<g clip-path="url(#clip-1)">
<path fill-rule="nonzero" fill="rgb(0%, 0%, 0%)" fill-opacity="1" d="M 15.390625 13.683594 C 14.988281 13.683594 14.660156 14.011719 14.660156 14.414062 C 14.660156 14.820312 14.988281 15.148438 15.390625 15.148438 Z M 19.691406 14.414062 L 19.691406 15.148438 Z M 20.277344 15 L 21.011719 15 Z M 19.546875 19.300781 C 19.546875 19.707031 19.875 20.035156 20.277344 20.035156 C 20.683594 20.035156 21.011719 19.707031 21.011719 19.300781 Z M 15.390625 15.148438 L 19.691406 15.148438 L 19.691406 13.683594 L 15.390625 13.683594 Z M 19.691406 15.148438 C 19.671875 15.148438 19.652344 15.144531 19.636719 15.136719 L 20.195312 13.78125 C 20.035156 13.714844 19.867188 13.683594 19.691406 13.683594 Z M 19.636719 15.136719 C 19.617188 15.128906 19.601562 15.117188 19.589844 15.105469 L 20.625 14.066406 C 20.503906 13.945312 20.355469 13.847656 20.195312 13.78125 Z M 19.589844 15.105469 C 19.574219 15.089844 19.5625 15.074219 19.554688 15.058594 L 20.910156 14.496094 C 20.84375 14.335938 20.746094 14.191406 20.625 14.066406 Z M 19.554688 15.058594 C 19.550781 15.039062 19.546875 15.019531 19.546875 15 L 21.011719 15 C 21.011719 14.828125 20.976562 14.65625 20.910156 14.496094 Z M 19.546875 15 L 19.546875 19.300781 L 21.011719 19.300781 L 21.011719 15 Z M 19.546875 15 "/>
</g>
</svg>
