<svg id="图层_1" data-name="图层 1" xmlns="http://www.w3.org/2000/svg" viewBox="0 0 30 30"><defs><style>.cls-1{fill:none;stroke:#ff66ab;stroke-miterlimit:2;stroke-width:2px;}.cls-2{fill:#ff66ab;}</style></defs><circle class="cls-1" cx="15" cy="15" r="14"/><path class="cls-2" d="M8.63965,14.20056a1.46139,1.46139,0,0,0-.83716.42316,1.92871,1.92871,0,0,0,.09021,2.589,1.63226,1.63226,0,0,0,1.5799.26782,1.488,1.488,0,0,0,.94415-1.14764,2.01848,2.01848,0,0,0-.312-1.60852A1.55137,1.55137,0,0,0,8.63965,14.20056Z" transform="translate(-1 -1)"/><path class="cls-2" d="M18.85565,22.04852a.6289.6289,0,0,0-.48834.74549.59815.59815,0,0,0,.839.51867.74234.74234,0,0,0,.18487-1.07586A.53543.53543,0,0,0,18.85565,22.04852Z" transform="translate(-1 -1)"/><path class="cls-2" d="M16,4.1712A11.8288,11.8288,0,1,0,27.8288,16,11.82876,11.82876,0,0,0,16,4.1712ZM13.16528,17.02185c.3147-.06018.54828.19861.777.36786a1.179,1.179,0,0,0,1.72607-.29724.43485.43485,0,0,0-.27069-.60425A9.02892,9.02892,0,0,1,13.4632,16.049a1.64048,1.64048,0,0,1-.79242-1.52325,1.835,1.835,0,0,1,1.49737-1.57428,2.58034,2.58034,0,0,1,1.97571.484c.20422.14123.42035.39373.30286.65741a.74806.74806,0,0,1-.968.358c-.2923-.13074-.57556-.36505-.91687-.29932a.69987.69987,0,0,0-.63709.6518.44874.44874,0,0,0,.38532.38189,5.28356,5.28356,0,0,1,1.83447.41962,1.64588,1.64588,0,0,1,.78888,1.654,1.802,1.802,0,0,1-1.02386,1.33862,2.81454,2.81454,0,0,1-2.98285-.40637c-.20142-.17975-.43707-.41473-.38184-.71124C12.5932,17.19037,12.90717,17.05957,13.16528,17.02185ZM9.4621,18.79474a2.97566,2.97566,0,0,1-3.49268-3.357,2.974,2.974,0,0,1,4.29346-2.20507,2.97046,2.97046,0,0,1-.80078,5.56207Zm5.66363,3.18487q-.30624.77371-.6087,1.54981c-.04382.10547-.09149.23883-.21723.2663-.13531.02313-.327.02935-.38769-.12427-.14734-.39972-.25281-.81385-.391-1.217-.12232.38623-.2345.77588-.36457,1.15918a.31848.31848,0,0,1-.587.00964c-.23114-.58124-.46234-1.163-.68579-1.74719a.21471.21471,0,0,1,.21331-.2851.30143.30143,0,0,1,.33381.184c.157.39826.30529.80091.45123,1.20349.10113-.33856.2215-.67083.32507-1.00842a1.28152,1.28152,0,0,1,.12134-.30005.268.268,0,0,1,.28992-.06793c.11273.02844.14789.15027.18109.24658.11847.36988.23889.73926.36456,1.10718.15747-.38623.28845-.78259.44641-1.16833a.32113.32113,0,0,1,.497-.132C15.20667,21.735,15.16284,21.879,15.12573,21.97961Zm2.07471.86017c-.46375.0072-.928-.00531-1.39179.00574a.72486.72486,0,0,0,.19117.37469.69968.69968,0,0,0,.88134-.01928c.17334-.20032.57355.00433.47388.25769a1.23993,1.23993,0,0,1-1.68078.13434,1.16361,1.16361,0,1,1,1.54638-1.73755,1.05184,1.05184,0,0,1,.30249.69684A.3009.3009,0,0,1,17.20044,22.83978Zm2.74316.5307a1.03111,1.03111,0,0,1-1.52472.25141.34345.34345,0,0,1-.47052.15216c-.10833-.06067-.10833-.196-.10693-.3039.00433-.86688-.00433-1.73419.00385-2.60058-.00623-.30438.56543-.31012.54663-.00238.00622.30865-.002.61737.00287.92608a.96265.96265,0,0,1,.68145-.24945,1.109,1.109,0,0,1,1.03205.877A1.29225,1.29225,0,0,1,19.9436,23.37048Zm1.96033-5.20794a2.70484,2.70484,0,0,1-2.79962.5,2.42276,2.42276,0,0,1-1.3316-1.475,7.1574,7.1574,0,0,1-.21332-2.37921c.0105-.41827-.02515-.83929.02173-1.2561a.5499.5499,0,0,1,.36084-.47486.968.968,0,0,1,.75042.05316.62211.62211,0,0,1,.25806.55671c.00354.77069-.00415,1.54138.0014,2.3114a2.13251,2.13251,0,0,0,.27,1.14.93072.93072,0,0,0,.72528.3609,1.31783,1.31783,0,0,0,1.05884-.30353,1.59857,1.59857,0,0,0,.36786-1.05883c.0105-.81409-.00842-1.62818.007-2.4422a.62464.62464,0,0,1,.2937-.584,1.01251,1.01251,0,0,1,.76092-.01892.60607.60607,0,0,1,.32941.59381c.00208.77069-.00073,1.54138.00067,2.31207A3.02157,3.02157,0,0,1,21.90393,18.16254Zm3.72974.1a.8184.8184,0,0,1-1.53162-.57416.6702.6702,0,0,1,.55805-.54132.9375.9375,0,0,1,.81127.18323A.99117.99117,0,0,1,25.63367,18.26251ZM25.591,15.8609a.5944.5944,0,0,1-.41827.60706,1.02765,1.02765,0,0,1-.77625-.09235.701.701,0,0,1-.23291-.58679c-.04827-1.39942-.1217-2.79883-.15106-4.19971a.75253.75253,0,0,1,.64343-.81476.94741.94741,0,0,1,.96723.31751,1.32038,1.32038,0,0,1,.11957.77911C25.6994,13.20117,25.64624,14.5307,25.591,15.8609Z" transform="translate(-1 -1)"/><path class="cls-2" d="M16.75885,22.12408a.65844.65844,0,0,0-.918.27454c.37952.01733.76044.00916,1.14093.00482A.77733.77733,0,0,0,16.75885,22.12408Z" transform="translate(-1 -1)"/></svg>