<svg id="图层_1" data-name="图层 1" xmlns="http://www.w3.org/2000/svg" viewBox="0 0 30 30"><defs><style>.cls-1{fill:none;stroke:#ff66ab;stroke-miterlimit:2;stroke-width:2px;}.cls-2{fill:#ff66ab;}.cls-3{fill:#fff;}</style></defs><circle class="cls-1" cx="15" cy="15" r="14"/><circle class="cls-2" cx="15" cy="15" r="11.8288"/><path class="cls-3" d="M24.65592,10.77435a.94734.94734,0,0,1,.96723.31752,1.32014,1.32014,0,0,1,.1196.7791c-.04336,1.3302-.09652,2.65971-.15177,3.98991a.59436.59436,0,0,1-.41822.607,1.02765,1.02765,0,0,1-.7763-.09231.70094.70094,0,0,1-.23289-.58678c-.04826-1.39944-.12169-2.79888-.15107-4.19972A.75253.75253,0,0,1,24.65592,10.77435Z" transform="translate(-1 -1)"/><path class="cls-3" d="M8.43192,12.9459a3.03174,3.03174,0,0,1,1.83095.28674,2.96854,2.96854,0,1,1-4.29343,2.20512A3.00469,3.00469,0,0,1,8.43192,12.9459Zm.20771,1.25467a1.46152,1.46152,0,0,0-.83714.42312,1.92874,1.92874,0,0,0,.09022,2.58907,1.63232,1.63232,0,0,0,1.57987.26786,1.48818,1.48818,0,0,0,.94415-1.14767,2.01854,2.01854,0,0,0-.31191-1.60855A1.5514,1.5514,0,0,0,8.63963,14.20057Z" transform="translate(-1 -1)"/><path class="cls-3" d="M14.16816,12.9515a2.58029,2.58029,0,0,1,1.97572.484c.20422.14127.42032.39375.30283.65741a.74807.74807,0,0,1-.96793.35808c-.29234-.13079-.57558-.36507-.91687-.29933a.69992.69992,0,0,0-.63713.65181.44885.44885,0,0,0,.38535.38186,5.28306,5.28306,0,0,1,1.83445.41962,1.64587,1.64587,0,0,1,.78889,1.654,1.8019,1.8019,0,0,1-1.02388,1.3386,2.81447,2.81447,0,0,1-2.98281-.40634c-.20142-.17974-.43711-.41472-.38186-.71126.04826-.28954.36227-.42032.62034-.45809.31472-.06014.54831.19863.777.36787a1.1789,1.1789,0,0,0,1.72605-.29723.43482.43482,0,0,0-.27066-.60426,9.02987,9.02987,0,0,1-1.93446-.4392,1.64048,1.64048,0,0,1-.79238-1.52323A1.83486,1.83486,0,0,1,14.16816,12.9515Z" transform="translate(-1 -1)"/><path class="cls-3" d="M17.942,13.07738a.9681.9681,0,0,1,.75043.05315.62224.62224,0,0,1,.25807.5567c.00349.77071-.0042,1.54142.0014,2.31142a2.13237,2.13237,0,0,0,.27,1.14.93054.93054,0,0,0,.72525.36087,1.31764,1.31764,0,0,0,1.05885-.30352,1.59859,1.59859,0,0,0,.36787-1.05885c.01049-.81407-.0084-1.62814.007-2.4422a.62473.62473,0,0,1,.29374-.584,1.01229,1.01229,0,0,1,.76091-.01888.606.606,0,0,1,.32941.59377c.00209.7707-.0007,1.54141.0007,2.31212a3.02157,3.02157,0,0,1-.86163,2.16455,2.70477,2.70477,0,0,1-2.79958.5,2.42284,2.42284,0,0,1-1.3316-1.475,7.15727,7.15727,0,0,1-.21331-2.37925c.01049-.41823-.02518-.83925.02168-1.25607A.55.55,0,0,1,17.942,13.07738Z" transform="translate(-1 -1)"/><path class="cls-3" d="M24.66012,17.147a.93764.93764,0,0,1,.81127.18324.99116.99116,0,0,1,.16226.93226.81841.81841,0,0,1-1.53163-.57419A.67032.67032,0,0,1,24.66012,17.147Z" transform="translate(-1 -1)"/><path class="cls-3" d="M17.84529,20.86957c-.00626-.30437.56539-.31015.54661-.00241.00626.3087-.00193.6174.00289.9261a.96278.96278,0,0,1,.68145-.24947,1.1091,1.1091,0,0,1,1.03205.877,1.2921,1.2921,0,0,1-.1647.9497,1.03106,1.03106,0,0,1-1.52472.25139.34347.34347,0,0,1-.47052.15219c-.10835-.06069-.10835-.196-.10691-.30389C17.84578,22.6033,17.83711,21.736,17.84529,20.86957Zm1.01038,1.17893a.62888.62888,0,0,0-.48833.74551.59812.59812,0,0,0,.83893.51867.74235.74235,0,0,0,.18493-1.07588A.53554.53554,0,0,0,18.85567,22.0485Z" transform="translate(-1 -1)"/><path class="cls-3" d="M15.65213,21.82456a1.18493,1.18493,0,0,1,1.56854.03082,1.05193,1.05193,0,0,1,.30244.69687.30082.30082,0,0,1-.32267.28751c-.46377.00722-.928-.0053-1.3918.00578a.72476.72476,0,0,0,.19119.37467.69964.69964,0,0,0,.88132-.01926c.17337-.20034.57357.00434.47388.25765a1.23989,1.23989,0,0,1-1.68075.13437A1.19242,1.19242,0,0,1,15.65213,21.82456Zm.18878.57406c.37949.01734.76043.00915,1.14089.00482a.77654.77654,0,0,0-.223-.27933A.65835.65835,0,0,0,15.84091,22.39862Z" transform="translate(-1 -1)"/><path class="cls-3" d="M11.88367,21.87609a.21473.21473,0,0,1,.21334-.2851.30137.30137,0,0,1,.33375.184c.157.39827.30533.80089.45125,1.2035.10113-.33856.22153-.67086.32507-1.00846a1.28152,1.28152,0,0,1,.12136-.3.2679.2679,0,0,1,.28992-.0679c.1127.02841.14785.15025.18108.24657.11847.36986.23887.73924.36457,1.10718.15748-.38624.28847-.78259.44643-1.16834a.32109.32109,0,0,1,.497-.132c.09921.07947.05539.22346.01831.32411q-.3063.77369-.60874,1.54977c-.04382.10547-.0915.23887-.21719.26632-.13533.02311-.327.02937-.38769-.12425-.14736-.39972-.25283-.81389-.391-1.217-.12232.38624-.23453.77585-.36456,1.1592a.31852.31852,0,0,1-.58706.00963C12.33829,23.042,12.10713,22.46026,11.88367,21.87609Z" transform="translate(-1 -1)"/></svg>