<svg width="32" height="32" viewBox="0 0 64 64" fill="none" xmlns="http://www.w3.org/2000/svg">
  <path fill-rule="evenodd" clip-rule="evenodd" d="M32 4C16.536 4 4 16.536 4 32s12.536 28 28 28 28-12.536 28-28S47.464 4 32 4zm0 4.676c12.881 0 23.324 10.443 23.324 23.324S44.881 51.324 32 51.324 8.676 44.881 8.676 32 19.119 8.676 32 8.676zm0 4.664c-10.305 0-18.66 8.355-18.66 18.66 0 10.305 8.355 18.66 18.66 18.66 10.305 0 18.66-8.355 18.66-18.66 0-10.305-8.355-18.66-18.66-18.66zm0 4.676c-7.728 0-13.984 6.256-13.984 13.984 0 7.728 6.256 13.984 13.984 13.984 7.728 0 13.984-6.256 13.984-13.984 0-7.728-6.256-13.984-13.984-13.984z" fill="#ff66aa"/>
</svg>
